<svg id="Layer_1" enable-background="new 0 0 512.01 512.01" height="512" viewBox="0 0 512.01 512.01" width="512" xmlns="http://www.w3.org/2000/svg"><path d="m475.695 512.01-16.9-405.579h-69.287v-25.705c.001-44.513-36.213-80.726-80.726-80.726s-80.726 36.213-80.726 80.726v25.706h-69.286l-4.653 111.516h-117.802v294.009zm-166.917-30v-32.6h134.282l1.358 32.6zm-50.722-401.284c0-27.97 22.756-50.726 50.726-50.726s50.726 22.755 50.726 50.726v25.706h-101.452zm-70.511 55.705h40.511v28.138h30v-28.138h101.452v28.138h30v-28.138h40.51l11.792 282.979h-133.032v-201.463h-124.634zm-55.619 111.516h81.241v34.703c0 22.398-18.222 40.62-40.621 40.62-22.398 0-40.62-18.222-40.62-40.62zm146.852 234.009h-212.463v-234.009h35.611v34.703c0 38.94 31.68 70.62 70.621 70.62 38.94 0 70.62-31.68 70.62-70.62v-34.703h35.611z"/></svg>