<?xml version="1.0" encoding="utf-8"?>
<!-- Generator: Adobe Illustrator 24.0.1, SVG Export Plug-In . SVG Version: 6.00 Build 0)  -->
<svg version="1.2" baseProfile="tiny" id="Layer_1" xmlns="http://www.w3.org/2000/svg" xmlns:xlink="http://www.w3.org/1999/xlink"
	 x="0px" y="0px" viewBox="0 0 824.2 263.5" xml:space="preserve">
<rect x="-2283.6" y="-376.8" fill-rule="evenodd" fill="#15A6B1" width="689.1" height="1150.7"/>
<g>
	<path fill="#FFFFFF" d="M-1984.1-53.9v0.1C-1984.1-53.8-1984.1-53.9-1984.1-53.9L-1984.1-53.9z"/>
	<path fill="#FFFFFF" d="M-2064.3,11c-35.6,0-64.6-29-64.6-64.6c0-15.9,5.8-30.5,15.4-41.8c-0.4-0.2-0.8-0.5-1-0.9
		c-9.8,11.5-15.8,26.5-15.8,42.8c0,36.4,29.6,66,66,66c7.7,0,15.2-1.3,22.4-3.9V7C-2049.1,9.7-2056.7,11-2064.3,11z"/>
	<path fill="#FFFFFF" d="M-2019.3-101.9c-12.3-11.4-28.2-17.7-45-17.7c-16.3,0-31.2,5.9-42.7,15.7c0.1,0.1,0.2,0.2,0.2,0.3
		c0,0,0,0,0,0c0.2,0.2,0.4,0.4,0.6,0.7c11.3-9.6,25.9-15.4,41.8-15.4c30.8,0,57.1,22,63.2,51.4c0.4-0.2,0.9-0.4,1.3-0.3
		C-2002.5-80.5-2009.3-92.5-2019.3-101.9z"/>
	<path fill="#FFFFFF" d="M-2006.7-58c-0.8-0.2-1.7-0.4-2.6-0.5c-0.4-0.1-0.8-0.1-1.2-0.1h-1.6h-1.7l-22.8,0.1v10.5l5.5,0
		c0.2,0,0.3,0.2,0.2,0.4c-1.7,3.1-2.7,6.6-2.7,10.3c0,0,0,0.1,0,0.1v33V8.6V21l12.6-7.2l0.3-17.1l0.2-12.5l0-0.5
		c0-0.6,0.5-1,1.1-0.9c0,0,0.1,0,0.1,0c2,0.7,4,1.1,6.2,1.2c0.3,0,0.6,0,0.9,0c11.8,0,21.4-9.6,21.4-21.4
		C-1990.7-47.2-1997.5-55.6-2006.7-58z M-2009.5-27.2c-1,0.3-2.1,0.5-3.2,0.5c-0.1,0-0.3,0-0.4,0c-4.2-0.1-7.7-2.7-9.3-6.3
		c-0.5-1.1-0.8-2.2-0.9-3.5c0-0.3,0-0.6,0-1c0-5.9,4.8-10.7,10.7-10.7c0,0,0,0,0,0c0,0,0,0,0,0c1.3,0,2.5,0.2,3.6,0.6
		c0.7,0.3,1.4,0.6,2.1,1c3,1.9,5,5.2,5,9C-2002-32.6-2005.2-28.6-2009.5-27.2z"/>
	<path fill="#FFFFFF" d="M-2012.6-43.8c-3.6,0-6.5,2.9-6.5,6.5c0,3.6,2.9,6.5,6.5,6.5s6.5-2.9,6.5-6.5
		C-2006.2-40.9-2009.1-43.8-2012.6-43.8z M-2012.6-32c-3,0-5.4-2.4-5.4-5.4c0-3,2.4-5.4,5.4-5.4s5.4,2.4,5.4,5.4
		C-2007.3-34.4-2009.7-32-2012.6-32z"/>
	<text transform="matrix(1 0 0 1 -1896.2922 -5.9641)" fill="#FFFFFF" font-family="'Calibri-Bold'" font-size="14.5223px">smile everybody</text>
	<circle fill="none" cx="-2084.3" cy="-84.5" r="5.8"/>
	<circle fill="none" cx="-2044.3" cy="-84.5" r="5.8"/>
	<path fill="none" d="M-2008.1-44.6c-0.5-0.3-1.1-0.6-1.7-0.8c-0.9-0.3-1.9-0.5-2.9-0.5h0h0c-4.7,0-8.5,3.9-8.5,8.6
		c0,0.3,0,0.5,0,0.8c0.1,1,0.3,1.9,0.7,2.8c1.4,3,4.2,4.9,7.5,5l0.3,0c0.9,0,1.8-0.1,2.6-0.4c3.6-1.1,6-4.4,6-8.2
		C-2004.2-40.4-2005.6-43.1-2008.1-44.6z"/>
	<path fill="#FFFFFF" d="M-2035.7-37.4c0-2.9,0.6-5.8,1.7-8.6l-2.6,0v4.6c0,5.1-1.2,9.6-3.6,13.6c-2.4,4-5.8,7.1-10,9.3
		c-4.2,2.2-9,3.3-14.3,3.3c-5.2,0-10-1.1-14.2-3.3s-7.5-5.3-9.9-9.3c-2.4-4-3.6-8.5-3.6-13.6v-31.3c0-0.4,0.2-0.8,0.5-1.1
		c0.4-0.4,1-0.5,1.1-0.5c0.1,0,5.6,0,5.7,0c0.1,0,7.3,0,7.4,0v32.4c0,4.4,1.2,7.8,3.5,10.2c2.3,2.4,5.5,3.6,9.5,3.6s7.2-1.2,9.6-3.6
		c2.4-2.4,3.5-5.8,3.5-10.2v-32.4h13.3c0.8,0,1.5,0.7,1.5,1.5v12.1l22.8-0.1h3.4l0.1,0c0.4,0,0.9,0.1,1.3,0.1
		c0.9,0.1,1.8,0.3,2.7,0.5c-3.2-29.2-28-52-58.1-52c-33.2,0-59.9,27.6-58.4,61.2c1.4,30,25.7,54.4,55.8,55.7
		c11.4,0.5,22.1-2.3,31.3-7.5v-34.6L-2035.7-37.4z M-2044.3-90.3c3.2,0,5.8,2.6,5.8,5.8s-2.6,5.8-5.8,5.8s-5.8-2.6-5.8-5.8
		S-2047.4-90.3-2044.3-90.3z M-2084.3-90.3c3.2,0,5.8,2.6,5.8,5.8s-2.6,5.8-5.8,5.8s-5.8-2.6-5.8-5.8S-2087.5-90.3-2084.3-90.3z"/>
	<circle fill="#FFFFFF" cx="-2110.7" cy="-99.7" r="3.4"/>
	<g>
		<g>
			<path fill-rule="evenodd" fill="#FFFFFF" d="M-1944.1-17.2c0.4,0.1,0.9,0.2,1.6,0.3c0.7,0.1,1.5,0.1,2.6,0.1c1,0,1.9,0,2.6-0.1
				c0.7-0.1,1.2-0.2,1.6-0.3c0.4-0.1,0.7-0.3,0.9-0.5c0.2-0.2,0.3-0.5,0.3-0.7v-23.4c0.8-1.2,1.5-2.3,2.2-3.1c0.7-0.8,1.3-1.5,2-2
				c0.6-0.5,1.2-0.9,1.8-1.1c0.6-0.2,1.2-0.4,1.8-0.4c0.5,0,1,0,1.4,0.1c0.4,0.1,0.8,0.2,1.2,0.3c0.4,0.1,0.7,0.2,0.9,0.3
				c0.3,0.1,0.5,0.1,0.8,0.1c0.3,0,0.5-0.1,0.7-0.2c0.2-0.1,0.3-0.4,0.4-0.8c0.1-0.4,0.2-0.9,0.3-1.5c0.1-0.6,0.1-1.5,0.1-2.5
				c0-1,0-1.8,0-2.4c0-0.6-0.1-1-0.1-1.3c-0.1-0.3-0.1-0.5-0.2-0.7c-0.1-0.2-0.2-0.3-0.3-0.5c-0.2-0.1-0.4-0.3-0.7-0.4
				c-0.3-0.1-0.7-0.2-1.2-0.3c-0.4-0.1-0.9-0.2-1.3-0.2c-0.4,0-0.8-0.1-1.2-0.1c-0.8,0-1.6,0.1-2.4,0.3c-0.8,0.2-1.6,0.6-2.4,1.1
				c-0.8,0.5-1.6,1.3-2.5,2.2c-0.9,0.9-1.8,2.1-2.8,3.5v-4.7c0-0.3-0.1-0.5-0.2-0.7c-0.1-0.2-0.4-0.4-0.7-0.5
				c-0.3-0.1-0.8-0.2-1.4-0.3c-0.6-0.1-1.3-0.1-2.2-0.1c-0.9,0-1.6,0-2.2,0.1c-0.6,0.1-1,0.2-1.4,0.3c-0.4,0.1-0.6,0.3-0.8,0.5
				c-0.1,0.2-0.2,0.5-0.2,0.7v37.6c0,0.3,0.1,0.5,0.3,0.7C-1944.8-17.6-1944.5-17.4-1944.1-17.2z"/>
			<path fill-rule="evenodd" fill="#FFFFFF" d="M-1888.7-24.8c-0.2-0.3-0.3-0.5-0.6-0.6c-0.2-0.1-0.5-0.2-0.7-0.2h-14.8l14-21.7
				c0.3-0.4,0.5-0.9,0.7-1.3c0.2-0.4,0.4-0.8,0.5-1.2c0.1-0.4,0.2-0.8,0.3-1.2c0.1-0.4,0.1-0.9,0.1-1.5v-2.1c0-0.6,0-1.1-0.1-1.5
				c-0.1-0.4-0.2-0.7-0.4-0.9c-0.2-0.2-0.4-0.4-0.7-0.5c-0.3-0.1-0.6-0.1-1-0.1h-23c-0.3,0-0.6,0.1-0.8,0.2
				c-0.2,0.1-0.4,0.4-0.5,0.7c-0.1,0.3-0.2,0.8-0.3,1.3c-0.1,0.5-0.1,1.2-0.1,2c0,1.5,0.2,2.6,0.5,3.2c0.3,0.7,0.8,1,1.3,1h13.3
				l-14.1,21.7c-0.3,0.5-0.6,0.9-0.8,1.3c-0.2,0.4-0.4,0.8-0.5,1.2c-0.1,0.4-0.2,0.8-0.3,1.2c0,0.4-0.1,0.9-0.1,1.4v1.9
				c0,1.2,0.2,2,0.6,2.5c0.4,0.5,1,0.8,1.7,0.8h24.6c0.3,0,0.5-0.1,0.8-0.2c0.2-0.1,0.4-0.4,0.5-0.7c0.1-0.3,0.3-0.8,0.3-1.4
				c0.1-0.6,0.1-1.3,0.1-2.1c0-0.8,0-1.5-0.1-2.1C-1888.4-24-1888.6-24.5-1888.7-24.8z"/>
			<path fill-rule="evenodd" fill="#FFFFFF" d="M-1848.5-53.1c-1.6-1.8-3.7-3.1-6.1-4c-2.5-0.9-5.4-1.4-8.8-1.4
				c-3.5,0-6.5,0.5-9,1.6c-2.6,1-4.7,2.5-6.4,4.4c-1.7,1.9-3,4.2-3.9,6.8c-0.9,2.7-1.3,5.6-1.3,8.8c0,3.3,0.4,6.3,1.2,8.8
				c0.8,2.6,2,4.8,3.6,6.5c1.6,1.8,3.7,3.1,6.1,4c2.5,0.9,5.4,1.4,8.7,1.4c3.5,0,6.5-0.5,9.1-1.6c2.6-1,4.7-2.5,6.4-4.4
				c1.7-1.9,3-4.2,3.8-6.8c0.8-2.6,1.3-5.6,1.3-8.8c0-3.3-0.4-6.3-1.2-8.9C-1845.7-49.1-1846.9-51.3-1848.5-53.1z M-1855.2-31.9
				c-0.4,1.6-0.9,2.9-1.7,4c-0.8,1.1-1.7,1.9-2.9,2.5c-1.2,0.6-2.6,0.9-4.2,0.9c-1.7,0-3.2-0.3-4.4-0.9c-1.2-0.6-2.1-1.5-2.8-2.7
				c-0.7-1.2-1.2-2.5-1.5-4.1c-0.3-1.6-0.5-3.3-0.5-5.1c0-2,0.2-3.8,0.6-5.3c0.4-1.6,0.9-2.9,1.7-4c0.8-1.1,1.7-2,2.9-2.5
				c1.2-0.6,2.6-0.9,4.1-0.9c1.8,0,3.2,0.3,4.4,1c1.2,0.6,2.1,1.5,2.8,2.7c0.7,1.2,1.2,2.5,1.5,4.1c0.3,1.6,0.4,3.3,0.4,5.1
				C-1854.6-35.3-1854.8-33.5-1855.2-31.9z"/>
			<path fill-rule="evenodd" fill="#FFFFFF" d="M-1800.2-48.7c-0.5-1.9-1.3-3.6-2.3-5.1c-1.1-1.4-2.5-2.6-4.3-3.4
				c-1.8-0.8-3.9-1.3-6.5-1.3c-2.3,0-4.6,0.6-6.7,1.7c-2.1,1.1-4.3,2.8-6.3,5.1v-4.3c0-0.3-0.1-0.5-0.2-0.7
				c-0.1-0.2-0.4-0.4-0.7-0.5c-0.3-0.1-0.8-0.2-1.4-0.3c-0.6-0.1-1.3-0.1-2.2-0.1c-0.9,0-1.6,0-2.2,0.1c-0.6,0.1-1,0.2-1.4,0.3
				c-0.4,0.1-0.6,0.3-0.8,0.5c-0.1,0.2-0.2,0.5-0.2,0.7v37.6c0,0.3,0.1,0.5,0.3,0.7c0.2,0.2,0.5,0.4,0.9,0.5
				c0.4,0.1,0.9,0.2,1.6,0.3c0.7,0.1,1.5,0.1,2.6,0.1c1,0,1.9,0,2.6-0.1c0.7-0.1,1.2-0.2,1.6-0.3c0.4-0.1,0.7-0.3,0.9-0.5
				c0.2-0.2,0.3-0.5,0.3-0.7v-25c1.5-1.9,2.9-3.3,4.3-4.3c1.4-1,2.7-1.5,4.1-1.5c1.1,0,2,0.2,2.8,0.6c0.8,0.4,1.5,1,2,1.7
				s0.9,1.6,1.2,2.7c0.3,1,0.4,2.5,0.4,4.3v21.4c0,0.3,0.1,0.5,0.3,0.7c0.2,0.2,0.4,0.4,0.8,0.5c0.4,0.1,0.9,0.2,1.6,0.3
				c0.7,0.1,1.6,0.1,2.6,0.1c1,0,1.9,0,2.5-0.1c0.7-0.1,1.2-0.2,1.6-0.3c0.4-0.1,0.7-0.3,0.8-0.5c0.2-0.2,0.3-0.5,0.3-0.7v-23.2
				C-1799.4-44.4-1799.7-46.8-1800.2-48.7z"/>
			<path fill-rule="evenodd" fill="#FFFFFF" d="M-1925.7-6.2c-9.8,0-15.4-2.6-17.3-3.6c-4.6-2.6-7.2-5.7-7.9-6.6
				c0,0-0.1-0.1-0.1-0.1c-3.1-3.9-4.7-8.8-4.8-13.8c-0.1-5.8-0.3-11.6-0.4-17.3c-0.1-2.7-1.1-5.2-3-7.1c-0.1-0.1-0.2-0.2-0.3-0.2
				c-0.6-0.6-1.2-1-1.4-1.1c-1.3-0.8-2.5-1.2-3.8-1.6c-2.1-0.6-4.6-0.9-7.6-0.9c-1.7,0-3.3,0.1-4.8,0.4c-1.6,0.3-3,0.6-4.3,1
				c-1.3,0.4-2.5,0.9-3.5,1.4c-1,0.5-1.7,0.9-2.1,1.3c-0.4,0.4-0.7,0.9-0.8,1.4c-0.1,0.5-0.2,1.2-0.2,2.1c0,0.6,0,1.2,0.1,1.8
				c0.1,0.5,0.2,1,0.4,1.3c0.2,0.4,0.4,0.6,0.6,0.8c0.2,0.2,0.5,0.3,0.8,0.3c0.4,0,1-0.2,1.7-0.6c0.7-0.4,1.6-0.8,2.7-1.3
				c1.1-0.5,2.3-0.9,3.7-1.3c1.4-0.4,3-0.6,4.7-0.6c1.3,0,2.5,0.1,3.4,0.4c0.9,0.3,1.6,0.7,2.2,1.3c0.5,0.6,0.9,1.3,1.2,2.2
				c0.2,0.9,0.4,1.9,0.4,3.1v2.3h-3.7c-3.3,0-6.3,0.3-8.8,0.8c-2.5,0.5-4.6,1.3-6.3,2.3c-1.7,1.1-3,2.4-3.8,4
				c-0.9,1.6-1.3,3.5-1.3,5.7c0,2,0.3,3.8,1,5.3c0.7,1.5,1.6,2.8,2.8,3.8c1.2,1,2.7,1.8,4.3,2.3c1.7,0.5,3.5,0.8,5.5,0.8
				c2.4,0,4.6-0.5,6.6-1.4c0.2-0.1,0.7-0.3,1.5-0.8c2-1.2,3.3-2.5,4.1-3.4c0.4,1,1,2.4,1.8,3.9c5.3,9.5,14.2,13.7,17.6,15.1
				c1.6,0.6,9.2,3.6,19.3,2.2c14-1.8,23.8-10.9,23.3-11.8C-1902.6-13.1-1911.7-6.2-1925.7-6.2z M-1966.2-28.1
				c-1.3,1.5-2.6,2.6-3.8,3.3c-1.2,0.8-2.6,1.1-4.1,1.1c-1.8,0-3.2-0.4-4.1-1.3c-1-0.9-1.5-2.1-1.5-3.7c0-0.9,0.2-1.7,0.5-2.5
				c0.4-0.7,0.9-1.3,1.7-1.8c0.8-0.5,1.7-0.9,2.9-1.1c1.2-0.3,2.7-0.4,4.4-0.4h4V-28.1z"/>
		</g>
		<path id="XMLID_1_" fill-rule="evenodd" fill="#FFFFFF" d="M-1901.6-13.1c-0.7-0.8-4.3,0-6,0.4c-0.5,0.1-0.6-0.3-0.2-0.7
			c2.7-2.3,7.5-2.2,8.2-1.6c0.6,0.6,0.4,5.5-2.1,8c-0.4,0.4-0.8,0.2-0.7-0.2C-1902-8.7-1900.9-12.3-1901.6-13.1"/>
	</g>
</g>
<g>
	<path fill="#15A6B1" d="M-1304.3-97.7v0.2C-1304.3-97.5-1304.3-97.6-1304.3-97.7L-1304.3-97.7z"/>
	<path fill="#15A6B1" d="M-1408.3-13.5c-46.2,0-83.8-37.6-83.8-83.8c0-20.6,7.5-39.6,19.9-54.2c-0.5-0.3-1-0.7-1.3-1.2
		c-12.7,14.9-20.4,34.3-20.4,55.4c0,47.2,38.4,85.6,85.6,85.6c10,0,19.7-1.7,29-5.1v-1.9C-1388.6-15.3-1398.4-13.5-1408.3-13.5z"/>
	<path fill="#15A6B1" d="M-1350-159.9c-15.9-14.8-36.6-23-58.3-23c-21.1,0-40.4,7.7-55.4,20.4c0.1,0.1,0.2,0.3,0.3,0.4
		c0,0,0,0,0.1,0.1c0.3,0.3,0.6,0.6,0.8,0.9c14.6-12.5,33.6-20,54.2-20c39.9,0,74,28.5,82,66.6c0.5-0.3,1.1-0.5,1.7-0.4
		C-1328.2-132.1-1337-147.7-1350-159.9z"/>
	<path fill="#15A6B1" d="M-1333.7-103c-1.1-0.3-2.2-0.5-3.3-0.7c-0.5-0.1-1-0.1-1.5-0.2h-2h-2.2l-29.6,0.1v13.6l7.2,0
		c0.3,0,0.4,0.3,0.3,0.5c-2.2,4-3.5,8.5-3.5,13.4c0,0.1,0,0.1,0,0.2v42.7v16.8v16.1l16.3-9.3l0.4-22.2l0.3-16.2l0-0.6
		c0-0.7,0.7-1.3,1.4-1.1c0,0,0.1,0,0.1,0c2.5,0.9,5.2,1.4,8.1,1.6c0.4,0,0.8,0,1.2,0c15.4,0,27.8-12.4,27.8-27.8
		C-1312.9-89-1321.7-99.9-1333.7-103z M-1337.3-63.1c-1.3,0.4-2.7,0.6-4.2,0.6c-0.2,0-0.3,0-0.5,0c-5.4-0.2-10-3.5-12.1-8.1
		c-0.6-1.4-1-2.9-1.2-4.5c0-0.4-0.1-0.8-0.1-1.2c0-7.6,6.2-13.8,13.8-13.8c0,0,0,0,0,0s0,0,0,0c1.6,0,3.2,0.3,4.7,0.8
		c0.9,0.3,1.8,0.8,2.7,1.3c3.9,2.5,6.4,6.8,6.4,11.7C-1327.6-70.1-1331.7-64.9-1337.3-63.1z"/>
	<path fill="#15A6B1" d="M-1341.3-86.3c-5.6,0-10,4.5-10,10c0,5.6,4.5,10,10,10c5.6,0,10-4.5,10-10
		C-1331.3-81.8-1335.8-86.3-1341.3-86.3z M-1341.3-67.8c-4.6,0-8.4-3.7-8.4-8.4c0-4.6,3.7-8.4,8.4-8.4c4.6,0,8.4,3.7,8.4,8.4
		C-1333-71.6-1336.7-67.8-1341.3-67.8z"/>
	<text transform="matrix(1 0 0 1 -1190.5217 -35.5208)" fill="#15A6B1" font-family="'Calibri-Bold'" font-size="18.8236px">smile everybody</text>
	<path fill="#15A6B1" d="M-1371.2-76.3c0-3.8,0.8-7.6,2.2-11.1l-3.4,0v6c0,6.6-1.6,12.5-4.7,17.6c-3.1,5.2-7.5,9.2-12.9,12.1
		c-5.5,2.9-11.6,4.3-18.5,4.3c-6.8,0-12.9-1.4-18.4-4.3c-5.5-2.9-9.8-6.9-12.8-12.1c-3.1-5.2-4.6-11.1-4.6-17.6V-122
		c0-0.6,0.2-1.1,0.6-1.4c0.6-0.6,1.3-0.6,1.4-0.6c0.1,0,7.3,0,7.4,0c0.1,0,9.4,0,9.6,0v42c0,5.7,1.5,10.1,4.5,13.3
		c3,3.1,7.1,4.7,12.3,4.7s9.4-1.6,12.4-4.7c3-3.1,4.6-7.6,4.6-13.3v-42h17.2c1.1,0,2,0.9,2,2v15.7l29.6-0.1h4.4l0.1,0
		c0.6,0,1.1,0.1,1.7,0.2c1.2,0.2,2.4,0.4,3.5,0.7c-4.2-37.9-36.3-67.4-75.3-67.4c-43,0-77.7,35.8-75.7,79.3
		c1.8,38.9,33.4,70.5,72.3,72.2c14.8,0.7,28.7-3,40.6-9.7v-44.9L-1371.2-76.3z M-1382.3-144.8c4.1,0,7.5,3.3,7.5,7.5
		c0,4.1-3.3,7.5-7.5,7.5s-7.5-3.3-7.5-7.5C-1389.8-141.5-1386.4-144.8-1382.3-144.8z M-1434.2-144.8c4.1,0,7.5,3.3,7.5,7.5
		c0,4.1-3.3,7.5-7.5,7.5s-7.5-3.3-7.5-7.5C-1441.7-141.5-1438.3-144.8-1434.2-144.8z"/>
	<circle fill="#15A6B1" cx="-1468.4" cy="-157" r="4.5"/>
	<g>
		<g>
			<path fill-rule="evenodd" fill="#15A6B1" d="M-1252.4-50.1c0.5,0.2,1.2,0.3,2.1,0.4c0.9,0.1,2,0.1,3.3,0.1c1.3,0,2.5,0,3.3-0.1
				c0.9-0.1,1.6-0.2,2.1-0.4c0.5-0.2,0.9-0.4,1.1-0.7c0.2-0.3,0.3-0.6,0.3-1v-30.4c1-1.6,2-2.9,2.9-4c0.9-1.1,1.7-2,2.6-2.6
				c0.8-0.7,1.6-1.1,2.4-1.4c0.8-0.3,1.5-0.5,2.3-0.5c0.7,0,1.3,0.1,1.8,0.2c0.5,0.1,1,0.3,1.5,0.4c0.5,0.1,0.9,0.3,1.2,0.4
				c0.4,0.1,0.7,0.2,1,0.2c0.4,0,0.7-0.1,0.9-0.3c0.2-0.2,0.4-0.5,0.6-1c0.1-0.5,0.3-1.1,0.3-2c0.1-0.8,0.1-1.9,0.1-3.2
				c0-1.3,0-2.3-0.1-3.1c0-0.8-0.1-1.3-0.2-1.7c-0.1-0.4-0.2-0.7-0.2-0.9c-0.1-0.2-0.2-0.4-0.4-0.6c-0.2-0.2-0.5-0.4-1-0.5
				c-0.4-0.2-0.9-0.3-1.5-0.4c-0.6-0.1-1.1-0.2-1.7-0.3c-0.5-0.1-1.1-0.1-1.5-0.1c-1,0-2,0.1-3.1,0.4c-1,0.3-2,0.8-3.1,1.4
				c-1,0.7-2.1,1.6-3.2,2.8c-1.1,1.2-2.3,2.7-3.6,4.5v-6.1c0-0.4-0.1-0.7-0.3-1c-0.2-0.3-0.5-0.5-0.9-0.7c-0.4-0.2-1-0.3-1.8-0.4
				c-0.8-0.1-1.7-0.1-2.9-0.1c-1.1,0-2.1,0-2.8,0.1c-0.7,0.1-1.4,0.2-1.8,0.4c-0.5,0.2-0.8,0.4-1,0.7c-0.2,0.3-0.3,0.6-0.3,1v48.7
				c0,0.4,0.1,0.7,0.3,1C-1253.3-50.6-1253-50.3-1252.4-50.1z"/>
			<path fill-rule="evenodd" fill="#15A6B1" d="M-1180.7-59.9c-0.2-0.4-0.4-0.7-0.7-0.8c-0.3-0.1-0.6-0.2-0.9-0.2h-19.2l18.1-28.1
				c0.4-0.6,0.7-1.1,1-1.6c0.3-0.5,0.5-1,0.6-1.5c0.1-0.5,0.3-1,0.3-1.6c0.1-0.6,0.1-1.2,0.1-1.9v-2.7c0-0.8-0.1-1.4-0.2-1.9
				c-0.1-0.5-0.3-0.9-0.5-1.2c-0.2-0.3-0.5-0.5-0.9-0.6c-0.4-0.1-0.8-0.2-1.3-0.2h-29.8c-0.4,0-0.7,0.1-1,0.3
				c-0.3,0.2-0.5,0.5-0.7,0.9c-0.2,0.4-0.3,1-0.4,1.7c-0.1,0.7-0.1,1.6-0.1,2.6c0,1.9,0.2,3.3,0.6,4.2c0.4,0.9,1,1.3,1.7,1.3h17.3
				l-18.2,28.2c-0.4,0.6-0.8,1.2-1.1,1.7c-0.3,0.5-0.5,1-0.7,1.5c-0.2,0.5-0.3,1-0.3,1.5c-0.1,0.5-0.1,1.1-0.1,1.8v2.5
				c0,1.5,0.3,2.6,0.8,3.2s1.3,1,2.3,1h31.8c0.4,0,0.7-0.1,1-0.2c0.3-0.2,0.5-0.5,0.7-0.9c0.2-0.4,0.3-1,0.4-1.8
				c0.1-0.7,0.2-1.6,0.2-2.7c0-1.1-0.1-2-0.2-2.7C-1180.3-59-1180.5-59.5-1180.7-59.9z"/>
			<path fill-rule="evenodd" fill="#15A6B1" d="M-1128.6-96.6c-2.1-2.3-4.7-4-7.9-5.2c-3.2-1.2-7-1.8-11.4-1.8
				c-4.5,0-8.4,0.7-11.7,2c-3.3,1.3-6.1,3.2-8.3,5.7c-2.2,2.5-3.9,5.4-5,8.8c-1.1,3.4-1.7,7.2-1.7,11.4c0,4.3,0.5,8.1,1.5,11.5
				c1,3.3,2.6,6.2,4.7,8.5c2.1,2.3,4.8,4,8,5.2c3.2,1.2,7,1.8,11.3,1.8c4.5,0,8.4-0.7,11.7-2c3.3-1.3,6.1-3.3,8.4-5.7
				c2.2-2.5,3.9-5.4,5-8.8c1.1-3.4,1.6-7.2,1.6-11.4c0-4.3-0.5-8.2-1.5-11.5C-1124.9-91.5-1126.5-94.3-1128.6-96.6z M-1137.2-69.2
				c-0.5,2-1.2,3.7-2.2,5.2c-1,1.4-2.2,2.5-3.8,3.2c-1.5,0.7-3.3,1.1-5.4,1.1c-2.3,0-4.1-0.4-5.7-1.2c-1.5-0.8-2.7-2-3.6-3.5
				c-0.9-1.5-1.5-3.2-1.9-5.3c-0.4-2-0.6-4.2-0.6-6.6c0-2.6,0.2-4.9,0.7-6.9c0.5-2,1.2-3.7,2.2-5.2c1-1.4,2.2-2.5,3.8-3.3
				c1.5-0.7,3.3-1.1,5.4-1.1c2.3,0,4.2,0.4,5.7,1.3c1.5,0.8,2.7,2,3.6,3.5c0.9,1.5,1.6,3.2,1.9,5.3c0.4,2,0.6,4.2,0.6,6.6
				C-1136.5-73.5-1136.7-71.2-1137.2-69.2z"/>
			<path fill-rule="evenodd" fill="#15A6B1" d="M-1065.9-90.9c-0.6-2.5-1.6-4.7-3-6.6c-1.4-1.9-3.2-3.4-5.5-4.4
				c-2.3-1.1-5.1-1.6-8.4-1.6c-3,0-5.9,0.7-8.7,2.2c-2.8,1.5-5.5,3.6-8.2,6.6v-5.6c0-0.4-0.1-0.7-0.3-1c-0.2-0.3-0.5-0.5-0.9-0.7
				c-0.4-0.2-1-0.3-1.8-0.4c-0.8-0.1-1.7-0.1-2.9-0.1c-1.1,0-2.1,0-2.8,0.1c-0.7,0.1-1.4,0.2-1.8,0.4c-0.5,0.2-0.8,0.4-1,0.7
				c-0.2,0.3-0.3,0.6-0.3,1v48.7c0,0.4,0.1,0.7,0.3,1c0.2,0.3,0.6,0.5,1.1,0.7c0.5,0.2,1.2,0.3,2.1,0.4c0.9,0.1,2,0.1,3.3,0.1
				c1.3,0,2.5,0,3.3-0.1c0.9-0.1,1.6-0.2,2.1-0.4c0.5-0.2,0.9-0.4,1.1-0.7c0.2-0.3,0.3-0.6,0.3-1v-32.4c1.9-2.4,3.8-4.3,5.6-5.6
				c1.8-1.3,3.5-1.9,5.3-1.9c1.4,0,2.6,0.3,3.6,0.8c1,0.5,1.9,1.3,2.5,2.2c0.7,1,1.2,2.1,1.5,3.5c0.3,1.3,0.5,3.2,0.5,5.6v27.8
				c0,0.4,0.1,0.7,0.3,1c0.2,0.3,0.6,0.5,1.1,0.7c0.5,0.2,1.2,0.3,2.1,0.4c0.9,0.1,2,0.1,3.4,0.1c1.3,0,2.4,0,3.3-0.1
				c0.9-0.1,1.6-0.2,2.1-0.4c0.5-0.2,0.9-0.4,1.1-0.7c0.2-0.3,0.3-0.6,0.3-1v-30.1C-1065-85.4-1065.3-88.4-1065.9-90.9z"/>
			<path fill-rule="evenodd" fill="#15A6B1" d="M-1228.7-35.8c-12.8,0-20-3.3-22.5-4.7c-5.9-3.3-9.3-7.4-10.2-8.6
				c0,0-0.1-0.1-0.1-0.1c-4-5.1-6.1-11.4-6.3-17.8c-0.2-7.5-0.4-15-0.6-22.5c-0.1-3.5-1.5-6.8-3.9-9.2c-0.1-0.1-0.2-0.2-0.3-0.3
				c-0.8-0.7-1.6-1.2-1.8-1.4c-1.6-1.1-3.3-1.6-4.9-2.1c-2.7-0.7-6-1.1-9.8-1.1c-2.1,0-4.2,0.2-6.3,0.5c-2,0.3-3.9,0.8-5.6,1.3
				c-1.7,0.5-3.2,1.1-4.5,1.8c-1.3,0.6-2.2,1.2-2.7,1.7c-0.5,0.5-0.9,1.1-1,1.8c-0.2,0.7-0.3,1.5-0.3,2.7c0,0.8,0.1,1.6,0.2,2.3
				c0.1,0.7,0.3,1.3,0.5,1.7c0.2,0.5,0.5,0.8,0.8,1.1c0.3,0.3,0.7,0.4,1.1,0.4c0.6,0,1.3-0.3,2.3-0.8c0.9-0.5,2.1-1.1,3.5-1.7
				c1.4-0.6,3-1.2,4.8-1.7c1.8-0.5,3.8-0.8,6.1-0.8c1.7,0,3.2,0.2,4.4,0.5c1.2,0.4,2.1,0.9,2.8,1.7c0.7,0.8,1.2,1.7,1.5,2.9
				c0.3,1.1,0.5,2.5,0.5,4v2.9h-4.7c-4.3,0-8.1,0.3-11.4,1c-3.3,0.7-6,1.7-8.2,3c-2.2,1.4-3.9,3.1-5,5.2c-1.1,2.1-1.7,4.6-1.7,7.4
				c0,2.6,0.4,4.9,1.3,6.9c0.9,2,2.1,3.6,3.7,4.9c1.6,1.3,3.5,2.3,5.6,3c2.2,0.7,4.5,1,7.1,1c3.1,0,6-0.6,8.5-1.8
				c0.2-0.1,0.9-0.4,1.9-1c2.5-1.5,4.3-3.2,5.4-4.4c0.5,1.3,1.2,3,2.4,5.1c6.8,12.3,18.5,17.8,22.9,19.6c2.1,0.8,12,4.6,25,2.9
				c18.1-2.4,30.9-14.1,30.2-15.3C-1198.7-44.7-1210.4-35.8-1228.7-35.8z M-1281.1-64.2c-1.7,1.9-3.3,3.3-4.9,4.3
				c-1.6,1-3.4,1.5-5.3,1.5c-2.3,0-4.1-0.6-5.4-1.7c-1.3-1.2-1.9-2.8-1.9-4.8c0-1.2,0.2-2.3,0.7-3.2c0.5-0.9,1.2-1.7,2.2-2.4
				c1-0.7,2.3-1.1,3.8-1.5c1.6-0.3,3.5-0.5,5.7-0.5h5.2V-64.2z"/>
		</g>
		<path id="XMLID_57_" fill-rule="evenodd" fill="#15A6B1" d="M-1197.5-44.7c-0.9-1-5.6,0-7.7,0.5c-0.6,0.1-0.8-0.4-0.2-0.9
			c3.5-3,9.8-2.8,10.6-2c0.8,0.8,0.5,7.1-2.8,10.4c-0.5,0.5-1,0.3-0.9-0.3C-1197.9-39.1-1196.5-43.7-1197.5-44.7"/>
	</g>
</g>
<g>
	<path fill="#15A6B1" d="M-1295.7,212.7v0.2C-1295.7,212.8-1295.7,212.8-1295.7,212.7L-1295.7,212.7z"/>
	<path fill="#15A6B1" d="M-1392.7,291.2c-43.1,0-78.1-35-78.1-78.1c0-19.3,7-36.9,18.6-50.5c-0.5-0.3-0.9-0.7-1.2-1.1
		c-11.9,13.9-19,32-19,51.7c0,44,35.8,79.8,79.8,79.8c9.3,0,18.4-1.6,27-4.7v-1.8C-1374.3,289.5-1383.4,291.2-1392.7,291.2z"/>
	<path fill="#15A6B1" d="M-1338.3,154.7c-14.8-13.8-34.1-21.4-54.4-21.4c-19.7,0-37.7,7.2-51.6,19c0.1,0.1,0.2,0.2,0.3,0.4
		c0,0,0,0,0.1,0.1c0.3,0.2,0.5,0.5,0.7,0.9c13.6-11.6,31.3-18.7,50.6-18.7c37.2,0,69,26.6,76.4,62.1c0.5-0.3,1.1-0.4,1.6-0.4
		C-1318,180.6-1326.2,166-1338.3,154.7z"/>
	<path fill="#15A6B1" d="M-1323.1,207.7c-1-0.3-2.1-0.5-3.1-0.6c-0.5-0.1-1-0.1-1.4-0.1h-1.9h-2.1l-27.6,0.1v12.7l6.7,0
		c0.2,0,0.4,0.3,0.3,0.5c-2.1,3.7-3.3,7.9-3.3,12.5c0,0.1,0,0.1,0,0.2v39.8v15.6v15l15.2-8.7l0.4-20.7l0.2-15.1l0-0.6
		c0-0.7,0.7-1.2,1.3-1c0,0,0.1,0,0.1,0c2.4,0.8,4.9,1.3,7.5,1.4c0.4,0,0.7,0,1.1,0c14.3,0,25.9-11.6,25.9-25.9
		C-1303.7,220.8-1311.9,210.6-1323.1,207.7z M-1326.4,244.9c-1.2,0.4-2.5,0.6-3.9,0.6c-0.2,0-0.3,0-0.5,0c-5-0.2-9.3-3.2-11.3-7.6
		c-0.6-1.3-1-2.7-1.1-4.2c0-0.4-0.1-0.8-0.1-1.2c0-7.1,5.8-12.9,12.9-12.9c0,0,0,0,0,0s0,0,0,0c1.5,0,3,0.3,4.4,0.8
		c0.9,0.3,1.7,0.7,2.5,1.2c3.6,2.3,6,6.3,6,10.9C-1317.4,238.4-1321.2,243.3-1326.4,244.9z"/>
	<path fill="#15A6B1" d="M-1330.2,223.3c-5.2,0-9.4,4.2-9.4,9.4c0,5.2,4.2,9.4,9.4,9.4s9.4-4.2,9.4-9.4
		C-1320.9,227.5-1325.1,223.3-1330.2,223.3z M-1330.2,240.5c-4.3,0-7.8-3.5-7.8-7.8c0-4.3,3.5-7.8,7.8-7.8s7.8,3.5,7.8,7.8
		C-1322.4,237-1325.9,240.5-1330.2,240.5z"/>
	<path fill="#606161" d="M-1358.1,232.6c0-3.5,0.7-7.1,2-10.3l-3.2,0v5.6c0,6.1-1.5,11.6-4.4,16.4c-2.9,4.8-7,8.6-12,11.2
		c-5.1,2.7-10.9,4-17.3,4c-6.3,0-12-1.3-17.1-4c-5.1-2.7-9.1-6.4-12-11.2c-2.9-4.8-4.3-10.3-4.3-16.4V190c0-0.5,0.2-1,0.6-1.3
		c0.5-0.5,1.2-0.6,1.3-0.6c0.1,0,6.8,0,6.9,0c0.1,0,8.8,0,8.9,0v39.2c0,5.3,1.4,9.5,4.2,12.4c2.8,2.9,6.6,4.4,11.5,4.4
		c4.9,0,8.7-1.5,11.6-4.4c2.8-2.9,4.3-7.1,4.3-12.4v-39.2h16c1,0,1.8,0.8,1.8,1.8v14.6l27.6-0.1h4.1l0.1,0c0.5,0,1.1,0.1,1.6,0.2
		c1.1,0.1,2.2,0.4,3.3,0.6c-3.9-35.3-33.8-62.9-70.2-62.9c-40.1,0-72.4,33.4-70.6,73.9c1.6,36.3,31.1,65.7,67.4,67.3
		c13.8,0.6,26.7-2.8,37.8-9v-41.9L-1358.1,232.6z M-1368.4,168.7c3.8,0,7,3.1,7,7c0,3.8-3.1,7-7,7c-3.8,0-7-3.1-7-7
		C-1375.4,171.8-1372.3,168.7-1368.4,168.7z M-1416.8,168.7c3.8,0,7,3.1,7,7c0,3.8-3.1,7-7,7s-7-3.1-7-7
		C-1423.8,171.8-1420.7,168.7-1416.8,168.7z"/>
	<linearGradient id="SVGID_1_" gradientUnits="userSpaceOnUse" x1="-1452.856" y1="157.3744" x2="-1444.5518" y2="157.3744">
		<stop  offset="0" style="stop-color:#EA897A"/>
		<stop  offset="1" style="stop-color:#CD6632"/>
	</linearGradient>
	<circle fill="url(#SVGID_1_)" cx="-1448.7" cy="157.4" r="4.2"/>
	<g>
		<g>
			<path fill-rule="evenodd" fill="#15A6B1" d="M-1247.3,257c0.5,0.2,1.1,0.3,2,0.4c0.8,0.1,1.8,0.1,3.1,0.1c1.3,0,2.3,0,3.1-0.1
				c0.8-0.1,1.5-0.2,2-0.4c0.5-0.2,0.8-0.4,1-0.6c0.2-0.3,0.3-0.6,0.3-0.9v-28.3c0.9-1.5,1.8-2.7,2.7-3.8c0.8-1,1.6-1.8,2.4-2.4
				c0.8-0.6,1.5-1.1,2.2-1.3c0.7-0.3,1.4-0.4,2.1-0.4c0.6,0,1.2,0.1,1.7,0.2c0.5,0.1,1,0.2,1.4,0.4c0.4,0.1,0.8,0.3,1.1,0.4
				c0.3,0.1,0.6,0.2,0.9,0.2c0.3,0,0.6-0.1,0.8-0.3c0.2-0.2,0.4-0.5,0.5-0.9c0.1-0.4,0.2-1.1,0.3-1.8c0.1-0.8,0.1-1.8,0.1-3
				c0-1.2,0-2.2-0.1-2.9c0-0.7-0.1-1.2-0.2-1.6c-0.1-0.4-0.1-0.6-0.2-0.8c-0.1-0.2-0.2-0.4-0.4-0.6c-0.2-0.2-0.5-0.3-0.9-0.5
				c-0.4-0.2-0.9-0.3-1.4-0.4c-0.5-0.1-1.1-0.2-1.6-0.3c-0.5-0.1-1-0.1-1.4-0.1c-1,0-1.9,0.1-2.9,0.4c-1,0.3-1.9,0.7-2.9,1.3
				c-1,0.6-2,1.5-3,2.6c-1.1,1.1-2.2,2.5-3.4,4.2v-5.7c0-0.3-0.1-0.6-0.3-0.9c-0.2-0.3-0.5-0.5-0.8-0.6c-0.4-0.2-0.9-0.3-1.7-0.4
				c-0.7-0.1-1.6-0.1-2.7-0.1c-1.1,0-1.9,0-2.6,0.1c-0.7,0.1-1.3,0.2-1.7,0.4c-0.4,0.2-0.7,0.4-0.9,0.6c-0.2,0.3-0.3,0.6-0.3,0.9
				v45.4c0,0.3,0.1,0.6,0.3,0.9C-1248.2,256.6-1247.8,256.8-1247.3,257z"/>
			<path fill-rule="evenodd" fill="#15A6B1" d="M-1180.4,247.9c-0.2-0.4-0.4-0.6-0.7-0.8c-0.3-0.1-0.6-0.2-0.9-0.2h-17.9l16.9-26.2
				c0.3-0.5,0.6-1.1,0.9-1.5c0.3-0.5,0.4-0.9,0.6-1.4c0.1-0.5,0.2-1,0.3-1.5c0.1-0.5,0.1-1.1,0.1-1.8V212c0-0.7-0.1-1.3-0.2-1.8
				c-0.1-0.5-0.3-0.8-0.5-1.1c-0.2-0.3-0.5-0.5-0.8-0.6c-0.3-0.1-0.7-0.2-1.2-0.2h-27.7c-0.4,0-0.7,0.1-1,0.3
				c-0.3,0.2-0.5,0.5-0.7,0.8c-0.2,0.4-0.3,0.9-0.4,1.6c-0.1,0.7-0.1,1.5-0.1,2.5c0,1.8,0.2,3.1,0.6,3.9c0.4,0.8,0.9,1.2,1.6,1.2
				h16.1l-17,26.3c-0.4,0.6-0.7,1.1-1,1.6c-0.3,0.5-0.5,0.9-0.6,1.4c-0.2,0.5-0.3,0.9-0.3,1.4c-0.1,0.5-0.1,1-0.1,1.7v2.3
				c0,1.4,0.2,2.4,0.7,3s1.2,0.9,2.1,0.9h29.7c0.3,0,0.6-0.1,0.9-0.2c0.3-0.2,0.5-0.4,0.7-0.8c0.2-0.4,0.3-1,0.4-1.7
				c0.1-0.7,0.2-1.5,0.2-2.5c0-1-0.1-1.9-0.2-2.5C-1180.1,248.8-1180.3,248.3-1180.4,247.9z"/>
			<path fill-rule="evenodd" fill="#15A6B1" d="M-1131.8,213.7c-2-2.1-4.4-3.8-7.4-4.9c-3-1.1-6.5-1.7-10.6-1.7
				c-4.2,0-7.8,0.6-10.9,1.9c-3.1,1.3-5.7,3-7.8,5.3c-2.1,2.3-3.6,5-4.7,8.2c-1,3.2-1.6,6.7-1.6,10.6c0,4,0.5,7.6,1.4,10.7
				c1,3.1,2.4,5.8,4.4,7.9c2,2.1,4.4,3.8,7.4,4.9c3,1.1,6.5,1.7,10.5,1.7c4.2,0,7.8-0.6,10.9-1.9c3.1-1.3,5.7-3,7.8-5.3
				c2.1-2.3,3.6-5.1,4.6-8.2c1-3.2,1.5-6.7,1.5-10.6c0-4-0.5-7.6-1.4-10.7C-1128.4,218.5-1129.9,215.8-1131.8,213.7z M-1139.9,239.3
				c-0.4,1.9-1.1,3.5-2,4.8c-0.9,1.3-2.1,2.3-3.5,3c-1.4,0.7-3.1,1-5,1c-2.1,0-3.9-0.4-5.3-1.1c-1.4-0.8-2.6-1.8-3.4-3.2
				c-0.8-1.4-1.4-3-1.8-4.9c-0.4-1.9-0.6-3.9-0.6-6.2c0-2.4,0.2-4.6,0.7-6.4c0.5-1.9,1.1-3.5,2.1-4.8c0.9-1.3,2.1-2.4,3.5-3.1
				c1.4-0.7,3.1-1,5-1c2.1,0,3.9,0.4,5.3,1.2c1.4,0.8,2.5,1.9,3.4,3.3c0.8,1.4,1.5,3,1.8,4.9c0.4,1.9,0.5,3.9,0.5,6.2
				C-1139.2,235.2-1139.4,237.4-1139.9,239.3z"/>
			<path fill-rule="evenodd" fill="#15A6B1" d="M-1073.4,219c-0.6-2.3-1.5-4.4-2.8-6.1c-1.3-1.7-3-3.1-5.1-4.1
				c-2.1-1-4.7-1.5-7.8-1.5c-2.8,0-5.5,0.7-8.1,2c-2.6,1.4-5.2,3.4-7.7,6.1v-5.2c0-0.3-0.1-0.6-0.3-0.9c-0.2-0.3-0.5-0.5-0.8-0.6
				c-0.4-0.2-0.9-0.3-1.7-0.4c-0.7-0.1-1.6-0.1-2.7-0.1c-1.1,0-1.9,0-2.6,0.1c-0.7,0.1-1.3,0.2-1.7,0.4c-0.4,0.2-0.7,0.4-0.9,0.6
				c-0.2,0.3-0.3,0.6-0.3,0.9v45.4c0,0.3,0.1,0.6,0.3,0.9c0.2,0.3,0.6,0.5,1,0.6c0.5,0.2,1.1,0.3,2,0.4c0.8,0.1,1.8,0.1,3.1,0.1
				c1.3,0,2.3,0,3.1-0.1c0.8-0.1,1.5-0.2,2-0.4c0.5-0.2,0.8-0.4,1-0.6c0.2-0.3,0.3-0.6,0.3-0.9v-30.2c1.8-2.3,3.5-4,5.2-5.2
				c1.7-1.2,3.3-1.8,4.9-1.8c1.3,0,2.4,0.2,3.4,0.7c1,0.5,1.8,1.2,2.4,2.1c0.6,0.9,1.1,2,1.4,3.2c0.3,1.3,0.5,3,0.5,5.2v25.9
				c0,0.3,0.1,0.6,0.3,0.9c0.2,0.3,0.5,0.5,1,0.6c0.5,0.2,1.1,0.3,2,0.4c0.8,0.1,1.9,0.1,3.1,0.1c1.2,0,2.2,0,3.1-0.1
				c0.8-0.1,1.5-0.2,2-0.4c0.5-0.2,0.8-0.4,1-0.6c0.2-0.3,0.3-0.6,0.3-0.9v-28.1C-1072.5,224.1-1072.8,221.3-1073.4,219z"/>
			<path fill-rule="evenodd" fill="#15A6B1" d="M-1225.2,270.4c-11.9,0-18.6-3.1-20.9-4.4c-5.5-3.1-8.7-6.9-9.5-8
				c0,0-0.1-0.1-0.1-0.1c-3.7-4.7-5.7-10.6-5.9-16.6c-0.2-7-0.4-14-0.5-21c-0.1-3.2-1.4-6.3-3.7-8.6c-0.1-0.1-0.2-0.2-0.3-0.3
				c-0.8-0.7-1.5-1.2-1.7-1.3c-1.5-1-3.1-1.5-4.6-1.9c-2.5-0.7-5.6-1-9.1-1c-2,0-3.9,0.2-5.8,0.5c-1.9,0.3-3.6,0.7-5.2,1.2
				c-1.6,0.5-3,1.1-4.2,1.7c-1.2,0.6-2,1.1-2.5,1.6c-0.5,0.5-0.8,1-1,1.7c-0.2,0.6-0.3,1.4-0.3,2.5c0,0.8,0.1,1.5,0.2,2.1
				c0.1,0.6,0.2,1.2,0.4,1.6c0.2,0.4,0.4,0.8,0.7,1c0.3,0.2,0.6,0.4,1,0.4c0.5,0,1.2-0.2,2.1-0.7c0.9-0.5,1.9-1,3.2-1.6
				c1.3-0.6,2.8-1.1,4.5-1.6c1.7-0.5,3.6-0.7,5.7-0.7c1.6,0,3,0.2,4.1,0.5c1.1,0.3,2,0.9,2.6,1.6c0.7,0.7,1.1,1.6,1.4,2.7
				c0.3,1.1,0.4,2.3,0.4,3.7v2.7h-4.4c-4,0-7.6,0.3-10.6,0.9c-3.1,0.6-5.6,1.6-7.7,2.8c-2.1,1.3-3.6,2.9-4.6,4.8
				c-1,2-1.6,4.3-1.6,6.9c0,2.4,0.4,4.6,1.2,6.4c0.8,1.8,2,3.4,3.4,4.6c1.5,1.2,3.2,2.2,5.2,2.8c2,0.6,4.2,0.9,6.6,0.9
				c2.9,0,5.6-0.6,8-1.7c0.2-0.1,0.9-0.4,1.8-0.9c2.4-1.4,4-3,5-4.1c0.4,1.2,1.2,2.8,2.2,4.7c6.4,11.5,17.2,16.6,21.3,18.2
				c1.9,0.8,11.1,4.3,23.3,2.7c16.9-2.2,28.8-13.1,28.2-14.2C-1197.2,262.1-1208.2,270.4-1225.2,270.4z M-1274,243.9
				c-1.6,1.8-3.1,3.1-4.6,4c-1.5,0.9-3.2,1.4-5,1.4c-2.1,0-3.8-0.5-5-1.6c-1.2-1.1-1.8-2.6-1.8-4.5c0-1.1,0.2-2.1,0.6-3
				c0.4-0.9,1.1-1.6,2-2.2c0.9-0.6,2.1-1.1,3.6-1.4c1.5-0.3,3.2-0.5,5.3-0.5h4.9V243.9z"/>
		</g>
		<path id="XMLID_5_" fill-rule="evenodd" fill="#15A6B1" d="M-1196.1,262.1c-0.9-0.9-5.2,0-7.2,0.4c-0.6,0.1-0.7-0.4-0.2-0.8
			c3.3-2.8,9.1-2.6,9.9-1.9c0.8,0.8,0.5,6.6-2.6,9.7c-0.5,0.5-1,0.3-0.8-0.3C-1196.4,267.3-1195.2,263-1196.1,262.1"/>
	</g>
	<g>
		<path fill="#15A6B1" d="M-1184.6,269.7c0,0.4-0.1,0.8-0.2,1.1c-0.1,0.3-0.4,0.6-0.6,0.8c-0.3,0.2-0.6,0.4-1,0.5
			c-0.4,0.1-0.8,0.2-1.2,0.2c-0.3,0-0.5,0-0.8-0.1c-0.3,0-0.5-0.1-0.7-0.2c-0.2-0.1-0.4-0.1-0.5-0.2c-0.1-0.1-0.2-0.1-0.3-0.2
			c-0.1-0.1-0.1-0.1-0.1-0.2c0-0.1,0-0.2,0-0.4c0-0.1,0-0.2,0-0.3c0-0.1,0-0.1,0-0.2c0,0,0-0.1,0.1-0.1c0,0,0.1,0,0.1,0
			c0.1,0,0.2,0,0.3,0.1c0.1,0.1,0.3,0.2,0.5,0.3c0.2,0.1,0.4,0.2,0.6,0.3c0.2,0.1,0.5,0.1,0.9,0.1c0.2,0,0.5,0,0.7-0.1
			c0.2-0.1,0.4-0.1,0.5-0.2c0.1-0.1,0.3-0.2,0.3-0.4c0.1-0.2,0.1-0.3,0.1-0.6c0-0.2-0.1-0.4-0.2-0.6c-0.1-0.2-0.3-0.3-0.4-0.4
			c-0.2-0.1-0.4-0.2-0.6-0.3c-0.2-0.1-0.5-0.2-0.7-0.3c-0.2-0.1-0.5-0.2-0.7-0.3c-0.2-0.1-0.4-0.3-0.6-0.5c-0.2-0.2-0.3-0.4-0.4-0.6
			c-0.1-0.2-0.2-0.5-0.2-0.9c0-0.3,0.1-0.6,0.2-0.9c0.1-0.3,0.3-0.5,0.5-0.7c0.2-0.2,0.5-0.4,0.9-0.5c0.4-0.1,0.8-0.2,1.2-0.2
			c0.2,0,0.4,0,0.6,0.1c0.2,0,0.4,0.1,0.6,0.1c0.2,0.1,0.3,0.1,0.4,0.2c0.1,0.1,0.2,0.1,0.3,0.2c0.1,0,0.1,0.1,0.1,0.1
			c0,0,0,0.1,0,0.1c0,0,0,0.1,0,0.2c0,0.1,0,0.1,0,0.2c0,0.1,0,0.2,0,0.3c0,0.1,0,0.1,0,0.2c0,0,0,0.1-0.1,0.1c0,0-0.1,0-0.1,0
			c-0.1,0-0.1,0-0.2-0.1c-0.1-0.1-0.2-0.1-0.4-0.2c-0.2-0.1-0.3-0.1-0.6-0.2c-0.2-0.1-0.5-0.1-0.7-0.1c-0.2,0-0.5,0-0.6,0.1
			c-0.2,0.1-0.3,0.1-0.5,0.2c-0.1,0.1-0.2,0.2-0.3,0.4c-0.1,0.1-0.1,0.3-0.1,0.5c0,0.2,0.1,0.4,0.2,0.6c0.1,0.2,0.3,0.3,0.5,0.4
			c0.2,0.1,0.4,0.2,0.6,0.3c0.2,0.1,0.5,0.2,0.7,0.3c0.2,0.1,0.5,0.2,0.7,0.3c0.2,0.1,0.5,0.3,0.6,0.4c0.2,0.2,0.3,0.4,0.4,0.6
			C-1184.7,269.1-1184.6,269.4-1184.6,269.7z"/>
		<path fill="#15A6B1" d="M-1171,271.8c0,0,0,0.1,0,0.1c0,0-0.1,0.1-0.1,0.1c-0.1,0-0.1,0-0.2,0.1c-0.1,0-0.2,0-0.3,0
			c-0.1,0-0.3,0-0.4,0c-0.1,0-0.2,0-0.2-0.1c-0.1,0-0.1-0.1-0.1-0.1c0,0,0-0.1,0-0.1v-4.8c0-0.3,0-0.6-0.1-0.9
			c-0.1-0.3-0.2-0.5-0.3-0.7c-0.1-0.2-0.3-0.3-0.5-0.5c-0.2-0.1-0.4-0.2-0.7-0.2c-0.3,0-0.7,0.1-1,0.4c-0.3,0.3-0.7,0.6-1.1,1.1v5.5
			c0,0,0,0.1,0,0.1c0,0-0.1,0.1-0.1,0.1c-0.1,0-0.1,0-0.2,0.1c-0.1,0-0.2,0-0.3,0c-0.1,0-0.2,0-0.3,0c-0.1,0-0.2,0-0.2-0.1
			c-0.1,0-0.1-0.1-0.1-0.1c0,0,0-0.1,0-0.1v-4.8c0-0.3,0-0.6-0.1-0.9c-0.1-0.3-0.2-0.5-0.3-0.7c-0.1-0.2-0.3-0.3-0.5-0.5
			c-0.2-0.1-0.4-0.2-0.7-0.2c-0.3,0-0.7,0.1-1,0.4c-0.3,0.3-0.7,0.6-1.1,1.1v5.5c0,0,0,0.1,0,0.1c0,0-0.1,0.1-0.1,0.1
			c-0.1,0-0.1,0-0.2,0.1c-0.1,0-0.2,0-0.4,0c-0.1,0-0.3,0-0.3,0c-0.1,0-0.2,0-0.2-0.1c-0.1,0-0.1-0.1-0.1-0.1c0,0,0-0.1,0-0.1V264
			c0,0,0-0.1,0-0.1c0,0,0.1-0.1,0.1-0.1c0.1,0,0.1,0,0.2-0.1c0.1,0,0.2,0,0.3,0c0.1,0,0.2,0,0.3,0c0.1,0,0.1,0,0.2,0.1
			c0,0,0.1,0.1,0.1,0.1c0,0,0,0.1,0,0.1v1c0.4-0.5,0.9-0.9,1.3-1.1c0.4-0.2,0.8-0.3,1.3-0.3c0.3,0,0.6,0,0.9,0.1
			c0.3,0.1,0.5,0.2,0.7,0.3c0.2,0.1,0.4,0.3,0.5,0.5c0.1,0.2,0.3,0.4,0.3,0.6c0.3-0.3,0.5-0.5,0.7-0.7c0.2-0.2,0.5-0.4,0.7-0.5
			c0.2-0.1,0.4-0.2,0.6-0.3c0.2-0.1,0.4-0.1,0.6-0.1c0.5,0,0.9,0.1,1.3,0.3c0.3,0.2,0.6,0.4,0.8,0.7c0.2,0.3,0.4,0.6,0.5,1
			c0.1,0.4,0.1,0.8,0.1,1.3V271.8z"/>
		<path fill="#15A6B1" d="M-1166.8,261.4c0,0.3-0.1,0.6-0.2,0.7c-0.1,0.1-0.4,0.2-0.7,0.2c-0.3,0-0.6-0.1-0.7-0.2
			c-0.1-0.1-0.2-0.3-0.2-0.7c0-0.3,0.1-0.6,0.2-0.7c0.1-0.1,0.4-0.2,0.7-0.2c0.3,0,0.6,0.1,0.7,0.2
			C-1166.8,260.8-1166.8,261-1166.8,261.4z M-1166.9,271.8c0,0,0,0.1,0,0.1c0,0-0.1,0.1-0.1,0.1c-0.1,0-0.1,0-0.2,0.1
			c-0.1,0-0.2,0-0.4,0c-0.1,0-0.3,0-0.3,0c-0.1,0-0.2,0-0.2-0.1c-0.1,0-0.1-0.1-0.1-0.1c0,0,0-0.1,0-0.1V264c0,0,0-0.1,0-0.1
			c0,0,0.1-0.1,0.1-0.1c0.1,0,0.1,0,0.2-0.1c0.1,0,0.2,0,0.3,0c0.1,0,0.3,0,0.4,0c0.1,0,0.2,0,0.2,0.1c0.1,0,0.1,0.1,0.1,0.1
			c0,0,0,0.1,0,0.1V271.8z"/>
		<path fill="#15A6B1" d="M-1162.8,271.8c0,0,0,0.1,0,0.1c0,0-0.1,0.1-0.1,0.1c-0.1,0-0.1,0-0.2,0.1c-0.1,0-0.2,0-0.4,0
			c-0.1,0-0.3,0-0.3,0c-0.1,0-0.2,0-0.2-0.1c-0.1,0-0.1-0.1-0.1-0.1c0,0,0-0.1,0-0.1v-11.6c0,0,0-0.1,0-0.1c0,0,0.1-0.1,0.1-0.1
			s0.1,0,0.2-0.1c0.1,0,0.2,0,0.3,0c0.1,0,0.3,0,0.4,0c0.1,0,0.2,0,0.2,0.1c0.1,0,0.1,0.1,0.1,0.1c0,0,0,0.1,0,0.1V271.8z"/>
		<path fill="#15A6B1" d="M-1153.5,267.6c0,0.2-0.1,0.4-0.2,0.5c-0.1,0.1-0.2,0.1-0.4,0.1h-5.2c0,0.4,0,0.8,0.1,1.2
			c0.1,0.3,0.2,0.6,0.4,0.9c0.2,0.2,0.5,0.4,0.8,0.6c0.3,0.1,0.7,0.2,1.2,0.2c0.4,0,0.7,0,1-0.1c0.3-0.1,0.5-0.1,0.8-0.2
			c0.2-0.1,0.4-0.1,0.5-0.2c0.1-0.1,0.2-0.1,0.3-0.1c0,0,0.1,0,0.1,0c0,0,0.1,0.1,0.1,0.1c0,0,0,0.1,0,0.2c0,0.1,0,0.2,0,0.3
			c0,0.1,0,0.1,0,0.2c0,0.1,0,0.1,0,0.1c0,0,0,0.1,0,0.1c0,0,0,0.1-0.1,0.1c0,0-0.1,0.1-0.3,0.2c-0.2,0.1-0.4,0.1-0.6,0.2
			c-0.2,0.1-0.5,0.1-0.9,0.2c-0.3,0.1-0.7,0.1-1,0.1c-0.6,0-1.2-0.1-1.7-0.3c-0.5-0.2-0.9-0.4-1.2-0.8c-0.3-0.4-0.6-0.8-0.7-1.3
			c-0.2-0.5-0.3-1.2-0.3-1.9c0-0.7,0.1-1.3,0.3-1.8c0.2-0.5,0.4-1,0.8-1.4c0.3-0.4,0.7-0.7,1.2-0.9c0.5-0.2,1-0.3,1.6-0.3
			c0.6,0,1.1,0.1,1.6,0.3c0.4,0.2,0.8,0.5,1.1,0.8c0.3,0.3,0.5,0.7,0.6,1.2c0.1,0.4,0.2,0.9,0.2,1.4V267.6z M-1154.9,267.2
			c0-0.8-0.2-1.3-0.5-1.8c-0.4-0.4-0.9-0.6-1.6-0.6c-0.4,0-0.7,0.1-0.9,0.2s-0.5,0.3-0.7,0.5s-0.3,0.5-0.4,0.8
			c-0.1,0.3-0.2,0.6-0.2,0.9H-1154.9z"/>
		<path fill="#15A6B1" d="M-1140.6,267.6c0,0.2-0.1,0.4-0.2,0.5c-0.1,0.1-0.2,0.1-0.4,0.1h-5.2c0,0.4,0,0.8,0.1,1.2
			c0.1,0.3,0.2,0.6,0.4,0.9c0.2,0.2,0.5,0.4,0.8,0.6c0.3,0.1,0.7,0.2,1.2,0.2c0.4,0,0.7,0,1-0.1c0.3-0.1,0.5-0.1,0.8-0.2
			c0.2-0.1,0.4-0.1,0.5-0.2c0.1-0.1,0.2-0.1,0.3-0.1c0,0,0.1,0,0.1,0c0,0,0.1,0.1,0.1,0.1c0,0,0,0.1,0,0.2c0,0.1,0,0.2,0,0.3
			c0,0.1,0,0.1,0,0.2c0,0.1,0,0.1,0,0.1c0,0,0,0.1,0,0.1c0,0,0,0.1-0.1,0.1c0,0-0.1,0.1-0.3,0.2c-0.2,0.1-0.4,0.1-0.6,0.2
			c-0.2,0.1-0.5,0.1-0.9,0.2c-0.3,0.1-0.7,0.1-1,0.1c-0.6,0-1.2-0.1-1.7-0.3c-0.5-0.2-0.9-0.4-1.2-0.8s-0.6-0.8-0.7-1.3
			c-0.2-0.5-0.3-1.2-0.3-1.9c0-0.7,0.1-1.3,0.3-1.8c0.2-0.5,0.4-1,0.8-1.4c0.3-0.4,0.7-0.7,1.2-0.9c0.5-0.2,1-0.3,1.6-0.3
			c0.6,0,1.1,0.1,1.6,0.3c0.4,0.2,0.8,0.5,1.1,0.8c0.3,0.3,0.5,0.7,0.6,1.2c0.1,0.4,0.2,0.9,0.2,1.4V267.6z M-1142.1,267.2
			c0-0.8-0.2-1.3-0.5-1.8c-0.4-0.4-0.9-0.6-1.6-0.6c-0.4,0-0.7,0.1-0.9,0.2c-0.3,0.1-0.5,0.3-0.7,0.5s-0.3,0.5-0.4,0.8
			c-0.1,0.3-0.2,0.6-0.2,0.9H-1142.1z"/>
		<path fill="#15A6B1" d="M-1132.1,264C-1132.1,264-1132.1,264-1132.1,264c0,0.1,0,0.1,0,0.2c0,0,0,0.1,0,0.1c0,0,0,0.1,0,0.1
			l-2.7,7.4c0,0.1-0.1,0.1-0.1,0.2c0,0-0.1,0.1-0.2,0.1c-0.1,0-0.2,0-0.3,0s-0.3,0-0.4,0c-0.2,0-0.3,0-0.4,0c-0.1,0-0.2,0-0.3-0.1
			c-0.1,0-0.1-0.1-0.2-0.1c0,0-0.1-0.1-0.1-0.1l-2.7-7.4c0-0.1,0-0.1-0.1-0.2c0-0.1,0-0.1,0-0.1c0,0,0,0,0-0.1c0,0,0-0.1,0-0.1
			c0,0,0.1-0.1,0.1-0.1c0.1,0,0.1,0,0.2,0c0.1,0,0.2,0,0.3,0c0.2,0,0.3,0,0.4,0c0.1,0,0.2,0,0.2,0c0.1,0,0.1,0.1,0.1,0.1
			c0,0,0.1,0.1,0.1,0.1l2.2,6.5l0,0.1l0-0.1l2.2-6.5c0-0.1,0-0.1,0.1-0.1c0,0,0.1-0.1,0.1-0.1c0.1,0,0.1,0,0.2,0c0.1,0,0.2,0,0.4,0
			c0.1,0,0.2,0,0.3,0c0.1,0,0.2,0,0.2,0c0,0,0.1,0.1,0.1,0.1C-1132.1,263.9-1132.1,264-1132.1,264z"/>
		<path fill="#15A6B1" d="M-1124,267.6c0,0.2-0.1,0.4-0.2,0.5c-0.1,0.1-0.2,0.1-0.4,0.1h-5.2c0,0.4,0,0.8,0.1,1.2
			c0.1,0.3,0.2,0.6,0.4,0.9c0.2,0.2,0.5,0.4,0.8,0.6c0.3,0.1,0.7,0.2,1.2,0.2c0.4,0,0.7,0,1-0.1c0.3-0.1,0.5-0.1,0.8-0.2
			c0.2-0.1,0.4-0.1,0.5-0.2c0.1-0.1,0.2-0.1,0.3-0.1c0,0,0.1,0,0.1,0c0,0,0.1,0.1,0.1,0.1c0,0,0,0.1,0,0.2c0,0.1,0,0.2,0,0.3
			c0,0.1,0,0.1,0,0.2c0,0.1,0,0.1,0,0.1c0,0,0,0.1,0,0.1c0,0,0,0.1-0.1,0.1c0,0-0.1,0.1-0.3,0.2c-0.2,0.1-0.4,0.1-0.6,0.2
			c-0.2,0.1-0.5,0.1-0.9,0.2c-0.3,0.1-0.7,0.1-1,0.1c-0.6,0-1.2-0.1-1.7-0.3c-0.5-0.2-0.9-0.4-1.2-0.8s-0.6-0.8-0.7-1.3
			c-0.2-0.5-0.3-1.2-0.3-1.9c0-0.7,0.1-1.3,0.3-1.8c0.2-0.5,0.4-1,0.8-1.4c0.3-0.4,0.7-0.7,1.2-0.9c0.5-0.2,1-0.3,1.6-0.3
			c0.6,0,1.1,0.1,1.6,0.3c0.4,0.2,0.8,0.5,1.1,0.8c0.3,0.3,0.5,0.7,0.6,1.2c0.1,0.4,0.2,0.9,0.2,1.4V267.6z M-1125.4,267.2
			c0-0.8-0.2-1.3-0.5-1.8c-0.4-0.4-0.9-0.6-1.6-0.6c-0.4,0-0.7,0.1-0.9,0.2s-0.5,0.3-0.7,0.5s-0.3,0.5-0.4,0.8
			c-0.1,0.3-0.2,0.6-0.2,0.9H-1125.4z"/>
		<path fill="#15A6B1" d="M-1117.2,264.5c0,0.1,0,0.2,0,0.3c0,0.1,0,0.2,0,0.2c0,0,0,0.1-0.1,0.1c0,0-0.1,0-0.1,0c0,0-0.1,0-0.2,0
			c-0.1,0-0.1-0.1-0.2-0.1c-0.1,0-0.2-0.1-0.3-0.1c-0.1,0-0.2,0-0.3,0c-0.1,0-0.3,0-0.4,0.1c-0.1,0.1-0.3,0.2-0.4,0.3
			s-0.3,0.3-0.5,0.5c-0.2,0.2-0.4,0.5-0.6,0.8v5.1c0,0,0,0.1,0,0.1c0,0-0.1,0.1-0.1,0.1c-0.1,0-0.1,0-0.2,0.1c-0.1,0-0.2,0-0.4,0
			c-0.1,0-0.3,0-0.3,0c-0.1,0-0.2,0-0.2-0.1c-0.1,0-0.1-0.1-0.1-0.1c0,0,0-0.1,0-0.1V264c0,0,0-0.1,0-0.1c0,0,0.1-0.1,0.1-0.1
			c0.1,0,0.1,0,0.2-0.1c0.1,0,0.2,0,0.3,0c0.1,0,0.2,0,0.3,0c0.1,0,0.1,0,0.2,0.1c0,0,0.1,0.1,0.1,0.1c0,0,0,0.1,0,0.1v1.1
			c0.2-0.3,0.4-0.6,0.6-0.8c0.2-0.2,0.4-0.4,0.5-0.5c0.2-0.1,0.3-0.2,0.5-0.2c0.2,0,0.3-0.1,0.5-0.1c0.1,0,0.2,0,0.3,0
			c0.1,0,0.2,0,0.3,0c0.1,0,0.2,0,0.3,0.1c0.1,0,0.1,0.1,0.2,0.1c0,0,0.1,0.1,0.1,0.1c0,0,0,0.1,0,0.1c0,0,0,0.1,0,0.2
			C-1117.2,264.3-1117.2,264.4-1117.2,264.5z"/>
		<path fill="#15A6B1" d="M-1111.9,272.1l-1,2.9c0,0.1-0.1,0.2-0.3,0.2c-0.1,0-0.4,0.1-0.6,0.1c-0.2,0-0.3,0-0.4,0
			c-0.1,0-0.2,0-0.2-0.1c0,0-0.1-0.1-0.1-0.1c0-0.1,0-0.1,0-0.2l1.1-2.7c-0.1,0-0.1-0.1-0.1-0.1c0-0.1-0.1-0.1-0.1-0.2l-2.8-7.5
			c0-0.1-0.1-0.2-0.1-0.3c0-0.1,0-0.1,0.1-0.2c0,0,0.1-0.1,0.2-0.1c0.1,0,0.2,0,0.4,0c0.2,0,0.3,0,0.4,0c0.1,0,0.2,0,0.2,0
			c0.1,0,0.1,0.1,0.1,0.1c0,0,0.1,0.1,0.1,0.2l2.2,6.3h0l2.2-6.3c0-0.1,0.1-0.2,0.1-0.2c0,0,0.1-0.1,0.2-0.1c0.1,0,0.2,0,0.4,0
			c0.2,0,0.3,0,0.4,0c0.1,0,0.2,0,0.2,0.1c0,0,0.1,0.1,0.1,0.2c0,0.1,0,0.2-0.1,0.3L-1111.9,272.1z"/>
		<path fill="#15A6B1" d="M-1100.2,267.8c0,0.7-0.1,1.3-0.2,1.8c-0.1,0.5-0.4,1-0.7,1.4c-0.3,0.4-0.6,0.7-1.1,0.9
			c-0.4,0.2-0.9,0.3-1.4,0.3c-0.2,0-0.5,0-0.7-0.1c-0.2,0-0.4-0.1-0.6-0.2c-0.2-0.1-0.4-0.2-0.6-0.4c-0.2-0.2-0.4-0.4-0.6-0.6v1
			c0,0,0,0.1,0,0.1c0,0-0.1,0.1-0.1,0.1c-0.1,0-0.1,0-0.2,0c-0.1,0-0.2,0-0.3,0c-0.1,0-0.2,0-0.3,0c-0.1,0-0.1,0-0.2,0
			c-0.1,0-0.1,0-0.1-0.1c0,0,0-0.1,0-0.1v-11.6c0,0,0-0.1,0-0.1c0,0,0.1-0.1,0.1-0.1s0.1,0,0.2-0.1c0.1,0,0.2,0,0.3,0
			c0.1,0,0.3,0,0.4,0c0.1,0,0.2,0,0.2,0.1c0.1,0,0.1,0.1,0.1,0.1c0,0,0,0.1,0,0.1v4.7c0.2-0.2,0.5-0.4,0.7-0.6
			c0.2-0.2,0.4-0.3,0.6-0.4c0.2-0.1,0.4-0.2,0.6-0.2c0.2,0,0.4-0.1,0.7-0.1c0.6,0,1.1,0.1,1.5,0.3c0.4,0.2,0.7,0.5,1,0.9
			c0.3,0.4,0.4,0.8,0.6,1.3C-1100.3,266.7-1100.2,267.3-1100.2,267.8z M-1101.7,268c0-0.4,0-0.8-0.1-1.2s-0.2-0.7-0.3-1
			c-0.2-0.3-0.4-0.5-0.6-0.7c-0.3-0.2-0.6-0.3-0.9-0.3c-0.2,0-0.4,0-0.6,0.1s-0.4,0.1-0.6,0.3c-0.2,0.1-0.4,0.3-0.6,0.5
			c-0.2,0.2-0.4,0.4-0.6,0.7v3.1c0.4,0.5,0.8,0.8,1.1,1.1s0.7,0.4,1.1,0.4c0.4,0,0.7-0.1,0.9-0.3c0.3-0.2,0.5-0.4,0.6-0.7
			c0.2-0.3,0.3-0.6,0.3-1C-1101.7,268.7-1101.7,268.4-1101.7,268z"/>
		<path fill="#15A6B1" d="M-1090.8,267.8c0,0.6-0.1,1.2-0.3,1.8c-0.2,0.5-0.4,1-0.8,1.4c-0.3,0.4-0.8,0.7-1.3,0.9
			c-0.5,0.2-1.1,0.3-1.7,0.3c-0.6,0-1.2-0.1-1.7-0.3c-0.5-0.2-0.9-0.5-1.2-0.8c-0.3-0.4-0.6-0.8-0.7-1.3c-0.2-0.5-0.2-1.1-0.2-1.8
			c0-0.6,0.1-1.2,0.2-1.8c0.2-0.5,0.4-1,0.7-1.4c0.3-0.4,0.7-0.7,1.2-0.9c0.5-0.2,1.1-0.3,1.7-0.3c0.6,0,1.2,0.1,1.7,0.3
			c0.5,0.2,0.9,0.5,1.2,0.8c0.3,0.4,0.6,0.8,0.7,1.3C-1090.9,266.6-1090.8,267.2-1090.8,267.8z M-1092.3,267.9c0-0.4,0-0.8-0.1-1.2
			c-0.1-0.4-0.2-0.7-0.4-1c-0.2-0.3-0.4-0.5-0.7-0.7s-0.7-0.2-1.2-0.2c-0.4,0-0.8,0.1-1.1,0.2c-0.3,0.2-0.6,0.4-0.8,0.6
			c-0.2,0.3-0.3,0.6-0.4,1c-0.1,0.4-0.1,0.8-0.1,1.2c0,0.4,0,0.8,0.1,1.2c0.1,0.4,0.2,0.7,0.4,1c0.2,0.3,0.4,0.5,0.7,0.7
			c0.3,0.2,0.7,0.2,1.2,0.2c0.4,0,0.8-0.1,1.1-0.2c0.3-0.2,0.6-0.4,0.8-0.6c0.2-0.3,0.3-0.6,0.4-1
			C-1092.3,268.8-1092.3,268.4-1092.3,267.9z"/>
		<path fill="#15A6B1" d="M-1082,271.8c0,0,0,0.1,0,0.1c0,0-0.1,0.1-0.1,0.1c0,0-0.1,0-0.2,0c-0.1,0-0.2,0-0.3,0c-0.1,0-0.2,0-0.3,0
			c-0.1,0-0.1,0-0.2,0c-0.1,0-0.1,0-0.1-0.1c0,0,0-0.1,0-0.1v-1c-0.4,0.4-0.8,0.8-1.3,1c-0.4,0.2-0.9,0.4-1.5,0.4
			c-0.6,0-1.1-0.1-1.5-0.3c-0.4-0.2-0.7-0.5-1-0.9c-0.3-0.4-0.4-0.8-0.6-1.3s-0.2-1.1-0.2-1.6c0-0.7,0.1-1.3,0.2-1.8
			c0.1-0.5,0.4-1,0.6-1.4c0.3-0.4,0.6-0.7,1.1-0.9c0.4-0.2,0.9-0.3,1.5-0.3c0.5,0,0.9,0.1,1.3,0.3c0.4,0.2,0.8,0.5,1.1,0.9v-4.5
			c0,0,0-0.1,0-0.1c0,0,0.1-0.1,0.1-0.1c0.1,0,0.1,0,0.2-0.1c0.1,0,0.2,0,0.3,0c0.1,0,0.3,0,0.4,0c0.1,0,0.2,0,0.2,0.1
			c0.1,0,0.1,0,0.1,0.1c0,0,0,0.1,0,0.1V271.8z M-1083.4,266.3c-0.4-0.5-0.8-0.8-1.1-1.1c-0.4-0.3-0.7-0.4-1.1-0.4
			c-0.4,0-0.7,0.1-0.9,0.3c-0.3,0.2-0.5,0.4-0.6,0.7c-0.2,0.3-0.3,0.6-0.3,1c-0.1,0.4-0.1,0.7-0.1,1.1c0,0.4,0,0.8,0.1,1.2
			c0.1,0.4,0.2,0.7,0.3,1c0.2,0.3,0.4,0.5,0.6,0.7c0.2,0.2,0.6,0.3,0.9,0.3c0.2,0,0.4,0,0.6-0.1c0.2-0.1,0.4-0.1,0.5-0.3
			c0.2-0.1,0.4-0.3,0.6-0.5c0.2-0.2,0.4-0.4,0.6-0.7V266.3z"/>
		<path fill="#15A6B1" d="M-1075.7,272.1l-1,2.9c0,0.1-0.1,0.2-0.3,0.2c-0.1,0-0.4,0.1-0.6,0.1c-0.2,0-0.3,0-0.4,0
			c-0.1,0-0.2,0-0.2-0.1c0,0-0.1-0.1-0.1-0.1c0-0.1,0-0.1,0-0.2l1.1-2.7c-0.1,0-0.1-0.1-0.1-0.1c0-0.1-0.1-0.1-0.1-0.2l-2.8-7.5
			c0-0.1-0.1-0.2-0.1-0.3c0-0.1,0-0.1,0.1-0.2c0,0,0.1-0.1,0.2-0.1c0.1,0,0.2,0,0.4,0c0.2,0,0.3,0,0.4,0c0.1,0,0.2,0,0.2,0
			c0.1,0,0.1,0.1,0.1,0.1c0,0,0.1,0.1,0.1,0.2l2.2,6.3h0l2.2-6.3c0-0.1,0.1-0.2,0.1-0.2c0,0,0.1-0.1,0.2-0.1c0.1,0,0.2,0,0.4,0
			c0.2,0,0.3,0,0.4,0c0.1,0,0.2,0,0.2,0.1c0,0,0.1,0.1,0.1,0.2c0,0.1,0,0.2-0.1,0.3L-1075.7,272.1z"/>
	</g>
</g>
<g>
	<path fill="#15A6B1" d="M-1986.3,255.9v0.2C-1986.3,256-1986.3,255.9-1986.3,255.9L-1986.3,255.9z"/>
	<path fill="#FFFFFF" d="M-2012.8,251.1c-1-0.3-2-0.5-3-0.6c-0.5-0.1-0.9-0.1-1.4-0.1h-1.8h-2l-26.6,0.1v12.2l6.4,0
		c0.2,0,0.4,0.2,0.3,0.4c-2,3.6-3.1,7.7-3.2,12c0,0.1,0,0.1,0,0.2v38.4v15.1v14.5l14.7-8.4l0.3-19.9l0.2-14.6l0-0.6
		c0-0.7,0.6-1.1,1.3-1c0,0,0.1,0,0.1,0c2.3,0.8,4.7,1.3,7.2,1.4c0.4,0,0.7,0,1.1,0c13.8,0,25-11.2,25-25
		C-1994.1,263.7-2002,253.9-2012.8,251.1z M-2016,287c-1.2,0.4-2.5,0.6-3.8,0.6c-0.1,0-0.3,0-0.4,0c-4.9-0.2-9-3.1-10.9-7.3
		c-0.6-1.2-0.9-2.6-1.1-4c0-0.4-0.1-0.7-0.1-1.1c0-6.9,5.6-12.4,12.4-12.5c0,0,0,0,0,0s0,0,0,0c1.5,0,2.9,0.3,4.2,0.8
		c0.9,0.3,1.7,0.7,2.4,1.2c3.5,2.2,5.8,6.1,5.8,10.5C-2007.3,280.7-2011,285.4-2016,287z"/>
	<path fill="#FFFFFF" d="M-2019.7,266.2c-5,0-9,4-9,9c0,5,4,9,9,9s9-4,9-9C-2010.6,270.2-2014.7,266.2-2019.7,266.2z M-2019.7,282.7
		c-4.2,0-7.5-3.4-7.5-7.5c0-4.2,3.4-7.5,7.5-7.5s7.5,3.4,7.5,7.5C-2012.1,279.4-2015.5,282.7-2019.7,282.7z"/>
	<path fill="#EA897A" d="M-2046.6,275.1c0-3.4,0.7-6.8,1.9-10l-3.1,0v5.4c0,5.9-1.4,11.2-4.2,15.9c-2.8,4.7-6.7,8.3-11.6,10.8
		c-4.9,2.6-10.5,3.9-16.7,3.9c-6.1,0-11.6-1.3-16.5-3.9c-4.9-2.6-8.8-6.2-11.6-10.8c-2.8-4.7-4.2-9.9-4.2-15.9V234
		c0-0.5,0.2-1,0.5-1.3c0.5-0.5,1.2-0.5,1.3-0.5c0.1,0,6.6,0,6.7,0c0.1,0,8.5,0,8.6,0V270c0,5.1,1.3,9.1,4,11.9
		c2.7,2.8,6.4,4.2,11.1,4.2s8.4-1.4,11.2-4.2c2.7-2.8,4.1-6.8,4.1-11.9v-37.8h15.5c1,0,1.8,0.8,1.8,1.8V248l26.6-0.1h4l0.1,0
		c0.5,0,1,0.1,1.5,0.2c1,0.1,2.1,0.4,3.2,0.6c-3.8-34.1-32.6-60.6-67.7-60.6c-38.7,0-69.9,32.2-68.1,71.3c1.6,35,30,63.4,65,64.9
		c13.3,0.6,25.8-2.7,36.5-8.7v-40.4L-2046.6,275.1z M-2056.5,213.5c3.7,0,6.7,3,6.7,6.7c0,3.7-3,6.7-6.7,6.7c-3.7,0-6.7-3-6.7-6.7
		C-2063.2,216.5-2060.2,213.5-2056.5,213.5z M-2103.2,213.5c3.7,0,6.7,3,6.7,6.7c0,3.7-3,6.7-6.7,6.7c-3.7,0-6.7-3-6.7-6.7
		C-2109.9,216.5-2106.9,213.5-2103.2,213.5z"/>
	<g>
		<g>
			<path fill-rule="evenodd" fill="#FFFFFF" d="M-1939.7,298.6c0.5,0.2,1.1,0.3,1.9,0.4c0.8,0.1,1.8,0.1,3,0.1c1.2,0,2.2,0,3-0.1
				c0.8-0.1,1.4-0.2,1.9-0.4c0.5-0.2,0.8-0.4,1-0.6c0.2-0.2,0.3-0.5,0.3-0.9v-27.3c0.9-1.4,1.8-2.7,2.6-3.6c0.8-1,1.6-1.8,2.3-2.4
				c0.7-0.6,1.4-1,2.1-1.3c0.7-0.3,1.4-0.4,2.1-0.4c0.6,0,1.1,0.1,1.6,0.2c0.5,0.1,0.9,0.2,1.4,0.4s0.8,0.3,1.1,0.4
				c0.3,0.1,0.6,0.2,0.9,0.2c0.3,0,0.6-0.1,0.8-0.2c0.2-0.2,0.4-0.5,0.5-0.9c0.1-0.4,0.2-1,0.3-1.8c0.1-0.8,0.1-1.7,0.1-2.9
				c0-1.2,0-2.1,0-2.8c0-0.7-0.1-1.2-0.1-1.5c-0.1-0.3-0.1-0.6-0.2-0.8c-0.1-0.2-0.2-0.4-0.4-0.5c-0.2-0.2-0.5-0.3-0.9-0.5
				c-0.4-0.1-0.9-0.3-1.4-0.4c-0.5-0.1-1-0.2-1.5-0.2c-0.5,0-0.9-0.1-1.4-0.1c-0.9,0-1.8,0.1-2.8,0.4c-0.9,0.2-1.8,0.7-2.8,1.3
				c-0.9,0.6-1.9,1.5-2.9,2.5c-1,1.1-2.1,2.4-3.2,4.1v-5.5c0-0.3-0.1-0.6-0.2-0.9c-0.2-0.2-0.4-0.5-0.8-0.6
				c-0.4-0.2-0.9-0.3-1.6-0.4c-0.7-0.1-1.6-0.1-2.6-0.1c-1,0-1.9,0-2.5,0.1c-0.7,0.1-1.2,0.2-1.6,0.4c-0.4,0.2-0.7,0.4-0.9,0.6
				c-0.2,0.2-0.2,0.5-0.2,0.9v43.8c0,0.3,0.1,0.6,0.3,0.9C-1940.5,298.3-1940.2,298.5-1939.7,298.6z"/>
			<path fill-rule="evenodd" fill="#FFFFFF" d="M-1875.2,289.8c-0.2-0.4-0.4-0.6-0.7-0.7c-0.3-0.1-0.5-0.2-0.8-0.2h-17.3l16.3-25.3
				c0.3-0.5,0.6-1,0.9-1.5c0.2-0.5,0.4-0.9,0.6-1.4c0.1-0.5,0.2-0.9,0.3-1.4c0.1-0.5,0.1-1.1,0.1-1.7v-2.4c0-0.7-0.1-1.3-0.2-1.7
				c-0.1-0.5-0.3-0.8-0.5-1.1c-0.2-0.3-0.5-0.4-0.8-0.5c-0.3-0.1-0.7-0.1-1.2-0.1h-26.8c-0.4,0-0.7,0.1-0.9,0.2
				c-0.3,0.2-0.5,0.4-0.6,0.8c-0.2,0.4-0.3,0.9-0.4,1.5c-0.1,0.6-0.1,1.4-0.1,2.4c0,1.7,0.2,3,0.6,3.8c0.4,0.8,0.9,1.2,1.5,1.2h15.5
				l-16.4,25.3c-0.4,0.6-0.7,1.1-1,1.5c-0.2,0.5-0.4,0.9-0.6,1.4c-0.1,0.4-0.2,0.9-0.3,1.4c0,0.5-0.1,1-0.1,1.6v2.3
				c0,1.3,0.2,2.3,0.7,2.9c0.5,0.6,1.2,0.9,2,0.9h28.6c0.3,0,0.6-0.1,0.9-0.2c0.3-0.1,0.5-0.4,0.6-0.8c0.2-0.4,0.3-0.9,0.4-1.6
				c0.1-0.7,0.1-1.5,0.1-2.4c0-1,0-1.8-0.1-2.4C-1874.9,290.7-1875,290.2-1875.2,289.8z"/>
			<path fill-rule="evenodd" fill="#FFFFFF" d="M-1828.3,256.8c-1.9-2.1-4.3-3.6-7.1-4.7c-2.9-1.1-6.3-1.6-10.2-1.6
				c-4,0-7.5,0.6-10.5,1.8c-3,1.2-5.5,2.9-7.5,5.1c-2,2.2-3.5,4.9-4.5,8c-1,3.1-1.5,6.5-1.5,10.2c0,3.9,0.5,7.3,1.4,10.3
				c0.9,3,2.3,5.5,4.2,7.6c1.9,2.1,4.3,3.6,7.2,4.7c2.9,1.1,6.3,1.6,10.2,1.6c4,0,7.5-0.6,10.6-1.8c3-1.2,5.5-2.9,7.5-5.2
				c2-2.2,3.5-4.9,4.5-8c1-3.1,1.5-6.5,1.5-10.2c0-3.9-0.5-7.3-1.4-10.4C-1825,261.4-1826.4,258.9-1828.3,256.8z M-1836.1,281.5
				c-0.4,1.8-1.1,3.4-2,4.6c-0.9,1.3-2,2.3-3.4,2.9c-1.4,0.7-3,1-4.9,1c-2,0-3.7-0.4-5.1-1.1c-1.4-0.7-2.5-1.8-3.3-3.1
				c-0.8-1.3-1.4-2.9-1.7-4.7c-0.4-1.8-0.5-3.8-0.5-6c0-2.3,0.2-4.4,0.7-6.2c0.4-1.8,1.1-3.4,2-4.7c0.9-1.3,2-2.3,3.4-2.9
				c1.4-0.7,3-1,4.8-1c2.1,0,3.8,0.4,5.1,1.1c1.4,0.8,2.4,1.8,3.3,3.1c0.8,1.3,1.4,2.9,1.7,4.7c0.3,1.8,0.5,3.8,0.5,6
				C-1835.4,277.6-1835.6,279.7-1836.1,281.5z"/>
			<path fill-rule="evenodd" fill="#FFFFFF" d="M-1771.9,262c-0.6-2.3-1.5-4.2-2.7-5.9c-1.3-1.7-2.9-3-5-4c-2-1-4.6-1.5-7.5-1.5
				c-2.7,0-5.3,0.7-7.8,2c-2.5,1.3-5,3.3-7.4,5.9v-5.1c0-0.3-0.1-0.6-0.2-0.9c-0.2-0.2-0.4-0.5-0.8-0.6c-0.4-0.2-0.9-0.3-1.6-0.4
				c-0.7-0.1-1.6-0.1-2.6-0.1c-1,0-1.9,0-2.5,0.1c-0.7,0.1-1.2,0.2-1.6,0.4c-0.4,0.2-0.7,0.4-0.9,0.6c-0.2,0.2-0.2,0.5-0.2,0.9v43.8
				c0,0.3,0.1,0.6,0.3,0.9c0.2,0.2,0.5,0.5,1,0.6c0.5,0.2,1.1,0.3,1.9,0.4c0.8,0.1,1.8,0.1,3,0.1c1.2,0,2.2,0,3-0.1
				c0.8-0.1,1.4-0.2,1.9-0.4c0.5-0.2,0.8-0.4,1-0.6c0.2-0.2,0.3-0.5,0.3-0.9V268c1.7-2.2,3.4-3.9,5-5c1.6-1.1,3.2-1.7,4.8-1.7
				c1.2,0,2.3,0.2,3.3,0.7c0.9,0.5,1.7,1.1,2.3,2c0.6,0.9,1,1.9,1.4,3.1c0.3,1.2,0.5,2.9,0.5,5v25c0,0.3,0.1,0.6,0.3,0.9
				c0.2,0.2,0.5,0.5,1,0.6c0.5,0.2,1.1,0.3,1.9,0.4c0.8,0.1,1.8,0.1,3,0.1c1.2,0,2.2,0,3-0.1c0.8-0.1,1.4-0.2,1.9-0.4
				c0.5-0.2,0.8-0.4,1-0.6c0.2-0.2,0.3-0.5,0.3-0.9v-27.1C-1771.1,266.9-1771.4,264.2-1771.9,262z"/>
			<path fill-rule="evenodd" fill="#FFFFFF" d="M-1918.3,311.5c-11.5,0-18-3-20.2-4.2c-5.3-3-8.4-6.7-9.2-7.7c0,0-0.1-0.1-0.1-0.1
				c-3.6-4.6-5.5-10.2-5.7-16c-0.2-6.7-0.3-13.5-0.5-20.2c-0.1-3.1-1.3-6.1-3.5-8.3c-0.1-0.1-0.2-0.2-0.3-0.3
				c-0.7-0.7-1.4-1.1-1.6-1.2c-1.5-1-3-1.4-4.4-1.8c-2.4-0.7-5.4-1-8.8-1c-1.9,0-3.8,0.2-5.6,0.5c-1.8,0.3-3.5,0.7-5,1.2
				c-1.5,0.5-2.9,1-4,1.6c-1.1,0.6-1.9,1.1-2.4,1.6c-0.5,0.5-0.8,1-0.9,1.6c-0.2,0.6-0.2,1.4-0.2,2.4c0,0.8,0,1.4,0.1,2.1
				c0.1,0.6,0.2,1.1,0.4,1.6c0.2,0.4,0.4,0.8,0.7,1c0.3,0.2,0.6,0.3,1,0.3c0.5,0,1.2-0.2,2-0.7c0.8-0.5,1.9-1,3.1-1.5
				c1.2-0.6,2.7-1.1,4.3-1.5c1.6-0.5,3.5-0.7,5.5-0.7c1.6,0,2.9,0.2,4,0.5c1.1,0.3,1.9,0.8,2.6,1.5c0.6,0.7,1.1,1.5,1.4,2.6
				c0.3,1,0.4,2.2,0.4,3.6v2.7h-4.3c-3.9,0-7.3,0.3-10.3,0.9c-2.9,0.6-5.4,1.5-7.4,2.7c-2,1.2-3.5,2.8-4.5,4.7
				c-1,1.9-1.5,4.1-1.5,6.7c0,2.4,0.4,4.4,1.2,6.2c0.8,1.8,1.9,3.2,3.3,4.4c1.4,1.2,3.1,2.1,5.1,2.7c1.9,0.6,4.1,0.9,6.4,0.9
				c2.8,0,5.4-0.5,7.7-1.6c0.2-0.1,0.8-0.4,1.7-0.9c2.3-1.4,3.8-2.9,4.8-4c0.4,1.1,1.1,2.7,2.1,4.6c6.2,11.1,16.6,16,20.6,17.6
				c1.9,0.7,10.8,4.1,22.5,2.6c16.3-2.1,27.8-12.7,27.2-13.7C-1891.3,303.5-1901.9,311.6-1918.3,311.5z M-1965.5,286
				c-1.5,1.7-3,3-4.4,3.9c-1.5,0.9-3.1,1.3-4.8,1.3c-2.1,0-3.7-0.5-4.8-1.6c-1.2-1-1.7-2.5-1.7-4.3c0-1.1,0.2-2,0.6-2.9
				c0.4-0.8,1.1-1.5,1.9-2.1c0.9-0.6,2-1,3.4-1.3c1.4-0.3,3.1-0.4,5.1-0.4h4.7V286z"/>
		</g>
		<path id="XMLID_4_" fill-rule="evenodd" fill="#FFFFFF" d="M-1890.2,303.5c-0.9-0.9-5.1,0-7,0.4c-0.6,0.1-0.7-0.4-0.2-0.8
			c3.2-2.7,8.8-2.5,9.5-1.8c0.7,0.7,0.4,6.4-2.5,9.4c-0.5,0.5-0.9,0.3-0.8-0.3C-1890.6,308.6-1889.4,304.4-1890.2,303.5"/>
	</g>
	<path fill="#FFFFFF" d="M-2080,331.6c-41.6,0-75.4-33.8-75.4-75.4c0-18.6,6.8-35.6,17.9-48.7c-0.5-0.2-0.9-0.6-1.2-1.1
		c-11.5,13.4-18.4,30.8-18.4,49.8c0,42.4,34.5,77,77,77c9,0,17.8-1.6,26.1-4.5v-1.7C-2062.2,330-2071,331.6-2080,331.6z"/>
	<path fill="#FFFFFF" d="M-2027.5,199.9c-14.3-13.3-32.9-20.7-52.5-20.7c-19,0-36.4,6.9-49.8,18.3c0.1,0.1,0.2,0.2,0.3,0.4
		c0,0,0,0,0.1,0.1c0.3,0.2,0.5,0.5,0.7,0.8c13.2-11.2,30.2-18,48.8-18c35.9,0,66.5,25.6,73.7,59.9c0.5-0.3,1-0.4,1.6-0.4
		C-2007.9,224.9-2015.8,210.8-2027.5,199.9z"/>
	<linearGradient id="SVGID_2_" gradientUnits="userSpaceOnUse" x1="-2137.9739" y1="202.514" x2="-2129.9631" y2="202.514">
		<stop  offset="0" style="stop-color:#EA897A"/>
		<stop  offset="1" style="stop-color:#CD6632"/>
	</linearGradient>
	<circle fill="url(#SVGID_2_)" cx="-2134" cy="202.5" r="4"/>
	<g>
		<path fill="#FFFFFF" d="M-1880.3,311.9c0,0.4-0.1,0.7-0.2,1c-0.1,0.3-0.4,0.6-0.6,0.8c-0.3,0.2-0.6,0.4-1,0.5
			c-0.4,0.1-0.8,0.2-1.2,0.2c-0.3,0-0.5,0-0.8-0.1c-0.2,0-0.5-0.1-0.7-0.2c-0.2-0.1-0.4-0.1-0.5-0.2c-0.1-0.1-0.2-0.1-0.3-0.2
			c-0.1-0.1-0.1-0.1-0.1-0.2c0-0.1,0-0.2,0-0.4c0-0.1,0-0.2,0-0.3c0-0.1,0-0.1,0-0.2c0,0,0-0.1,0.1-0.1c0,0,0.1,0,0.1,0
			c0.1,0,0.2,0,0.3,0.1s0.3,0.2,0.5,0.3c0.2,0.1,0.4,0.2,0.6,0.3c0.2,0.1,0.5,0.1,0.8,0.1c0.2,0,0.5,0,0.6-0.1
			c0.2-0.1,0.4-0.1,0.5-0.2c0.1-0.1,0.3-0.2,0.3-0.4c0.1-0.2,0.1-0.3,0.1-0.5c0-0.2-0.1-0.4-0.2-0.5c-0.1-0.1-0.3-0.3-0.4-0.4
			c-0.2-0.1-0.4-0.2-0.6-0.3c-0.2-0.1-0.5-0.2-0.7-0.3c-0.2-0.1-0.5-0.2-0.7-0.3c-0.2-0.1-0.4-0.3-0.6-0.4c-0.2-0.2-0.3-0.4-0.4-0.6
			c-0.1-0.2-0.2-0.5-0.2-0.9c0-0.3,0.1-0.6,0.2-0.9c0.1-0.3,0.3-0.5,0.5-0.7c0.2-0.2,0.5-0.4,0.9-0.5c0.3-0.1,0.8-0.2,1.2-0.2
			c0.2,0,0.4,0,0.6,0.1c0.2,0,0.4,0.1,0.6,0.1c0.2,0.1,0.3,0.1,0.4,0.2c0.1,0.1,0.2,0.1,0.3,0.2c0.1,0,0.1,0.1,0.1,0.1
			c0,0,0,0.1,0,0.1c0,0,0,0.1,0,0.2s0,0.1,0,0.2c0,0.1,0,0.2,0,0.3c0,0.1,0,0.1,0,0.2c0,0,0,0.1-0.1,0.1c0,0-0.1,0-0.1,0
			c-0.1,0-0.1,0-0.2-0.1c-0.1-0.1-0.2-0.1-0.4-0.2c-0.2-0.1-0.3-0.1-0.5-0.2c-0.2-0.1-0.4-0.1-0.7-0.1c-0.2,0-0.4,0-0.6,0.1
			c-0.2,0.1-0.3,0.1-0.4,0.2c-0.1,0.1-0.2,0.2-0.3,0.4c-0.1,0.1-0.1,0.3-0.1,0.4c0,0.2,0.1,0.4,0.2,0.6c0.1,0.2,0.3,0.3,0.4,0.4
			c0.2,0.1,0.4,0.2,0.6,0.3c0.2,0.1,0.5,0.2,0.7,0.3c0.2,0.1,0.5,0.2,0.7,0.3c0.2,0.1,0.4,0.3,0.6,0.4c0.2,0.2,0.3,0.4,0.4,0.6
			C-1880.3,311.2-1880.3,311.5-1880.3,311.9z"/>
		<path fill="#FFFFFF" d="M-1866.9,313.9c0,0,0,0.1,0,0.1c0,0-0.1,0.1-0.1,0.1c-0.1,0-0.1,0-0.2,0.1c-0.1,0-0.2,0-0.3,0
			c-0.1,0-0.3,0-0.3,0c-0.1,0-0.2,0-0.2-0.1s-0.1,0-0.1-0.1c0,0,0-0.1,0-0.1v-4.7c0-0.3,0-0.6-0.1-0.9c-0.1-0.3-0.1-0.5-0.3-0.7
			c-0.1-0.2-0.3-0.3-0.5-0.4c-0.2-0.1-0.4-0.2-0.7-0.2c-0.3,0-0.6,0.1-1,0.4c-0.3,0.3-0.7,0.6-1.1,1.1v5.4c0,0,0,0.1,0,0.1
			c0,0-0.1,0.1-0.1,0.1s-0.1,0-0.2,0.1c-0.1,0-0.2,0-0.3,0c-0.1,0-0.2,0-0.3,0c-0.1,0-0.2,0-0.2-0.1s-0.1,0-0.1-0.1c0,0,0-0.1,0-0.1
			v-4.7c0-0.3,0-0.6-0.1-0.9c-0.1-0.3-0.2-0.5-0.3-0.7c-0.1-0.2-0.3-0.3-0.5-0.4c-0.2-0.1-0.4-0.2-0.7-0.2c-0.3,0-0.7,0.1-1,0.4
			c-0.3,0.3-0.7,0.6-1.1,1.1v5.4c0,0,0,0.1,0,0.1c0,0-0.1,0.1-0.1,0.1s-0.1,0-0.2,0.1c-0.1,0-0.2,0-0.3,0c-0.1,0-0.2,0-0.3,0
			c-0.1,0-0.2,0-0.2-0.1s-0.1,0-0.1-0.1c0,0,0-0.1,0-0.1v-7.7c0,0,0-0.1,0-0.1c0,0,0.1-0.1,0.1-0.1c0.1,0,0.1,0,0.2-0.1
			c0.1,0,0.2,0,0.3,0c0.1,0,0.2,0,0.3,0c0.1,0,0.1,0,0.2,0.1c0,0,0.1,0.1,0.1,0.1c0,0,0,0.1,0,0.1v1c0.4-0.5,0.9-0.8,1.3-1.1
			c0.4-0.2,0.8-0.3,1.2-0.3c0.3,0,0.6,0,0.9,0.1c0.3,0.1,0.5,0.2,0.7,0.3c0.2,0.1,0.4,0.3,0.5,0.5c0.1,0.2,0.2,0.4,0.3,0.6
			c0.3-0.3,0.5-0.5,0.7-0.7c0.2-0.2,0.5-0.3,0.7-0.5c0.2-0.1,0.4-0.2,0.6-0.3c0.2-0.1,0.4-0.1,0.6-0.1c0.5,0,0.9,0.1,1.2,0.3
			c0.3,0.2,0.6,0.4,0.8,0.7c0.2,0.3,0.4,0.6,0.4,1c0.1,0.4,0.1,0.8,0.1,1.2V313.9z"/>
		<path fill="#FFFFFF" d="M-1862.8,303.7c0,0.3-0.1,0.6-0.2,0.7c-0.1,0.1-0.4,0.2-0.7,0.2c-0.3,0-0.6-0.1-0.7-0.2
			c-0.1-0.1-0.2-0.3-0.2-0.7c0-0.3,0.1-0.6,0.2-0.7c0.1-0.1,0.4-0.2,0.7-0.2c0.3,0,0.6,0.1,0.7,0.2
			C-1862.8,303.1-1862.8,303.4-1862.8,303.7z M-1862.9,313.9c0,0,0,0.1,0,0.1c0,0-0.1,0.1-0.1,0.1s-0.1,0-0.2,0.1
			c-0.1,0-0.2,0-0.3,0c-0.1,0-0.2,0-0.3,0c-0.1,0-0.2,0-0.2-0.1s-0.1,0-0.1-0.1c0,0,0-0.1,0-0.1v-7.7c0,0,0-0.1,0-0.1
			c0,0,0.1-0.1,0.1-0.1c0.1,0,0.1,0,0.2-0.1c0.1,0,0.2,0,0.3,0c0.1,0,0.3,0,0.3,0c0.1,0,0.2,0,0.2,0.1c0.1,0,0.1,0.1,0.1,0.1
			c0,0,0,0.1,0,0.1V313.9z"/>
		<path fill="#FFFFFF" d="M-1858.9,313.9c0,0,0,0.1,0,0.1c0,0-0.1,0.1-0.1,0.1s-0.1,0-0.2,0.1c-0.1,0-0.2,0-0.3,0
			c-0.1,0-0.2,0-0.3,0c-0.1,0-0.2,0-0.2-0.1s-0.1,0-0.1-0.1c0,0,0-0.1,0-0.1v-11.4c0,0,0-0.1,0-0.1c0,0,0.1-0.1,0.1-0.1
			c0.1,0,0.1,0,0.2-0.1c0.1,0,0.2,0,0.3,0c0.1,0,0.3,0,0.3,0c0.1,0,0.2,0,0.2,0.1c0.1,0,0.1,0.1,0.1,0.1c0,0,0,0.1,0,0.1V313.9z"/>
		<path fill="#FFFFFF" d="M-1849.8,309.8c0,0.2-0.1,0.4-0.2,0.5c-0.1,0.1-0.2,0.1-0.4,0.1h-5.1c0,0.4,0,0.8,0.1,1.2
			c0.1,0.3,0.2,0.6,0.4,0.9c0.2,0.2,0.5,0.4,0.8,0.6c0.3,0.1,0.7,0.2,1.2,0.2c0.4,0,0.7,0,1-0.1c0.3-0.1,0.5-0.1,0.7-0.2
			c0.2-0.1,0.4-0.1,0.5-0.2c0.1-0.1,0.2-0.1,0.3-0.1c0,0,0.1,0,0.1,0c0,0,0.1,0,0.1,0.1c0,0,0,0.1,0,0.2s0,0.2,0,0.3
			c0,0.1,0,0.1,0,0.2c0,0.1,0,0.1,0,0.1s0,0.1,0,0.1c0,0,0,0.1-0.1,0.1c0,0-0.1,0.1-0.3,0.2c-0.2,0.1-0.4,0.1-0.6,0.2
			c-0.2,0.1-0.5,0.1-0.8,0.2c-0.3,0.1-0.7,0.1-1,0.1c-0.6,0-1.2-0.1-1.7-0.3s-0.9-0.4-1.2-0.8c-0.3-0.3-0.6-0.8-0.7-1.3
			c-0.2-0.5-0.2-1.1-0.2-1.8c0-0.7,0.1-1.3,0.3-1.8c0.2-0.5,0.4-1,0.7-1.3c0.3-0.4,0.7-0.6,1.2-0.8c0.5-0.2,1-0.3,1.5-0.3
			c0.6,0,1.1,0.1,1.5,0.3c0.4,0.2,0.8,0.5,1,0.8c0.3,0.3,0.5,0.7,0.6,1.2c0.1,0.4,0.2,0.9,0.2,1.4V309.8z M-1851.2,309.4
			c0-0.7-0.1-1.3-0.5-1.7c-0.3-0.4-0.9-0.6-1.5-0.6c-0.3,0-0.7,0.1-0.9,0.2c-0.3,0.1-0.5,0.3-0.7,0.5c-0.2,0.2-0.3,0.5-0.4,0.8
			c-0.1,0.3-0.2,0.6-0.2,0.9H-1851.2z"/>
		<path fill="#FFFFFF" d="M-1837.1,309.8c0,0.2-0.1,0.4-0.2,0.5c-0.1,0.1-0.2,0.1-0.4,0.1h-5.1c0,0.4,0,0.8,0.1,1.2
			c0.1,0.3,0.2,0.6,0.4,0.9c0.2,0.2,0.5,0.4,0.8,0.6c0.3,0.1,0.7,0.2,1.2,0.2c0.4,0,0.7,0,1-0.1c0.3-0.1,0.5-0.1,0.7-0.2
			c0.2-0.1,0.4-0.1,0.5-0.2c0.1-0.1,0.2-0.1,0.3-0.1c0,0,0.1,0,0.1,0c0,0,0.1,0,0.1,0.1s0,0.1,0,0.2c0,0.1,0,0.2,0,0.3
			c0,0.1,0,0.1,0,0.2c0,0.1,0,0.1,0,0.1s0,0.1,0,0.1c0,0,0,0.1-0.1,0.1c0,0-0.1,0.1-0.3,0.2c-0.2,0.1-0.4,0.1-0.6,0.2
			c-0.2,0.1-0.5,0.1-0.8,0.2c-0.3,0.1-0.7,0.1-1,0.1c-0.6,0-1.2-0.1-1.7-0.3c-0.5-0.2-0.9-0.4-1.2-0.8c-0.3-0.3-0.6-0.8-0.7-1.3
			c-0.2-0.5-0.2-1.1-0.2-1.8c0-0.7,0.1-1.3,0.3-1.8c0.2-0.5,0.4-1,0.7-1.3c0.3-0.4,0.7-0.6,1.2-0.8c0.5-0.2,1-0.3,1.5-0.3
			c0.6,0,1.1,0.1,1.5,0.3c0.4,0.2,0.8,0.5,1,0.8c0.3,0.3,0.5,0.7,0.6,1.2c0.1,0.4,0.2,0.9,0.2,1.4V309.8z M-1838.5,309.4
			c0-0.7-0.1-1.3-0.5-1.7c-0.3-0.4-0.9-0.6-1.5-0.6c-0.3,0-0.7,0.1-0.9,0.2c-0.3,0.1-0.5,0.3-0.7,0.5c-0.2,0.2-0.3,0.5-0.4,0.8
			c-0.1,0.3-0.2,0.6-0.2,0.9H-1838.5z"/>
		<path fill="#FFFFFF" d="M-1828.8,306.3C-1828.8,306.3-1828.8,306.3-1828.8,306.3c0,0.1,0,0.1,0,0.2c0,0,0,0.1,0,0.1
			c0,0,0,0.1,0,0.1l-2.6,7.3c0,0.1-0.1,0.1-0.1,0.2s-0.1,0.1-0.2,0.1c-0.1,0-0.2,0-0.3,0c-0.1,0-0.3,0-0.4,0c-0.2,0-0.3,0-0.4,0
			c-0.1,0-0.2,0-0.3-0.1c-0.1,0-0.1-0.1-0.2-0.1c0,0-0.1-0.1-0.1-0.1l-2.6-7.3c0-0.1,0-0.1-0.1-0.2c0-0.1,0-0.1,0-0.1c0,0,0,0,0-0.1
			c0,0,0-0.1,0-0.1c0,0,0.1-0.1,0.1-0.1c0.1,0,0.1,0,0.2,0c0.1,0,0.2,0,0.3,0c0.2,0,0.3,0,0.4,0c0.1,0,0.2,0,0.2,0
			c0.1,0,0.1,0.1,0.1,0.1c0,0,0.1,0.1,0.1,0.1l2.2,6.3l0,0.1l0-0.1l2.1-6.3c0-0.1,0-0.1,0.1-0.1c0,0,0.1-0.1,0.1-0.1
			c0.1,0,0.1,0,0.2,0c0.1,0,0.2,0,0.4,0c0.1,0,0.2,0,0.3,0c0.1,0,0.2,0,0.2,0c0,0,0.1,0,0.1,0.1
			C-1828.8,306.2-1828.8,306.2-1828.8,306.3z"/>
		<path fill="#FFFFFF" d="M-1820.8,309.8c0,0.2-0.1,0.4-0.2,0.5c-0.1,0.1-0.2,0.1-0.4,0.1h-5.1c0,0.4,0,0.8,0.1,1.2
			c0.1,0.3,0.2,0.6,0.4,0.9c0.2,0.2,0.5,0.4,0.8,0.6c0.3,0.1,0.7,0.2,1.2,0.2c0.4,0,0.7,0,1-0.1c0.3-0.1,0.5-0.1,0.7-0.2
			c0.2-0.1,0.4-0.1,0.5-0.2c0.1-0.1,0.2-0.1,0.3-0.1c0,0,0.1,0,0.1,0c0,0,0.1,0,0.1,0.1c0,0,0,0.1,0,0.2c0,0.1,0,0.2,0,0.3
			c0,0.1,0,0.1,0,0.2c0,0.1,0,0.1,0,0.1s0,0.1,0,0.1c0,0,0,0.1-0.1,0.1c0,0-0.1,0.1-0.3,0.2c-0.2,0.1-0.4,0.1-0.6,0.2
			c-0.2,0.1-0.5,0.1-0.8,0.2c-0.3,0.1-0.7,0.1-1,0.1c-0.6,0-1.2-0.1-1.7-0.3s-0.9-0.4-1.2-0.8c-0.3-0.3-0.6-0.8-0.7-1.3
			c-0.2-0.5-0.2-1.1-0.2-1.8c0-0.7,0.1-1.3,0.3-1.8c0.2-0.5,0.4-1,0.7-1.3c0.3-0.4,0.7-0.6,1.2-0.8c0.5-0.2,1-0.3,1.5-0.3
			c0.6,0,1.1,0.1,1.5,0.3c0.4,0.2,0.8,0.5,1,0.8c0.3,0.3,0.5,0.7,0.6,1.2c0.1,0.4,0.2,0.9,0.2,1.4V309.8z M-1822.2,309.4
			c0-0.7-0.1-1.3-0.5-1.7c-0.3-0.4-0.9-0.6-1.5-0.6c-0.3,0-0.7,0.1-0.9,0.2c-0.3,0.1-0.5,0.3-0.7,0.5c-0.2,0.2-0.3,0.5-0.4,0.8
			c-0.1,0.3-0.2,0.6-0.2,0.9H-1822.2z"/>
		<path fill="#FFFFFF" d="M-1814.2,306.8c0,0.1,0,0.2,0,0.3c0,0.1,0,0.2,0,0.2c0,0,0,0.1-0.1,0.1c0,0-0.1,0-0.1,0s-0.1,0-0.2,0
			c-0.1,0-0.1-0.1-0.2-0.1c-0.1,0-0.2,0-0.3-0.1c-0.1,0-0.2,0-0.3,0c-0.1,0-0.3,0-0.4,0.1c-0.1,0.1-0.3,0.2-0.4,0.3
			c-0.2,0.1-0.3,0.3-0.5,0.5c-0.2,0.2-0.3,0.5-0.5,0.8v5c0,0,0,0.1,0,0.1c0,0-0.1,0.1-0.1,0.1s-0.1,0-0.2,0.1c-0.1,0-0.2,0-0.3,0
			c-0.1,0-0.2,0-0.3,0c-0.1,0-0.2,0-0.2-0.1s-0.1,0-0.1-0.1c0,0,0-0.1,0-0.1v-7.7c0,0,0-0.1,0-0.1c0,0,0.1-0.1,0.1-0.1
			c0.1,0,0.1,0,0.2-0.1c0.1,0,0.2,0,0.3,0c0.1,0,0.2,0,0.3,0c0.1,0,0.1,0,0.2,0.1c0,0,0.1,0.1,0.1,0.1c0,0,0,0.1,0,0.1v1.1
			c0.2-0.3,0.4-0.6,0.6-0.8c0.2-0.2,0.4-0.3,0.5-0.5c0.2-0.1,0.3-0.2,0.5-0.2c0.2,0,0.3-0.1,0.5-0.1c0.1,0,0.2,0,0.3,0
			c0.1,0,0.2,0,0.3,0c0.1,0,0.2,0,0.3,0.1c0.1,0,0.1,0.1,0.2,0.1c0,0,0.1,0.1,0.1,0.1c0,0,0,0.1,0,0.1s0,0.1,0,0.2
			C-1814.2,306.5-1814.2,306.6-1814.2,306.8z"/>
		<path fill="#FFFFFF" d="M-1809,314.2l-1,2.8c0,0.1-0.1,0.2-0.3,0.2c-0.1,0-0.4,0.1-0.6,0.1c-0.1,0-0.3,0-0.4,0
			c-0.1,0-0.2,0-0.2-0.1c0,0-0.1-0.1-0.1-0.1c0-0.1,0-0.1,0-0.2l1.1-2.7c-0.1,0-0.1-0.1-0.1-0.1c0-0.1-0.1-0.1-0.1-0.2l-2.7-7.3
			c0-0.1-0.1-0.2-0.1-0.3c0-0.1,0-0.1,0.1-0.2c0,0,0.1-0.1,0.2-0.1c0.1,0,0.2,0,0.4,0c0.2,0,0.3,0,0.4,0c0.1,0,0.2,0,0.2,0
			c0.1,0,0.1,0.1,0.1,0.1c0,0,0.1,0.1,0.1,0.2l2.2,6.2h0l2.1-6.2c0-0.1,0.1-0.2,0.1-0.2c0,0,0.1-0.1,0.2-0.1c0.1,0,0.2,0,0.4,0
			c0.2,0,0.3,0,0.4,0c0.1,0,0.2,0,0.2,0.1c0,0,0.1,0.1,0.1,0.2c0,0.1,0,0.2-0.1,0.3L-1809,314.2z"/>
		<path fill="#FFFFFF" d="M-1797.5,310c0,0.7-0.1,1.3-0.2,1.8c-0.1,0.5-0.4,1-0.6,1.4c-0.3,0.4-0.6,0.7-1,0.9
			c-0.4,0.2-0.9,0.3-1.4,0.3c-0.2,0-0.5,0-0.7-0.1c-0.2,0-0.4-0.1-0.6-0.2c-0.2-0.1-0.4-0.2-0.6-0.4c-0.2-0.2-0.4-0.4-0.6-0.6v0.9
			c0,0,0,0.1,0,0.1c0,0-0.1,0.1-0.1,0.1c-0.1,0-0.1,0-0.2,0c-0.1,0-0.2,0-0.3,0c-0.1,0-0.2,0-0.3,0c-0.1,0-0.1,0-0.2,0
			c-0.1,0-0.1,0-0.1-0.1c0,0,0-0.1,0-0.1v-11.4c0,0,0-0.1,0-0.1c0,0,0.1-0.1,0.1-0.1c0.1,0,0.1,0,0.2-0.1c0.1,0,0.2,0,0.3,0
			c0.1,0,0.3,0,0.3,0c0.1,0,0.2,0,0.2,0.1c0.1,0,0.1,0.1,0.1,0.1c0,0,0,0.1,0,0.1v4.6c0.2-0.2,0.4-0.4,0.7-0.6
			c0.2-0.2,0.4-0.3,0.6-0.4c0.2-0.1,0.4-0.2,0.6-0.2c0.2,0,0.4-0.1,0.6-0.1c0.6,0,1,0.1,1.4,0.3c0.4,0.2,0.7,0.5,1,0.9
			c0.2,0.4,0.4,0.8,0.5,1.3C-1797.6,308.9-1797.5,309.5-1797.5,310z M-1799,310.2c0-0.4,0-0.8-0.1-1.1c-0.1-0.4-0.2-0.7-0.3-1
			c-0.1-0.3-0.3-0.5-0.6-0.7c-0.2-0.2-0.6-0.3-0.9-0.3c-0.2,0-0.4,0-0.5,0.1c-0.2,0.1-0.4,0.1-0.5,0.3c-0.2,0.1-0.4,0.3-0.6,0.5
			c-0.2,0.2-0.4,0.4-0.6,0.7v3.1c0.4,0.5,0.8,0.8,1.1,1.1c0.4,0.2,0.7,0.4,1.1,0.4c0.4,0,0.7-0.1,0.9-0.3c0.3-0.2,0.5-0.4,0.6-0.7
			c0.2-0.3,0.3-0.6,0.3-0.9C-1799,310.9-1799,310.5-1799,310.2z"/>
		<path fill="#FFFFFF" d="M-1788.3,310c0,0.6-0.1,1.2-0.2,1.7c-0.2,0.5-0.4,1-0.7,1.4c-0.3,0.4-0.7,0.7-1.2,0.9
			c-0.5,0.2-1.1,0.3-1.7,0.3c-0.6,0-1.2-0.1-1.6-0.3c-0.5-0.2-0.9-0.5-1.2-0.8c-0.3-0.4-0.5-0.8-0.7-1.3c-0.2-0.5-0.2-1.1-0.2-1.7
			c0-0.6,0.1-1.2,0.2-1.7c0.2-0.5,0.4-1,0.7-1.4c0.3-0.4,0.7-0.7,1.2-0.9c0.5-0.2,1.1-0.3,1.7-0.3c0.6,0,1.2,0.1,1.6,0.3
			c0.5,0.2,0.9,0.5,1.2,0.8c0.3,0.4,0.5,0.8,0.7,1.3C-1788.4,308.8-1788.3,309.4-1788.3,310z M-1789.7,310.1c0-0.4,0-0.8-0.1-1.2
			c-0.1-0.4-0.2-0.7-0.4-1c-0.2-0.3-0.4-0.5-0.7-0.7c-0.3-0.2-0.7-0.2-1.1-0.2c-0.4,0-0.8,0.1-1.1,0.2c-0.3,0.1-0.5,0.4-0.7,0.6
			c-0.2,0.3-0.3,0.6-0.4,1c-0.1,0.4-0.1,0.8-0.1,1.2c0,0.4,0,0.8,0.1,1.2c0.1,0.4,0.2,0.7,0.4,1c0.2,0.3,0.4,0.5,0.7,0.7
			c0.3,0.2,0.7,0.2,1.1,0.2c0.4,0,0.8-0.1,1.1-0.2c0.3-0.1,0.6-0.4,0.7-0.6c0.2-0.3,0.3-0.6,0.4-1
			C-1789.8,311-1789.7,310.6-1789.7,310.1z"/>
		<path fill="#FFFFFF" d="M-1779.6,313.9c0,0,0,0.1,0,0.1c0,0-0.1,0.1-0.1,0.1c0,0-0.1,0-0.2,0c-0.1,0-0.2,0-0.3,0
			c-0.1,0-0.2,0-0.3,0c-0.1,0-0.1,0-0.2,0c-0.1,0-0.1,0-0.1-0.1c0,0,0-0.1,0-0.1v-1c-0.4,0.4-0.8,0.8-1.3,1
			c-0.4,0.2-0.9,0.4-1.4,0.4c-0.6,0-1-0.1-1.4-0.3c-0.4-0.2-0.7-0.5-1-0.9c-0.2-0.4-0.4-0.8-0.5-1.3c-0.1-0.5-0.2-1-0.2-1.6
			c0-0.7,0.1-1.3,0.2-1.8c0.1-0.5,0.4-1,0.6-1.4c0.3-0.4,0.6-0.7,1-0.9c0.4-0.2,0.9-0.3,1.4-0.3c0.4,0,0.9,0.1,1.2,0.3
			c0.4,0.2,0.7,0.5,1.1,0.9v-4.5c0,0,0-0.1,0-0.1c0,0,0.1-0.1,0.1-0.1c0.1,0,0.1,0,0.2-0.1c0.1,0,0.2,0,0.3,0c0.1,0,0.3,0,0.3,0
			c0.1,0,0.2,0,0.2,0.1c0.1,0,0.1,0,0.1,0.1c0,0,0,0.1,0,0.1V313.9z M-1781,308.6c-0.4-0.5-0.7-0.8-1.1-1.1
			c-0.4-0.2-0.7-0.4-1.1-0.4c-0.4,0-0.7,0.1-0.9,0.3c-0.2,0.2-0.5,0.4-0.6,0.7s-0.3,0.6-0.3,0.9c-0.1,0.4-0.1,0.7-0.1,1.1
			c0,0.4,0,0.8,0.1,1.1c0.1,0.4,0.2,0.7,0.3,1c0.1,0.3,0.3,0.5,0.6,0.7c0.2,0.2,0.6,0.3,0.9,0.3c0.2,0,0.4,0,0.5-0.1
			c0.2-0.1,0.3-0.1,0.5-0.3c0.2-0.1,0.4-0.3,0.6-0.5c0.2-0.2,0.4-0.4,0.6-0.7V308.6z"/>
		<path fill="#FFFFFF" d="M-1773.5,314.2l-1,2.8c0,0.1-0.1,0.2-0.3,0.2c-0.1,0-0.4,0.1-0.6,0.1c-0.1,0-0.3,0-0.4,0
			c-0.1,0-0.2,0-0.2-0.1c0,0-0.1-0.1-0.1-0.1c0-0.1,0-0.1,0-0.2l1.1-2.7c-0.1,0-0.1-0.1-0.1-0.1c0-0.1-0.1-0.1-0.1-0.2l-2.7-7.3
			c0-0.1-0.1-0.2-0.1-0.3c0-0.1,0-0.1,0.1-0.2c0,0,0.1-0.1,0.2-0.1c0.1,0,0.2,0,0.4,0c0.2,0,0.3,0,0.4,0c0.1,0,0.2,0,0.2,0
			c0.1,0,0.1,0.1,0.1,0.1c0,0,0.1,0.1,0.1,0.2l2.2,6.2h0l2.1-6.2c0-0.1,0.1-0.2,0.1-0.2c0,0,0.1-0.1,0.2-0.1s0.2,0,0.4,0
			c0.2,0,0.3,0,0.4,0c0.1,0,0.2,0,0.2,0.1c0,0,0.1,0.1,0.1,0.2c0,0.1,0,0.2-0.1,0.3L-1773.5,314.2z"/>
	</g>
</g>
<text transform="matrix(1 0 0 1 -2222.5212 -256.8731)" font-family="'Calibri'" font-size="48.4464px">Color Code : 15a6b1</text>
<text transform="matrix(1 0 0 1 -1531.4498 -274.8731)" font-family="'Calibri'" font-size="48.4464px">Gradient Color Code : cd6632 &amp; ea897a</text>
<rect x="-885.1" y="-233.8" fill-rule="evenodd" fill="#CE6631" width="43.7" height="43.7"/>
<rect x="-819.5" y="-233.8" fill-rule="evenodd" fill="#EA897A" width="43.7" height="43.7"/>
<rect x="-954.5" y="-233.8" fill-rule="evenodd" fill="#15A6B1" width="43.7" height="43.7"/>
<text transform="matrix(1 0 0 1 -1066.2356 -104.5815)" font-family="'NirmalaUI'" font-size="16.1637px">TM</text>
<g>
	<path fill="#13A7B1" d="M-1339.2,523.5v0.2C-1339.2,523.7-1339.2,523.6-1339.2,523.5L-1339.2,523.5z"/>
	<path fill="#13A7B1" d="M-1433.9,600.1c-42,0-76.2-34.2-76.2-76.2c0-18.8,6.8-36,18.1-49.3c-0.5-0.2-0.9-0.6-1.2-1.1
		c-11.6,13.6-18.6,31.2-18.6,50.4c0,42.9,34.9,77.8,77.8,77.8c9.1,0,18-1.6,26.4-4.6v-1.7C-1415.9,598.5-1424.8,600.1-1433.9,600.1z
		"/>
	<path fill="#13A7B1" d="M-1380.8,466.9c-14.5-13.5-33.3-20.9-53.1-20.9c-19.2,0-36.8,7-50.4,18.5c0.1,0.1,0.2,0.2,0.3,0.4
		c0,0,0,0,0.1,0.1c0.3,0.2,0.5,0.5,0.7,0.9c13.3-11.3,30.5-18.2,49.3-18.2c36.3,0,67.3,25.9,74.6,60.6c0.5-0.3,1-0.4,1.6-0.4
		C-1360.9,492.2-1368.9,478-1380.8,466.9z"/>
	<path fill="#13A7B1" d="M-1365.9,518.7c-1-0.3-2-0.5-3-0.6c-0.5-0.1-0.9-0.1-1.4-0.1h-1.9h-2l-26.9,0.1v12.3l6.5,0
		c0.2,0,0.4,0.2,0.3,0.5c-2,3.6-3.2,7.7-3.2,12.2c0,0.1,0,0.1,0,0.2V582v15.3v14.7l14.9-8.5l0.4-20.2l0.2-14.8l0-0.6
		c0-0.7,0.6-1.2,1.3-1c0,0,0.1,0,0.1,0c2.3,0.8,4.8,1.3,7.3,1.4c0.4,0,0.7,0,1.1,0c14,0,25.3-11.3,25.3-25.3
		C-1347,531.4-1355,521.5-1365.9,518.7z M-1369.2,555c-1.2,0.4-2.5,0.6-3.8,0.6c-0.2,0-0.3,0-0.4,0c-4.9-0.2-9.1-3.2-11-7.4
		c-0.6-1.3-0.9-2.6-1.1-4.1c0-0.4-0.1-0.7-0.1-1.1c0-6.9,5.6-12.6,12.6-12.6c0,0,0,0,0,0s0,0,0,0c1.5,0,2.9,0.3,4.3,0.8
		c0.9,0.3,1.7,0.7,2.4,1.2c3.5,2.2,5.9,6.2,5.9,10.6C-1360.4,548.6-1364.1,553.4-1369.2,555z"/>
	<path fill="#13A7B1" d="M-1372.9,533.9c-5,0-9.1,4.1-9.1,9.1c0,5,4.1,9.1,9.1,9.1s9.1-4.1,9.1-9.1
		C-1363.7,538-1367.8,533.9-1372.9,533.9z M-1372.9,550.7c-4.2,0-7.6-3.4-7.6-7.6c0-4.2,3.4-7.6,7.6-7.6c4.2,0,7.6,3.4,7.6,7.6
		C-1365.3,547.3-1368.7,550.7-1372.9,550.7z"/>
	<text transform="matrix(1 0 0 1 -1232.9392 590.9965)" fill="#13A7B1" font-family="'Calibri-Bold'" font-size="17.1261px">smile everybody</text>
	<path fill="#13A7B1" d="M-1400.1,543c0-3.5,0.7-6.9,2-10.1l-3.1,0v5.4c0,6-1.4,11.3-4.3,16c-2.9,4.7-6.8,8.4-11.8,11
		c-5,2.6-10.6,3.9-16.8,3.9c-6.2,0-11.7-1.3-16.7-3.9s-8.9-6.3-11.7-11c-2.8-4.7-4.2-10.1-4.2-16v-36.9c0-0.5,0.2-1,0.5-1.3
		c0.5-0.5,1.2-0.5,1.3-0.5c0.1,0,6.7,0,6.7,0c0.1,0,8.6,0,8.7,0v38.3c0,5.2,1.4,9.2,4.1,12.1c2.7,2.9,6.5,4.3,11.2,4.3
		c4.8,0,8.5-1.4,11.3-4.3c2.8-2.9,4.2-6.9,4.2-12.1v-38.3h15.7c1,0,1.8,0.8,1.8,1.8v14.2l26.9-0.1h4l0.1,0c0.5,0,1,0.1,1.5,0.2
		c1.1,0.1,2.1,0.4,3.2,0.6c-3.8-34.5-33-61.3-68.5-61.3c-39.1,0-70.7,32.6-68.9,72.1c1.6,35.4,30.4,64.1,65.8,65.7
		c13.5,0.6,26.1-2.7,36.9-8.8v-40.9L-1400.1,543z M-1410.2,480.6c3.8,0,6.8,3,6.8,6.8c0,3.8-3,6.8-6.8,6.8c-3.8,0-6.8-3-6.8-6.8
		C-1417,483.7-1413.9,480.6-1410.2,480.6z M-1457.4,480.6c3.8,0,6.8,3,6.8,6.8c0,3.8-3,6.8-6.8,6.8c-3.8,0-6.8-3-6.8-6.8
		C-1464.2,483.7-1461.1,480.6-1457.4,480.6z"/>
	<circle fill="#13A7B1" cx="-1488.5" cy="469.6" r="4.1"/>
	<g>
		<g>
			<path fill-rule="evenodd" fill="#13A7B1" d="M-1292,566.8c0.5,0.2,1.1,0.3,1.9,0.4c0.8,0.1,1.8,0.1,3,0.1c1.2,0,2.2,0,3-0.1
				c0.8-0.1,1.4-0.2,1.9-0.4c0.5-0.2,0.8-0.4,1-0.6c0.2-0.2,0.3-0.5,0.3-0.9v-27.6c0.9-1.5,1.8-2.7,2.6-3.7c0.8-1,1.6-1.8,2.3-2.4
				c0.7-0.6,1.5-1,2.2-1.3c0.7-0.3,1.4-0.4,2.1-0.4c0.6,0,1.1,0.1,1.6,0.2c0.5,0.1,1,0.2,1.4,0.4c0.4,0.1,0.8,0.3,1.1,0.4
				c0.3,0.1,0.6,0.2,0.9,0.2c0.3,0,0.6-0.1,0.8-0.2c0.2-0.2,0.4-0.5,0.5-0.9c0.1-0.4,0.2-1,0.3-1.8c0.1-0.8,0.1-1.7,0.1-2.9
				c0-1.2,0-2.1-0.1-2.8c0-0.7-0.1-1.2-0.1-1.6c-0.1-0.3-0.1-0.6-0.2-0.8c-0.1-0.2-0.2-0.4-0.4-0.5c-0.2-0.2-0.5-0.3-0.9-0.5
				c-0.4-0.1-0.9-0.3-1.4-0.4c-0.5-0.1-1-0.2-1.5-0.2c-0.5,0-1-0.1-1.4-0.1c-0.9,0-1.9,0.1-2.8,0.4c-0.9,0.2-1.9,0.7-2.8,1.3
				c-0.9,0.6-1.9,1.5-2.9,2.6c-1,1.1-2.1,2.4-3.3,4.1V521c0-0.3-0.1-0.6-0.2-0.9c-0.2-0.2-0.4-0.5-0.8-0.6c-0.4-0.2-0.9-0.3-1.6-0.4
				c-0.7-0.1-1.6-0.1-2.6-0.1c-1,0-1.9,0-2.6,0.1c-0.7,0.1-1.2,0.2-1.7,0.4c-0.4,0.2-0.7,0.4-0.9,0.6c-0.2,0.2-0.2,0.5-0.2,0.9v44.3
				c0,0.3,0.1,0.6,0.3,0.9C-1292.8,566.4-1292.5,566.6-1292,566.8z"/>
			<path fill-rule="evenodd" fill="#13A7B1" d="M-1226.7,557.9c-0.2-0.4-0.4-0.6-0.7-0.7c-0.3-0.1-0.5-0.2-0.8-0.2h-17.5l16.5-25.6
				c0.3-0.5,0.6-1,0.9-1.5c0.2-0.5,0.4-0.9,0.6-1.4c0.1-0.5,0.2-1,0.3-1.5c0.1-0.5,0.1-1.1,0.1-1.8v-2.4c0-0.7-0.1-1.3-0.2-1.7
				c-0.1-0.5-0.3-0.8-0.5-1.1c-0.2-0.3-0.5-0.4-0.8-0.5c-0.3-0.1-0.7-0.1-1.2-0.1h-27.1c-0.4,0-0.7,0.1-0.9,0.2
				c-0.3,0.2-0.5,0.4-0.6,0.8c-0.2,0.4-0.3,0.9-0.4,1.5c-0.1,0.6-0.1,1.4-0.1,2.4c0,1.8,0.2,3,0.6,3.8c0.4,0.8,0.9,1.2,1.5,1.2h15.7
				l-16.6,25.6c-0.4,0.6-0.7,1.1-1,1.5c-0.2,0.5-0.4,0.9-0.6,1.4c-0.1,0.4-0.2,0.9-0.3,1.4c0,0.5-0.1,1-0.1,1.6v2.3
				c0,1.4,0.2,2.3,0.7,2.9c0.5,0.6,1.2,0.9,2.1,0.9h29c0.3,0,0.6-0.1,0.9-0.2c0.3-0.1,0.5-0.4,0.6-0.8s0.3-0.9,0.4-1.6
				c0.1-0.7,0.1-1.5,0.1-2.5c0-1-0.1-1.8-0.1-2.5C-1226.4,558.8-1226.6,558.2-1226.7,557.9z"/>
			<path fill-rule="evenodd" fill="#13A7B1" d="M-1179.3,524.5c-1.9-2.1-4.3-3.7-7.2-4.7c-2.9-1.1-6.4-1.6-10.3-1.6
				c-4.1,0-7.6,0.6-10.7,1.8c-3,1.2-5.6,3-7.6,5.2c-2,2.2-3.5,4.9-4.5,8c-1,3.1-1.5,6.6-1.5,10.4c0,3.9,0.5,7.4,1.4,10.4
				c0.9,3,2.4,5.6,4.3,7.7c1.9,2.1,4.3,3.7,7.3,4.8c2.9,1.1,6.3,1.6,10.3,1.6c4.1,0,7.6-0.6,10.7-1.8c3-1.2,5.6-3,7.6-5.2
				c2-2.3,3.5-4.9,4.5-8c1-3.1,1.5-6.6,1.5-10.3c0-3.9-0.5-7.4-1.4-10.5C-1176,529.2-1177.4,526.6-1179.3,524.5z M-1187.2,549.5
				c-0.4,1.8-1.1,3.4-2,4.7c-0.9,1.3-2,2.3-3.4,3c-1.4,0.7-3,1-4.9,1c-2.1,0-3.8-0.4-5.2-1.1c-1.4-0.7-2.5-1.8-3.3-3.2
				c-0.8-1.4-1.4-3-1.8-4.8c-0.4-1.8-0.5-3.8-0.5-6c0-2.4,0.2-4.4,0.7-6.3c0.4-1.8,1.1-3.4,2-4.7c0.9-1.3,2-2.3,3.4-3
				c1.4-0.7,3-1,4.9-1c2.1,0,3.8,0.4,5.2,1.1c1.4,0.8,2.5,1.8,3.3,3.2c0.8,1.4,1.4,3,1.8,4.8c0.3,1.8,0.5,3.8,0.5,6
				C-1186.5,545.5-1186.7,547.6-1187.2,549.5z"/>
			<path fill-rule="evenodd" fill="#13A7B1" d="M-1122.3,529.7c-0.6-2.3-1.5-4.3-2.8-6c-1.3-1.7-2.9-3.1-5-4c-2.1-1-4.6-1.5-7.6-1.5
				c-2.7,0-5.4,0.7-7.9,2c-2.5,1.3-5,3.3-7.5,6V521c0-0.3-0.1-0.6-0.2-0.9c-0.2-0.2-0.4-0.5-0.8-0.6c-0.4-0.2-0.9-0.3-1.6-0.4
				c-0.7-0.1-1.6-0.1-2.6-0.1c-1,0-1.9,0-2.6,0.1c-0.7,0.1-1.2,0.2-1.7,0.4c-0.4,0.2-0.7,0.4-0.9,0.6c-0.2,0.2-0.2,0.5-0.2,0.9v44.3
				c0,0.3,0.1,0.6,0.3,0.9c0.2,0.2,0.5,0.5,1,0.6c0.5,0.2,1.1,0.3,1.9,0.4c0.8,0.1,1.8,0.1,3,0.1c1.2,0,2.2,0,3-0.1
				c0.8-0.1,1.4-0.2,1.9-0.4c0.5-0.2,0.8-0.4,1-0.6c0.2-0.2,0.3-0.5,0.3-0.9v-29.5c1.8-2.2,3.4-3.9,5.1-5.1c1.6-1.2,3.2-1.7,4.8-1.7
				c1.3,0,2.4,0.2,3.3,0.7c0.9,0.5,1.7,1.2,2.3,2c0.6,0.9,1.1,1.9,1.4,3.2c0.3,1.2,0.5,2.9,0.5,5.1v25.3c0,0.3,0.1,0.6,0.3,0.9
				c0.2,0.2,0.5,0.5,1,0.6c0.5,0.2,1.1,0.3,1.9,0.4c0.8,0.1,1.8,0.1,3.1,0.1c1.2,0,2.2,0,3-0.1c0.8-0.1,1.4-0.2,1.9-0.4
				c0.5-0.2,0.8-0.4,1-0.6c0.2-0.2,0.3-0.5,0.3-0.9v-27.4C-1121.5,534.7-1121.7,532-1122.3,529.7z"/>
			<path fill-rule="evenodd" fill="#13A7B1" d="M-1270.4,579.8c-11.6,0-18.2-3-20.4-4.3c-5.4-3-8.5-6.8-9.3-7.8c0,0-0.1-0.1-0.1-0.1
				c-3.6-4.6-5.6-10.4-5.7-16.2c-0.2-6.8-0.3-13.6-0.5-20.5c-0.1-3.1-1.3-6.2-3.6-8.4c-0.1-0.1-0.2-0.2-0.3-0.3
				c-0.8-0.7-1.4-1.1-1.6-1.3c-1.5-1-3-1.5-4.5-1.9c-2.5-0.7-5.4-1-8.9-1c-2,0-3.8,0.2-5.7,0.5c-1.8,0.3-3.5,0.7-5.1,1.2
				c-1.6,0.5-2.9,1-4.1,1.6c-1.2,0.6-2,1.1-2.4,1.6c-0.5,0.5-0.8,1-0.9,1.6c-0.2,0.6-0.2,1.4-0.2,2.4c0,0.8,0,1.5,0.1,2.1
				c0.1,0.6,0.2,1.2,0.4,1.6c0.2,0.4,0.4,0.8,0.7,1c0.3,0.2,0.6,0.3,1,0.3c0.5,0,1.2-0.2,2.1-0.7c0.8-0.5,1.9-1,3.2-1.5
				c1.3-0.6,2.7-1.1,4.3-1.5c1.6-0.5,3.5-0.7,5.6-0.7c1.6,0,2.9,0.2,4,0.5c1.1,0.3,1.9,0.8,2.6,1.5c0.6,0.7,1.1,1.6,1.4,2.6
				c0.3,1,0.4,2.3,0.4,3.7v2.7h-4.3c-3.9,0-7.4,0.3-10.4,0.9c-3,0.6-5.5,1.5-7.5,2.8c-2,1.2-3.5,2.8-4.5,4.7c-1,1.9-1.5,4.1-1.5,6.7
				c0,2.4,0.4,4.5,1.2,6.3c0.8,1.8,1.9,3.3,3.4,4.5c1.4,1.2,3.1,2.1,5.1,2.7c2,0.6,4.1,0.9,6.5,0.9c2.8,0,5.4-0.5,7.8-1.6
				c0.2-0.1,0.9-0.4,1.7-0.9c2.3-1.4,3.9-2.9,4.9-4c0.4,1.1,1.1,2.8,2.2,4.6c6.2,11.2,16.8,16.2,20.8,17.8
				c1.9,0.8,10.9,4.2,22.7,2.6c16.5-2.2,28.1-12.8,27.5-13.9C-1243.1,571.7-1253.8,579.8-1270.4,579.8z M-1318.1,554
				c-1.5,1.7-3,3-4.5,3.9c-1.5,0.9-3.1,1.3-4.8,1.3c-2.1,0-3.7-0.5-4.9-1.6c-1.2-1.1-1.8-2.5-1.8-4.4c0-1.1,0.2-2.1,0.6-2.9
				c0.4-0.8,1.1-1.6,2-2.2c0.9-0.6,2.1-1,3.5-1.3c1.4-0.3,3.1-0.4,5.2-0.4h4.8V554z"/>
		</g>
		<path id="XMLID_2_" fill-rule="evenodd" fill="#13A7B1" d="M-1242,571.7c-0.9-0.9-5.1,0-7,0.4c-0.6,0.1-0.7-0.4-0.2-0.8
			c3.2-2.7,8.9-2.6,9.6-1.8c0.7,0.8,0.4,6.5-2.5,9.5c-0.5,0.5-0.9,0.3-0.8-0.3C-1242.4,576.8-1241.1,572.6-1242,571.7"/>
	</g>
</g>
<text transform="matrix(1 0 0 1 -1117.2057 566.9742)" fill="#13A7B1" font-family="'Calibri-Bold'" font-size="100.5365px">Store</text>
<g>
	<g>
		<path fill="#FFFFFF" d="M242,127.1v0.2C242,127.3,242,127.2,242,127.1L242,127.1z"/>
		<path fill="#FFFFFF" d="M127.3,219.8c-50.9,0-92.3-41.4-92.3-92.3c0-22.7,8.3-43.6,22-59.7c-0.6-0.3-1.1-0.8-1.4-1.4
			c-14,16.5-22.5,37.8-22.5,61c0,52,42.3,94.2,94.2,94.2c11,0,21.7-1.9,31.9-5.6v-2.1C149.1,217.9,138.3,219.8,127.3,219.8z"/>
		<path fill="#FFFFFF" d="M191.6,58.6c-17.5-16.3-40.3-25.3-64.2-25.3c-23.2,0-44.5,8.5-61,22.4c0.1,0.1,0.2,0.3,0.3,0.4
			c0,0,0,0,0.1,0.1c0.4,0.3,0.6,0.6,0.8,1c16.1-13.7,37-22,59.7-22c43.9,0,81.5,31.4,90.3,73.3c0.6-0.3,1.2-0.5,1.9-0.5
			C215.6,89.2,205.9,72,191.6,58.6z"/>
		<path fill="#FFFFFF" d="M209.6,121.3c-1.2-0.3-2.4-0.6-3.7-0.7c-0.6-0.1-1.1-0.1-1.7-0.2H202h-2.5l-32.6,0.1v14.9l7.9,0
			c0.3,0,0.5,0.3,0.3,0.5c-2.4,4.4-3.8,9.4-3.9,14.7c0,0.1,0,0.1,0,0.2v47v18.5v17.7l18-10.2l0.4-24.4l0.3-17.9l0-0.7
			c0-0.8,0.8-1.4,1.6-1.2c0,0,0.1,0,0.1,0c2.8,1,5.8,1.6,8.9,1.7c0.4,0,0.9,0,1.3,0c16.9,0,30.6-13.7,30.6-30.6
			C232.4,136.6,222.7,124.7,209.6,121.3z M205.6,165.2c-1.5,0.5-3,0.7-4.6,0.7c-0.2,0-0.4,0-0.5,0c-5.9-0.2-11-3.8-13.3-8.9
			c-0.7-1.5-1.1-3.2-1.3-4.9c0-0.4-0.1-0.9-0.1-1.4c0-8.4,6.8-15.2,15.2-15.3c0,0,0,0,0,0s0,0,0,0c1.8,0,3.5,0.3,5.2,0.9
			c1,0.4,2,0.9,3,1.5c4.3,2.7,7.1,7.4,7.1,12.9C216.3,157.5,211.8,163.2,205.6,165.2z"/>
		<path fill="#FFFFFF" d="M201.1,139.7c-6.1,0-11.1,5-11.1,11.1c0,6.1,5,11.1,11.1,11.1c6.1,0,11.1-5,11.1-11.1
			C212.2,144.7,207.3,139.7,201.1,139.7z M201.1,160c-5.1,0-9.2-4.1-9.2-9.2c0-5.1,4.1-9.2,9.2-9.2c5.1,0,9.2,4.1,9.2,9.2
			C210.4,155.9,206.2,160,201.1,160z"/>
		<g>
			<path fill="#FFFFFF" d="M378.2,205.9c0,0.5-0.1,1-0.3,1.4c-0.2,0.4-0.5,0.7-0.8,1s-0.8,0.5-1.2,0.6c-0.5,0.1-1,0.2-1.6,0.2
				c-0.3,0-0.7,0-1-0.1c-0.3-0.1-0.6-0.1-0.8-0.2c-0.2-0.1-0.4-0.2-0.6-0.2s-0.3-0.2-0.4-0.2s-0.1-0.2-0.2-0.3
				c0-0.2-0.1-0.4-0.1-0.7c0-0.2,0-0.4,0-0.5c0-0.1,0-0.2,0.1-0.3c0-0.1,0.1-0.1,0.1-0.1c0,0,0.1,0,0.2,0c0.1,0,0.2,0,0.3,0.1
				c0.1,0.1,0.3,0.2,0.5,0.3c0.2,0.1,0.5,0.2,0.8,0.3s0.6,0.1,1,0.1c0.2,0,0.4,0,0.6-0.1c0.2,0,0.3-0.1,0.5-0.2
				c0.1-0.1,0.2-0.2,0.3-0.3c0.1-0.1,0.1-0.3,0.1-0.5c0-0.2-0.1-0.4-0.2-0.5c-0.1-0.1-0.3-0.3-0.5-0.4s-0.4-0.2-0.7-0.3
				c-0.3-0.1-0.5-0.2-0.8-0.3s-0.5-0.2-0.8-0.4s-0.5-0.3-0.7-0.5s-0.4-0.5-0.5-0.8s-0.2-0.7-0.2-1.1c0-0.4,0.1-0.8,0.3-1.2
				c0.2-0.4,0.4-0.7,0.7-0.9c0.3-0.3,0.7-0.5,1.2-0.6c0.5-0.1,1-0.2,1.5-0.2c0.3,0,0.6,0,0.8,0.1s0.5,0.1,0.7,0.2
				c0.2,0.1,0.4,0.1,0.5,0.2s0.3,0.1,0.3,0.2c0.1,0.1,0.1,0.1,0.1,0.2c0,0.1,0,0.1,0.1,0.2s0,0.2,0,0.3s0,0.2,0,0.4
				c0,0.2,0,0.3,0,0.4s0,0.2-0.1,0.3s-0.1,0.1-0.1,0.1c0,0-0.1,0-0.1,0c-0.1,0-0.2,0-0.3-0.1c-0.1-0.1-0.3-0.1-0.5-0.2
				s-0.4-0.2-0.7-0.2s-0.5-0.1-0.9-0.1c-0.2,0-0.4,0-0.6,0.1c-0.2,0-0.3,0.1-0.4,0.2c-0.1,0.1-0.2,0.2-0.2,0.3
				c-0.1,0.1-0.1,0.2-0.1,0.4c0,0.2,0.1,0.4,0.2,0.5c0.1,0.1,0.3,0.3,0.5,0.4s0.4,0.2,0.7,0.3c0.3,0.1,0.5,0.2,0.8,0.3
				s0.5,0.2,0.8,0.4c0.3,0.1,0.5,0.3,0.7,0.5c0.2,0.2,0.4,0.5,0.5,0.8S378.2,205.5,378.2,205.9z"/>
			<path fill="#FFFFFF" d="M412,208.4c0,0.1,0,0.1-0.1,0.2c0,0.1-0.1,0.1-0.2,0.1c-0.1,0-0.2,0.1-0.4,0.1c-0.2,0-0.4,0-0.6,0
				c-0.3,0-0.5,0-0.6,0c-0.2,0-0.3,0-0.4-0.1s-0.2-0.1-0.2-0.1s-0.1-0.1-0.1-0.2v-5.4c0-0.3,0-0.6-0.1-0.8c-0.1-0.2-0.1-0.5-0.3-0.6
				c-0.1-0.2-0.3-0.3-0.4-0.4c-0.2-0.1-0.4-0.1-0.6-0.1c-0.3,0-0.6,0.1-0.9,0.4c-0.3,0.2-0.6,0.6-1,1v6c0,0.1,0,0.1-0.1,0.2
				c0,0.1-0.1,0.1-0.2,0.1c-0.1,0-0.2,0.1-0.4,0.1c-0.2,0-0.4,0-0.6,0c-0.3,0-0.5,0-0.6,0c-0.2,0-0.3,0-0.4-0.1
				c-0.1,0-0.2-0.1-0.2-0.1s-0.1-0.1-0.1-0.2v-5.4c0-0.3,0-0.6-0.1-0.8c-0.1-0.2-0.1-0.5-0.3-0.6c-0.1-0.2-0.3-0.3-0.4-0.4
				c-0.2-0.1-0.4-0.1-0.6-0.1c-0.3,0-0.6,0.1-0.9,0.4c-0.3,0.2-0.6,0.6-1,1v6c0,0.1,0,0.1-0.1,0.2c0,0.1-0.1,0.1-0.2,0.1
				s-0.2,0.1-0.4,0.1c-0.2,0-0.4,0-0.6,0c-0.3,0-0.5,0-0.6,0c-0.2,0-0.3,0-0.4-0.1c-0.1,0-0.2-0.1-0.2-0.1c0-0.1-0.1-0.1-0.1-0.2v-9
				c0-0.1,0-0.1,0.1-0.2c0-0.1,0.1-0.1,0.2-0.1s0.2-0.1,0.3-0.1c0.1,0,0.3,0,0.5,0c0.2,0,0.4,0,0.5,0c0.1,0,0.3,0,0.3,0.1
				c0.1,0,0.1,0.1,0.2,0.1c0,0.1,0.1,0.1,0.1,0.2v1c0.5-0.5,1-0.9,1.5-1.2c0.5-0.3,1-0.4,1.6-0.4c0.4,0,0.7,0,1,0.1s0.6,0.2,0.8,0.3
				c0.2,0.1,0.4,0.3,0.6,0.5c0.2,0.2,0.3,0.4,0.4,0.7c0.3-0.3,0.5-0.5,0.8-0.7c0.3-0.2,0.5-0.4,0.8-0.5c0.3-0.1,0.5-0.2,0.8-0.3
				c0.3-0.1,0.5-0.1,0.8-0.1c0.6,0,1.1,0.1,1.5,0.3c0.4,0.2,0.7,0.5,1,0.8c0.3,0.3,0.4,0.8,0.5,1.2c0.1,0.5,0.2,1,0.2,1.5V208.4z"/>
			<path fill="#FFFFFF" d="M434.8,196.3c0,0.5-0.1,0.9-0.3,1.1c-0.2,0.2-0.6,0.3-1.2,0.3c-0.6,0-1-0.1-1.2-0.3
				c-0.2-0.2-0.3-0.5-0.3-1c0-0.5,0.1-0.9,0.3-1.1c0.2-0.2,0.6-0.3,1.2-0.3c0.6,0,1,0.1,1.2,0.3
				C434.7,195.5,434.8,195.9,434.8,196.3z M434.6,208.4c0,0.1,0,0.1-0.1,0.2c0,0.1-0.1,0.1-0.2,0.1s-0.2,0.1-0.4,0.1
				c-0.2,0-0.4,0-0.6,0c-0.3,0-0.5,0-0.6,0c-0.2,0-0.3,0-0.4-0.1c-0.1,0-0.2-0.1-0.2-0.1c0-0.1-0.1-0.1-0.1-0.2v-9
				c0-0.1,0-0.1,0.1-0.2c0-0.1,0.1-0.1,0.2-0.1c0.1,0,0.2-0.1,0.4-0.1c0.2,0,0.4,0,0.6,0c0.2,0,0.5,0,0.6,0c0.2,0,0.3,0,0.4,0.1
				s0.2,0.1,0.2,0.1c0,0.1,0.1,0.1,0.1,0.2V208.4z"/>
			<path fill="#FFFFFF" d="M457.3,208.4c0,0.1,0,0.1-0.1,0.2c0,0.1-0.1,0.1-0.2,0.1s-0.2,0.1-0.4,0.1c-0.2,0-0.4,0-0.6,0
				c-0.3,0-0.5,0-0.6,0c-0.2,0-0.3,0-0.4-0.1c-0.1,0-0.2-0.1-0.2-0.1c0-0.1-0.1-0.1-0.1-0.2v-13.3c0-0.1,0-0.1,0.1-0.2
				c0-0.1,0.1-0.1,0.2-0.1c0.1,0,0.2-0.1,0.4-0.1c0.2,0,0.4,0,0.6,0c0.2,0,0.5,0,0.6,0c0.2,0,0.3,0,0.4,0.1c0.1,0,0.2,0.1,0.2,0.1
				c0,0.1,0.1,0.1,0.1,0.2V208.4z"/>
			<path fill="#FFFFFF" d="M485.7,203.7c0,0.3-0.1,0.5-0.2,0.7c-0.1,0.1-0.3,0.2-0.6,0.2h-5.5c0,0.4,0,0.7,0.1,1
				c0.1,0.3,0.2,0.6,0.4,0.8s0.5,0.4,0.8,0.5c0.3,0.1,0.7,0.2,1.1,0.2c0.4,0,0.8,0,1.2-0.1c0.3-0.1,0.6-0.1,0.9-0.2s0.5-0.1,0.6-0.2
				s0.3-0.1,0.4-0.1c0.1,0,0.1,0,0.2,0c0,0,0.1,0.1,0.1,0.1c0,0.1,0,0.1,0.1,0.3c0,0.1,0,0.3,0,0.4c0,0.1,0,0.3,0,0.4
				c0,0.1,0,0.2,0,0.3c0,0.1,0,0.1-0.1,0.2c0,0.1-0.1,0.1-0.1,0.1c0,0-0.2,0.1-0.4,0.2c-0.2,0.1-0.4,0.2-0.7,0.2s-0.7,0.1-1,0.2
				c-0.4,0.1-0.8,0.1-1.3,0.1c-0.8,0-1.5-0.1-2.1-0.3c-0.6-0.2-1.1-0.5-1.5-0.9c-0.4-0.4-0.7-0.9-0.9-1.6c-0.2-0.6-0.3-1.4-0.3-2.2
				c0-0.8,0.1-1.5,0.3-2.2s0.5-1.2,0.9-1.6s0.9-0.8,1.5-1s1.2-0.4,1.9-0.4c0.8,0,1.4,0.1,1.9,0.3c0.5,0.2,1,0.5,1.3,0.9
				c0.3,0.4,0.6,0.9,0.8,1.4c0.2,0.5,0.2,1.1,0.2,1.8V203.7z M483.2,202.9c0-0.7-0.1-1.3-0.4-1.7c-0.3-0.4-0.8-0.6-1.4-0.6
				c-0.3,0-0.6,0.1-0.8,0.2s-0.4,0.3-0.6,0.5c-0.2,0.2-0.3,0.4-0.4,0.7c-0.1,0.3-0.1,0.6-0.1,0.9H483.2z"/>
			<path fill="#FFFFFF" d="M535.9,203.7c0,0.3-0.1,0.5-0.2,0.7c-0.1,0.1-0.3,0.2-0.6,0.2h-5.5c0,0.4,0,0.7,0.1,1
				c0.1,0.3,0.2,0.6,0.4,0.8s0.5,0.4,0.8,0.5c0.3,0.1,0.7,0.2,1.1,0.2c0.4,0,0.8,0,1.2-0.1c0.3-0.1,0.6-0.1,0.9-0.2s0.5-0.1,0.6-0.2
				s0.3-0.1,0.4-0.1c0.1,0,0.1,0,0.2,0c0,0,0.1,0.1,0.1,0.1c0,0.1,0,0.1,0.1,0.3c0,0.1,0,0.3,0,0.4c0,0.1,0,0.3,0,0.4
				c0,0.1,0,0.2,0,0.3c0,0.1,0,0.1-0.1,0.2c0,0.1-0.1,0.1-0.1,0.1c0,0-0.2,0.1-0.4,0.2c-0.2,0.1-0.4,0.2-0.7,0.2s-0.7,0.1-1,0.2
				c-0.4,0.1-0.8,0.1-1.3,0.1c-0.8,0-1.5-0.1-2.1-0.3c-0.6-0.2-1.1-0.5-1.5-0.9c-0.4-0.4-0.7-0.9-0.9-1.6c-0.2-0.6-0.3-1.4-0.3-2.2
				c0-0.8,0.1-1.5,0.3-2.2s0.5-1.2,0.9-1.6s0.9-0.8,1.5-1s1.2-0.4,1.9-0.4c0.8,0,1.4,0.1,1.9,0.3c0.5,0.2,1,0.5,1.3,0.9
				c0.3,0.4,0.6,0.9,0.8,1.4c0.2,0.5,0.2,1.1,0.2,1.8V203.7z M533.5,202.9c0-0.7-0.1-1.3-0.4-1.7c-0.3-0.4-0.8-0.6-1.4-0.6
				c-0.3,0-0.6,0.1-0.8,0.2s-0.4,0.3-0.6,0.5c-0.2,0.2-0.3,0.4-0.4,0.7c-0.1,0.3-0.1,0.6-0.1,0.9H533.5z"/>
			<path fill="#FFFFFF" d="M563.8,199.4c0,0,0,0.1,0,0.1c0,0,0,0.1,0,0.2c0,0.1,0,0.1,0,0.2c0,0.1,0,0.2-0.1,0.3l-2.7,8.2
				c0,0.1-0.1,0.2-0.1,0.3c-0.1,0.1-0.2,0.1-0.3,0.2c-0.1,0-0.3,0.1-0.5,0.1c-0.2,0-0.5,0-0.9,0c-0.4,0-0.6,0-0.9,0
				c-0.2,0-0.4,0-0.5-0.1c-0.1,0-0.2-0.1-0.3-0.2c-0.1-0.1-0.1-0.2-0.1-0.3l-2.7-8.2c0-0.1-0.1-0.3-0.1-0.4c0-0.1,0-0.2,0-0.2
				c0,0,0-0.1,0-0.1c0-0.1,0-0.1,0.1-0.2c0-0.1,0.1-0.1,0.2-0.1c0.1,0,0.2-0.1,0.4-0.1c0.2,0,0.4,0,0.6,0c0.3,0,0.5,0,0.7,0
				c0.2,0,0.3,0,0.4,0.1c0.1,0,0.2,0.1,0.2,0.1c0,0.1,0.1,0.1,0.1,0.2l2.1,6.6l0.1,0.3l0.1-0.3l2-6.6c0-0.1,0.1-0.1,0.1-0.2
				c0-0.1,0.1-0.1,0.2-0.1c0.1,0,0.2-0.1,0.4-0.1c0.2,0,0.4,0,0.6,0c0.3,0,0.5,0,0.6,0c0.2,0,0.3,0,0.4,0.1c0.1,0,0.1,0.1,0.2,0.1
				C563.8,199.3,563.8,199.3,563.8,199.4z"/>
			<path fill="#FFFFFF" d="M591,203.7c0,0.3-0.1,0.5-0.2,0.7c-0.1,0.1-0.3,0.2-0.6,0.2h-5.5c0,0.4,0,0.7,0.1,1
				c0.1,0.3,0.2,0.6,0.4,0.8s0.5,0.4,0.8,0.5c0.3,0.1,0.7,0.2,1.1,0.2c0.4,0,0.8,0,1.2-0.1c0.3-0.1,0.6-0.1,0.9-0.2s0.5-0.1,0.6-0.2
				s0.3-0.1,0.4-0.1c0.1,0,0.1,0,0.2,0c0,0,0.1,0.1,0.1,0.1c0,0.1,0,0.1,0.1,0.3c0,0.1,0,0.3,0,0.4c0,0.1,0,0.3,0,0.4
				c0,0.1,0,0.2,0,0.3c0,0.1,0,0.1-0.1,0.2c0,0.1-0.1,0.1-0.1,0.1c0,0-0.2,0.1-0.4,0.2c-0.2,0.1-0.4,0.2-0.7,0.2s-0.7,0.1-1,0.2
				c-0.4,0.1-0.8,0.1-1.3,0.1c-0.8,0-1.5-0.1-2.1-0.3c-0.6-0.2-1.1-0.5-1.5-0.9c-0.4-0.4-0.7-0.9-0.9-1.6c-0.2-0.6-0.3-1.4-0.3-2.2
				c0-0.8,0.1-1.5,0.3-2.2s0.5-1.2,0.9-1.6s0.9-0.8,1.5-1s1.2-0.4,1.9-0.4c0.8,0,1.4,0.1,1.9,0.3c0.5,0.2,1,0.5,1.3,0.9
				c0.3,0.4,0.6,0.9,0.8,1.4c0.2,0.5,0.2,1.1,0.2,1.8V203.7z M588.5,202.9c0-0.7-0.1-1.3-0.4-1.7c-0.3-0.4-0.8-0.6-1.4-0.6
				c-0.3,0-0.6,0.1-0.8,0.2s-0.4,0.3-0.6,0.5c-0.2,0.2-0.3,0.4-0.4,0.7c-0.1,0.3-0.1,0.6-0.1,0.9H588.5z"/>
			<path fill="#FFFFFF" d="M616.4,200.2c0,0.2,0,0.4,0,0.6c0,0.2,0,0.3-0.1,0.4c0,0.1-0.1,0.1-0.1,0.2s-0.1,0.1-0.2,0.1
				c-0.1,0-0.1,0-0.2,0c-0.1,0-0.1,0-0.2-0.1c-0.1,0-0.2-0.1-0.3-0.1c-0.1,0-0.2,0-0.3,0c-0.1,0-0.3,0-0.4,0.1
				c-0.1,0.1-0.3,0.1-0.4,0.3c-0.2,0.1-0.3,0.3-0.5,0.5c-0.2,0.2-0.3,0.5-0.5,0.7v5.6c0,0.1,0,0.1-0.1,0.2c0,0.1-0.1,0.1-0.2,0.1
				s-0.2,0.1-0.4,0.1c-0.2,0-0.4,0-0.6,0c-0.3,0-0.5,0-0.6,0c-0.2,0-0.3,0-0.4-0.1c-0.1,0-0.2-0.1-0.2-0.1c0-0.1-0.1-0.1-0.1-0.2v-9
				c0-0.1,0-0.1,0.1-0.2c0-0.1,0.1-0.1,0.2-0.1s0.2-0.1,0.3-0.1c0.1,0,0.3,0,0.5,0c0.2,0,0.4,0,0.5,0c0.1,0,0.3,0,0.3,0.1
				c0.1,0,0.1,0.1,0.2,0.1c0,0.1,0.1,0.1,0.1,0.2v1.1c0.2-0.3,0.5-0.6,0.7-0.8s0.4-0.4,0.6-0.5c0.2-0.1,0.4-0.2,0.6-0.3
				c0.2-0.1,0.4-0.1,0.6-0.1c0.1,0,0.2,0,0.3,0c0.1,0,0.2,0,0.3,0.1c0.1,0,0.2,0.1,0.3,0.1c0.1,0,0.1,0.1,0.2,0.1s0.1,0.1,0.1,0.1
				c0,0,0,0.1,0,0.2s0,0.2,0,0.3S616.4,200,616.4,200.2z"/>
			<path fill="#FFFFFF" d="M640.9,208.8l-1.1,3.2c-0.1,0.2-0.2,0.3-0.5,0.4c-0.3,0.1-0.7,0.1-1.2,0.1c-0.3,0-0.5,0-0.6,0
				s-0.3-0.1-0.4-0.1c-0.1-0.1-0.1-0.1-0.1-0.2s0-0.2,0.1-0.3l1.2-3c-0.1,0-0.2-0.1-0.2-0.2c-0.1-0.1-0.1-0.2-0.2-0.3l-3.1-8.3
				c-0.1-0.2-0.1-0.4-0.1-0.5c0-0.1,0-0.2,0.1-0.3s0.2-0.1,0.4-0.1s0.4,0,0.8,0c0.3,0,0.5,0,0.7,0c0.2,0,0.3,0,0.4,0.1
				c0.1,0,0.2,0.1,0.2,0.2c0,0.1,0.1,0.2,0.1,0.4l2.1,6h0l1.9-6.2c0-0.2,0.1-0.3,0.2-0.3c0.1-0.1,0.2-0.1,0.3-0.1s0.4,0,0.8,0
				c0.3,0,0.5,0,0.7,0s0.3,0.1,0.4,0.2c0.1,0.1,0.1,0.2,0.1,0.3s0,0.3-0.1,0.4L640.9,208.8z"/>
			<path fill="#FFFFFF" d="M672.1,203.8c0,0.8-0.1,1.5-0.3,2.2c-0.2,0.6-0.4,1.2-0.8,1.6c-0.3,0.5-0.7,0.8-1.2,1
				c-0.5,0.2-1,0.4-1.6,0.4c-0.3,0-0.6,0-0.8-0.1c-0.3-0.1-0.5-0.2-0.8-0.3c-0.2-0.1-0.5-0.3-0.7-0.5s-0.5-0.4-0.7-0.7v1
				c0,0.1,0,0.1-0.1,0.2c0,0.1-0.1,0.1-0.2,0.1c-0.1,0-0.2,0.1-0.3,0.1c-0.1,0-0.3,0-0.5,0c-0.2,0-0.4,0-0.5,0c-0.1,0-0.3,0-0.3-0.1
				s-0.1-0.1-0.2-0.1c0-0.1-0.1-0.1-0.1-0.2v-13.3c0-0.1,0-0.1,0.1-0.2c0-0.1,0.1-0.1,0.2-0.1c0.1,0,0.2-0.1,0.4-0.1
				c0.2,0,0.4,0,0.6,0c0.2,0,0.5,0,0.6,0c0.2,0,0.3,0,0.4,0.1c0.1,0,0.2,0.1,0.2,0.1c0,0.1,0.1,0.1,0.1,0.2v5
				c0.2-0.2,0.5-0.4,0.7-0.6c0.2-0.2,0.5-0.3,0.7-0.4s0.5-0.2,0.7-0.2c0.2,0,0.5-0.1,0.8-0.1c0.7,0,1.2,0.1,1.7,0.4s0.8,0.6,1.1,1.1
				c0.3,0.5,0.5,1,0.6,1.6S672.1,203.1,672.1,203.8z M669.5,204c0-0.4,0-0.8-0.1-1.1c-0.1-0.4-0.2-0.7-0.3-1
				c-0.1-0.3-0.3-0.5-0.6-0.7c-0.2-0.2-0.5-0.2-0.9-0.2c-0.2,0-0.3,0-0.5,0.1c-0.2,0-0.3,0.1-0.5,0.2s-0.3,0.3-0.5,0.4
				c-0.2,0.2-0.4,0.4-0.6,0.7v3c0.4,0.5,0.7,0.8,1,1s0.7,0.4,1,0.4c0.3,0,0.6-0.1,0.8-0.3c0.2-0.2,0.4-0.4,0.6-0.7
				c0.2-0.3,0.3-0.6,0.3-0.9C669.5,204.7,669.5,204.3,669.5,204z"/>
			<path fill="#FFFFFF" d="M700.8,203.8c0,0.8-0.1,1.5-0.3,2.1s-0.5,1.2-0.9,1.6c-0.4,0.5-0.9,0.8-1.5,1.1s-1.3,0.4-2.2,0.4
				c-0.8,0-1.5-0.1-2.1-0.3s-1.1-0.5-1.5-1c-0.4-0.4-0.7-0.9-0.9-1.6c-0.2-0.6-0.3-1.3-0.3-2.1c0-0.8,0.1-1.5,0.3-2.1
				c0.2-0.6,0.5-1.2,0.9-1.6c0.4-0.5,0.9-0.8,1.5-1.1c0.6-0.2,1.3-0.4,2.2-0.4c0.8,0,1.5,0.1,2.1,0.3s1.1,0.5,1.5,1
				c0.4,0.4,0.7,0.9,0.9,1.6C700.8,202.3,700.8,203,700.8,203.8z M698.2,203.9c0-0.4,0-0.9-0.1-1.2c-0.1-0.4-0.2-0.7-0.4-1
				c-0.2-0.3-0.4-0.5-0.7-0.6c-0.3-0.2-0.6-0.2-1.1-0.2c-0.4,0-0.7,0.1-1,0.2c-0.3,0.1-0.5,0.3-0.7,0.6c-0.2,0.3-0.3,0.6-0.4,1
				c-0.1,0.4-0.1,0.8-0.1,1.3c0,0.4,0,0.9,0.1,1.2s0.2,0.7,0.4,1c0.2,0.3,0.4,0.5,0.7,0.6s0.6,0.2,1.1,0.2c0.4,0,0.7-0.1,1-0.2
				c0.3-0.1,0.5-0.3,0.7-0.6s0.3-0.6,0.4-1C698.2,204.8,698.2,204.4,698.2,203.9z"/>
			<path fill="#FFFFFF" d="M729,208.4c0,0.1,0,0.1,0,0.2c0,0.1-0.1,0.1-0.2,0.1s-0.2,0.1-0.3,0.1c-0.1,0-0.3,0-0.5,0
				c-0.2,0-0.4,0-0.5,0c-0.1,0-0.2,0-0.3-0.1c-0.1,0-0.1-0.1-0.2-0.1c0-0.1-0.1-0.1-0.1-0.2v-1c-0.5,0.5-1,0.9-1.5,1.2
				c-0.5,0.3-1.1,0.4-1.7,0.4c-0.7,0-1.3-0.1-1.7-0.4s-0.9-0.6-1.2-1.1c-0.3-0.5-0.5-1-0.7-1.6c-0.1-0.6-0.2-1.2-0.2-1.9
				c0-0.8,0.1-1.5,0.3-2.2c0.2-0.6,0.4-1.2,0.8-1.6c0.3-0.5,0.7-0.8,1.2-1c0.5-0.2,1.1-0.4,1.7-0.4c0.5,0,1,0.1,1.4,0.3
				c0.4,0.2,0.8,0.5,1.2,0.9v-4.9c0-0.1,0-0.1,0.1-0.2c0-0.1,0.1-0.1,0.2-0.1c0.1,0,0.2-0.1,0.4-0.1c0.2,0,0.4,0,0.6,0
				c0.2,0,0.5,0,0.6,0c0.2,0,0.3,0,0.4,0.1s0.2,0.1,0.2,0.1c0,0.1,0.1,0.1,0.1,0.2V208.4z M726.5,202.4c-0.4-0.5-0.7-0.8-1-1.1
				c-0.3-0.2-0.7-0.4-1-0.4c-0.3,0-0.6,0.1-0.9,0.2c-0.2,0.2-0.4,0.4-0.6,0.7c-0.1,0.3-0.3,0.6-0.3,0.9c-0.1,0.3-0.1,0.7-0.1,1
				c0,0.4,0,0.7,0.1,1.1s0.2,0.7,0.3,1c0.1,0.3,0.3,0.5,0.6,0.7c0.2,0.2,0.5,0.3,0.9,0.3c0.2,0,0.3,0,0.5-0.1
				c0.2-0.1,0.3-0.1,0.5-0.2c0.2-0.1,0.3-0.3,0.5-0.5c0.2-0.2,0.4-0.4,0.6-0.7V202.4z"/>
			<path fill="#FFFFFF" d="M754.3,208.8l-1.1,3.2c-0.1,0.2-0.2,0.3-0.5,0.4c-0.3,0.1-0.7,0.1-1.2,0.1c-0.3,0-0.5,0-0.6,0
				s-0.3-0.1-0.4-0.1c-0.1-0.1-0.1-0.1-0.1-0.2s0-0.2,0.1-0.3l1.2-3c-0.1,0-0.2-0.1-0.2-0.2c-0.1-0.1-0.1-0.2-0.2-0.3l-3.1-8.3
				c-0.1-0.2-0.1-0.4-0.1-0.5c0-0.1,0-0.2,0.1-0.3s0.2-0.1,0.4-0.1s0.4,0,0.8,0c0.3,0,0.5,0,0.7,0c0.2,0,0.3,0,0.4,0.1
				c0.1,0,0.2,0.1,0.2,0.2c0,0.1,0.1,0.2,0.1,0.4l2.1,6h0l1.9-6.2c0-0.2,0.1-0.3,0.2-0.3c0.1-0.1,0.2-0.1,0.3-0.1s0.4,0,0.8,0
				c0.3,0,0.5,0,0.7,0s0.3,0.1,0.4,0.2c0.1,0.1,0.1,0.2,0.1,0.3s0,0.3-0.1,0.4L754.3,208.8z"/>
		</g>
		<path fill="#FFFFFF" d="M168.2,150.6c0-4.2,0.8-8.3,2.4-12.2l-3.7,0v6.6c0,7.2-1.7,13.7-5.2,19.4c-3.5,5.7-8.2,10.1-14.2,13.3
			c-6,3.1-12.8,4.7-20.4,4.7c-7.5,0-14.2-1.6-20.2-4.7c-6-3.1-10.7-7.6-14.1-13.3c-3.4-5.7-5.1-12.2-5.1-19.4v-44.7
			c0-0.6,0.3-1.2,0.7-1.6c0.6-0.6,1.4-0.7,1.6-0.7c0.1,0,8.1,0,8.2,0c0.2,0,10.4,0,10.5,0v46.3c0,6.3,1.7,11.2,5,14.6
			c3.3,3.5,7.8,5.2,13.6,5.2s10.3-1.7,13.7-5.2c3.4-3.5,5-8.3,5-14.6V98h19c1.2,0,2.1,1,2.1,2.1v17.2l32.6-0.1h4.9l0.1,0
			c0.6,0,1.2,0.1,1.9,0.2c1.3,0.2,2.6,0.4,3.9,0.8c-4.6-41.7-39.9-74.2-82.9-74.2c-47.4,0-85.5,39.5-83.4,87.3
			c1.9,42.8,36.7,77.6,79.6,79.5c16.3,0.7,31.6-3.3,44.7-10.6v-49.5L168.2,150.6z M156,75.2c4.5,0,8.2,3.7,8.2,8.2
			c0,4.5-3.7,8.2-8.2,8.2s-8.2-3.7-8.2-8.2C147.8,78.9,151.5,75.2,156,75.2z M98.9,75.2c4.5,0,8.2,3.7,8.2,8.2
			c0,4.5-3.7,8.2-8.2,8.2s-8.2-3.7-8.2-8.2C90.6,78.9,94.3,75.2,98.9,75.2z"/>
		<circle fill="#FFFFFF" cx="61.2" cy="61.8" r="4.9"/>
		<g>
			<g>
				<path fill-rule="evenodd" fill="#FFFFFF" d="M299,179.5c0.6,0.2,1.4,0.4,2.3,0.5c1,0.1,2.2,0.2,3.7,0.2c1.5,0,2.7-0.1,3.7-0.2
					c1-0.1,1.7-0.3,2.3-0.5c0.6-0.2,1-0.5,1.2-0.8c0.2-0.3,0.4-0.7,0.4-1.1v-33.4c1.1-1.8,2.2-3.2,3.2-4.4c1-1.2,1.9-2.2,2.8-2.9
					c0.9-0.7,1.8-1.3,2.6-1.6c0.8-0.3,1.7-0.5,2.5-0.5c0.7,0,1.4,0.1,2,0.2c0.6,0.1,1.2,0.3,1.7,0.5c0.5,0.2,1,0.3,1.4,0.5
					c0.4,0.1,0.8,0.2,1.1,0.2c0.4,0,0.7-0.1,1-0.3c0.3-0.2,0.5-0.6,0.6-1.1c0.2-0.5,0.3-1.2,0.4-2.2c0.1-0.9,0.1-2.1,0.1-3.5
					c0-1.4,0-2.6-0.1-3.4c0-0.8-0.1-1.5-0.2-1.9c-0.1-0.4-0.2-0.8-0.3-1c-0.1-0.2-0.3-0.5-0.5-0.7c-0.2-0.2-0.6-0.4-1.1-0.6
					c-0.5-0.2-1-0.3-1.7-0.5c-0.6-0.1-1.3-0.2-1.9-0.3c-0.6-0.1-1.2-0.1-1.7-0.1c-1.1,0-2.2,0.2-3.4,0.5c-1.1,0.3-2.2,0.8-3.4,1.6
					c-1.1,0.8-2.3,1.8-3.5,3.1c-1.2,1.3-2.6,3-4,5V124c0-0.4-0.1-0.8-0.3-1.1c-0.2-0.3-0.5-0.6-1-0.8c-0.5-0.2-1.1-0.4-2-0.5
					c-0.8-0.1-1.9-0.1-3.2-0.1c-1.2,0-2.3,0.1-3.1,0.1c-0.8,0.1-1.5,0.3-2,0.5c-0.5,0.2-0.9,0.5-1.1,0.8c-0.2,0.3-0.3,0.7-0.3,1.1
					v53.6c0,0.4,0.1,0.8,0.4,1.1C298,179,298.5,179.3,299,179.5z"/>
				<path fill-rule="evenodd" fill="#FFFFFF" d="M378,168.7c-0.2-0.4-0.5-0.7-0.8-0.9c-0.3-0.2-0.7-0.2-1-0.2H355l20-31
					c0.4-0.6,0.8-1.2,1.1-1.8c0.3-0.6,0.5-1.1,0.7-1.7c0.2-0.6,0.3-1.2,0.4-1.8c0.1-0.6,0.1-1.3,0.1-2.1v-2.9c0-0.8-0.1-1.5-0.2-2.1
					c-0.1-0.6-0.3-1-0.6-1.3c-0.3-0.3-0.6-0.5-1-0.7c-0.4-0.1-0.9-0.2-1.4-0.2h-32.8c-0.4,0-0.8,0.1-1.1,0.3c-0.3,0.2-0.6,0.5-0.8,1
					c-0.2,0.5-0.4,1.1-0.5,1.9c-0.1,0.8-0.1,1.8-0.1,2.9c0,2.1,0.2,3.7,0.7,4.6c0.5,1,1.1,1.4,1.8,1.4h19l-20.1,31
					c-0.5,0.7-0.9,1.3-1.2,1.9c-0.3,0.6-0.5,1.1-0.7,1.7c-0.2,0.5-0.3,1.1-0.4,1.7c-0.1,0.6-0.1,1.2-0.1,2v2.8
					c0,1.6,0.3,2.8,0.9,3.5c0.6,0.7,1.4,1.1,2.5,1.1h35.1c0.4,0,0.8-0.1,1.1-0.3c0.3-0.2,0.6-0.5,0.8-1c0.2-0.5,0.4-1.1,0.5-2
					c0.1-0.8,0.2-1.8,0.2-3c0-1.2-0.1-2.2-0.2-3C378.4,169.7,378.3,169.1,378,168.7z"/>
				<path fill-rule="evenodd" fill="#FFFFFF" d="M435.5,128.3c-2.3-2.5-5.2-4.4-8.7-5.7c-3.5-1.3-7.7-2-12.5-2
					c-4.9,0-9.2,0.7-12.9,2.2c-3.7,1.5-6.7,3.6-9.2,6.3c-2.4,2.7-4.3,6-5.5,9.7c-1.2,3.8-1.8,8-1.8,12.5c0,4.7,0.6,8.9,1.7,12.6
					c1.1,3.7,2.8,6.8,5.2,9.3c2.3,2.5,5.3,4.4,8.8,5.8c3.5,1.3,7.7,2,12.4,2c4.9,0,9.2-0.7,12.9-2.2c3.7-1.5,6.8-3.6,9.2-6.3
					c2.4-2.7,4.3-6,5.5-9.7c1.2-3.8,1.8-7.9,1.8-12.5c0-4.8-0.6-9-1.7-12.7C439.5,133.9,437.8,130.8,435.5,128.3z M425.9,158.5
					c-0.5,2.2-1.3,4.1-2.4,5.7c-1.1,1.6-2.5,2.8-4.1,3.6c-1.7,0.8-3.7,1.2-6,1.2c-2.5,0-4.6-0.5-6.3-1.4c-1.7-0.9-3-2.2-4-3.8
					c-1-1.6-1.7-3.6-2.1-5.8c-0.4-2.2-0.7-4.7-0.7-7.3c0-2.8,0.3-5.4,0.8-7.6c0.5-2.2,1.4-4.1,2.4-5.7c1.1-1.6,2.5-2.8,4.1-3.6
					c1.7-0.8,3.6-1.2,5.9-1.2c2.5,0,4.6,0.5,6.3,1.4c1.7,0.9,3,2.2,4,3.8c1,1.6,1.7,3.6,2.1,5.8c0.4,2.2,0.6,4.7,0.6,7.3
					C426.7,153.7,426.4,156.3,425.9,158.5z"/>
				<path fill-rule="evenodd" fill="#FFFFFF" d="M504.4,134.5c-0.7-2.8-1.8-5.2-3.3-7.2c-1.5-2.1-3.6-3.7-6.1-4.9
					c-2.5-1.2-5.6-1.8-9.2-1.8c-3.3,0-6.5,0.8-9.6,2.4c-3.1,1.6-6.1,4-9,7.2V124c0-0.4-0.1-0.8-0.3-1.1c-0.2-0.3-0.5-0.6-1-0.8
					c-0.5-0.2-1.1-0.4-2-0.5c-0.8-0.1-1.9-0.1-3.2-0.1c-1.2,0-2.3,0.1-3.1,0.1c-0.8,0.1-1.5,0.3-2,0.5c-0.5,0.2-0.9,0.5-1.1,0.8
					c-0.2,0.3-0.3,0.7-0.3,1.1v53.6c0,0.4,0.1,0.8,0.4,1.1c0.2,0.3,0.7,0.6,1.2,0.8c0.6,0.2,1.4,0.4,2.3,0.5c1,0.1,2.2,0.2,3.7,0.2
					c1.5,0,2.7-0.1,3.7-0.2c1-0.1,1.7-0.3,2.3-0.5c0.6-0.2,1-0.5,1.2-0.8c0.2-0.3,0.4-0.7,0.4-1.1V142c2.1-2.7,4.2-4.7,6.1-6.1
					c2-1.4,3.9-2.1,5.8-2.1c1.5,0,2.9,0.3,4,0.9c1.1,0.6,2.1,1.4,2.8,2.5c0.7,1.1,1.3,2.3,1.7,3.8c0.4,1.5,0.6,3.5,0.6,6.1v30.6
					c0,0.4,0.1,0.8,0.4,1.1c0.2,0.3,0.6,0.6,1.2,0.8c0.6,0.2,1.3,0.4,2.3,0.5c1,0.1,2.2,0.2,3.7,0.2c1.4,0,2.7-0.1,3.6-0.2
					c1-0.1,1.8-0.3,2.3-0.5c0.6-0.2,1-0.5,1.2-0.8c0.2-0.3,0.4-0.7,0.4-1.1v-33.1C505.5,140.6,505.1,137.3,504.4,134.5z"/>
				<path fill-rule="evenodd" fill="#FFFFFF" d="M325.2,195.3c-14,0-22-3.6-24.7-5.2c-6.5-3.7-10.3-8.2-11.3-9.4
					c0-0.1-0.1-0.1-0.1-0.2c-4.4-5.6-6.7-12.5-6.9-19.6c-0.2-8.3-0.4-16.5-0.6-24.8c-0.1-3.8-1.6-7.5-4.3-10.1
					c-0.1-0.1-0.3-0.2-0.4-0.3c-0.9-0.8-1.7-1.4-2-1.5c-1.8-1.2-3.6-1.8-5.4-2.3c-3-0.8-6.6-1.2-10.8-1.2c-2.4,0-4.7,0.2-6.9,0.6
					c-2.2,0.4-4.3,0.9-6.2,1.5c-1.9,0.6-3.5,1.3-4.9,2c-1.4,0.7-2.4,1.3-2.9,1.9c-0.6,0.6-0.9,1.2-1.1,2c-0.2,0.7-0.3,1.7-0.3,2.9
					c0,0.9,0.1,1.8,0.2,2.5c0.1,0.8,0.3,1.4,0.5,1.9c0.2,0.5,0.5,0.9,0.8,1.2c0.3,0.3,0.7,0.4,1.2,0.4c0.6,0,1.5-0.3,2.5-0.8
					c1-0.6,2.3-1.2,3.8-1.9c1.5-0.7,3.3-1.3,5.3-1.9c2-0.6,4.2-0.8,6.8-0.8c1.9,0,3.5,0.2,4.8,0.6c1.3,0.4,2.3,1,3.1,1.9
					c0.8,0.8,1.3,1.9,1.7,3.2c0.3,1.3,0.5,2.7,0.5,4.4v3.2h-5.2c-4.8,0-9,0.4-12.6,1.1c-3.6,0.7-6.6,1.8-9,3.3
					c-2.4,1.5-4.2,3.4-5.5,5.7c-1.2,2.3-1.8,5-1.8,8.1c0,2.9,0.5,5.4,1.4,7.6c1,2.2,2.3,4,4.1,5.4c1.7,1.5,3.8,2.6,6.2,3.3
					c2.4,0.7,5,1.1,7.8,1.1c3.4,0,6.6-0.7,9.4-2c0.2-0.1,1-0.5,2.1-1.1c2.8-1.7,4.7-3.5,5.9-4.9c0.5,1.4,1.4,3.4,2.6,5.6
					c7.5,13.6,20.3,19.6,25.2,21.5c2.3,0.9,13.2,5.1,27.5,3.2c20-2.6,34-15.5,33.3-16.8C358.3,185.4,345.3,195.3,325.2,195.3z
					 M267.5,164c-1.8,2.1-3.7,3.7-5.4,4.7c-1.8,1.1-3.7,1.6-5.9,1.6c-2.5,0-4.5-0.6-5.9-1.9c-1.4-1.3-2.1-3-2.1-5.3
					c0-1.3,0.3-2.5,0.8-3.5c0.5-1,1.3-1.9,2.4-2.6c1.1-0.7,2.5-1.3,4.2-1.6c1.7-0.4,3.8-0.5,6.3-0.5h5.8V164z"/>
			</g>
			<path id="XMLID_3_" fill-rule="evenodd" fill="#FFFFFF" d="M359.6,185.4c-1-1.1-6.2,0-8.5,0.5c-0.7,0.2-0.9-0.5-0.3-1
				c3.9-3.3,10.8-3.1,11.7-2.2c0.9,0.9,0.5,7.8-3.1,11.5c-0.6,0.6-1.1,0.3-0.9-0.3C359.1,191.6,360.6,186.5,359.6,185.4"/>
		</g>
	</g>
	<g>
		<path fill="#FFFFFF" d="M564.6,156.6c0,4-0.8,7.6-2.3,10.6c-1.5,3.1-3.5,5.6-6.1,7.6c-2.6,2-5.6,3.6-9,4.6s-7.1,1.5-11.1,1.5
			c-2.7,0-5.1-0.2-7.4-0.7c-2.3-0.4-4.3-1-6-1.6c-1.7-0.6-3.2-1.3-4.4-1.9c-1.2-0.7-2-1.3-2.5-1.8c-0.5-0.5-0.9-1.3-1.1-2.2
			c-0.2-1-0.3-2.4-0.3-4.2c0-1.2,0-2.3,0.1-3.1c0.1-0.8,0.2-1.5,0.4-2c0.2-0.5,0.4-0.9,0.7-1.1c0.3-0.2,0.6-0.3,1-0.3
			c0.6,0,1.3,0.3,2.3,1c1,0.7,2.3,1.4,3.9,2.2c1.6,0.8,3.5,1.5,5.7,2.2c2.2,0.7,4.7,1,7.6,1c1.9,0,3.6-0.2,5.1-0.7
			c1.5-0.5,2.8-1.1,3.8-1.9c1-0.8,1.9-1.9,2.4-3.1c0.6-1.2,0.8-2.6,0.8-4.1c0-1.7-0.5-3.2-1.4-4.5c-1-1.2-2.2-2.4-3.7-3.3
			c-1.5-1-3.3-1.9-5.2-2.7c-1.9-0.9-3.9-1.8-6-2.7c-2.1-1-4.1-2-6-3.2c-1.9-1.2-3.7-2.7-5.2-4.3c-1.5-1.7-2.8-3.7-3.7-6
			c-1-2.3-1.4-5.1-1.4-8.3c0-3.7,0.7-6.9,2-9.7c1.4-2.8,3.2-5.1,5.5-7c2.3-1.8,5.1-3.2,8.2-4.1c3.1-0.9,6.5-1.4,10-1.4
			c1.8,0,3.6,0.1,5.5,0.4c1.8,0.3,3.5,0.7,5.1,1.1c1.6,0.5,3,1,4.2,1.6c1.2,0.6,2,1.1,2.4,1.5c0.4,0.4,0.7,0.7,0.8,1
			c0.1,0.3,0.3,0.6,0.4,1.1c0.1,0.5,0.2,1,0.2,1.7c0,0.7,0.1,1.6,0.1,2.6c0,1.1,0,2.1-0.1,2.9c-0.1,0.8-0.2,1.4-0.3,2
			c-0.1,0.5-0.3,0.9-0.6,1.1c-0.3,0.2-0.6,0.4-1,0.4c-0.4,0-1.1-0.3-2.1-0.8c-1-0.6-2.1-1.2-3.5-1.8c-1.4-0.7-3-1.2-4.8-1.8
			c-1.8-0.5-3.8-0.8-6-0.8c-1.7,0-3.2,0.2-4.5,0.6c-1.3,0.4-2.3,1-3.2,1.7c-0.9,0.7-1.5,1.6-1.9,2.6c-0.4,1-0.6,2.1-0.6,3.3
			c0,1.7,0.5,3.2,1.4,4.4c0.9,1.2,2.2,2.4,3.7,3.3c1.6,1,3.3,1.9,5.3,2.7c2,0.9,4,1.8,6.1,2.7c2.1,1,4.1,2,6.1,3.2
			c2,1.2,3.7,2.7,5.3,4.3c1.5,1.7,2.8,3.7,3.7,5.9C564.1,150.9,564.6,153.6,564.6,156.6z"/>
		<path fill="#FFFFFF" d="M607,172.5c0,1.7-0.1,3.1-0.3,4c-0.2,0.9-0.5,1.6-0.9,2c-0.4,0.4-0.9,0.7-1.6,1c-0.7,0.3-1.5,0.6-2.4,0.8
			c-0.9,0.2-1.9,0.4-3,0.5c-1.1,0.1-2.2,0.2-3.3,0.2c-3,0-5.5-0.4-7.7-1.1s-4-1.9-5.4-3.5c-1.4-1.6-2.5-3.5-3.1-5.9
			c-0.7-2.4-1-5.2-1-8.4v-27.2h-6.4c-0.8,0-1.3-0.5-1.7-1.4c-0.4-0.9-0.6-2.5-0.6-4.7c0-1.1,0-2.1,0.1-2.9c0.1-0.8,0.2-1.4,0.4-1.9
			c0.2-0.5,0.4-0.8,0.7-1c0.3-0.2,0.6-0.3,1-0.3h6.3v-11.8c0-0.4,0.1-0.8,0.3-1.1c0.2-0.3,0.6-0.6,1.2-0.8c0.6-0.2,1.3-0.4,2.3-0.5
			c1-0.1,2.2-0.1,3.6-0.1c1.5,0,2.7,0.1,3.7,0.1c1,0.1,1.7,0.3,2.3,0.5c0.6,0.2,1,0.5,1.2,0.8c0.2,0.3,0.4,0.7,0.4,1.1v11.8h11.5
			c0.4,0,0.7,0.1,1,0.3c0.3,0.2,0.5,0.5,0.7,1c0.2,0.5,0.3,1.1,0.4,1.9c0.1,0.8,0.1,1.8,0.1,2.9c0,2.2-0.2,3.7-0.6,4.7
			c-0.4,0.9-1,1.4-1.7,1.4h-11.6v24.9c0,2.9,0.5,5.1,1.4,6.5c0.9,1.4,2.5,2.2,4.9,2.2c0.8,0,1.5-0.1,2.1-0.2
			c0.6-0.1,1.2-0.3,1.7-0.5s0.9-0.3,1.2-0.5c0.3-0.1,0.6-0.2,0.9-0.2c0.2,0,0.5,0.1,0.7,0.2c0.2,0.1,0.4,0.4,0.5,0.8
			c0.1,0.4,0.2,1,0.3,1.7C606.9,170.4,607,171.3,607,172.5z"/>
		<path fill="#FFFFFF" d="M670.2,150.6c0,4.5-0.6,8.6-1.8,12.4c-1.2,3.7-3,6.9-5.4,9.6c-2.4,2.7-5.4,4.8-9.1,6.2
			c-3.6,1.5-7.9,2.2-12.8,2.2c-4.7,0-8.8-0.7-12.3-2c-3.5-1.3-6.4-3.2-8.7-5.7c-2.3-2.5-4-5.6-5.1-9.2c-1.1-3.6-1.7-7.8-1.7-12.5
			c0-4.5,0.6-8.6,1.8-12.4c1.2-3.7,3-7,5.4-9.6c2.4-2.7,5.4-4.7,9.1-6.2c3.6-1.5,7.9-2.2,12.7-2.2c4.8,0,8.9,0.6,12.4,1.9
			c3.5,1.3,6.4,3.2,8.6,5.7c2.3,2.5,4,5.6,5.1,9.2C669.7,141.8,670.2,145.9,670.2,150.6z M654.8,151.2c0-2.6-0.2-5-0.6-7.2
			c-0.4-2.2-1.1-4.1-2.1-5.7c-1-1.6-2.3-2.9-4-3.8c-1.6-0.9-3.7-1.4-6.2-1.4c-2.2,0-4.2,0.4-5.8,1.2c-1.7,0.8-3,2-4.1,3.6
			c-1.1,1.6-1.9,3.4-2.4,5.6c-0.5,2.2-0.8,4.7-0.8,7.5c0,2.6,0.2,5,0.7,7.2c0.4,2.2,1.1,4.1,2.1,5.7c1,1.6,2.3,2.9,4,3.8
			c1.7,0.9,3.7,1.3,6.2,1.3c2.3,0,4.2-0.4,5.9-1.2c1.7-0.8,3-2,4.1-3.5s1.9-3.4,2.4-5.6C654.6,156.6,654.8,154.1,654.8,151.2z"/>
		<path fill="#FFFFFF" d="M716.1,129.6c0,1.4,0,2.6-0.1,3.5c-0.1,0.9-0.2,1.6-0.4,2.1c-0.2,0.5-0.4,0.9-0.6,1.1
			c-0.3,0.2-0.6,0.3-1,0.3c-0.3,0-0.7-0.1-1.1-0.2c-0.4-0.1-0.8-0.3-1.3-0.4c-0.5-0.2-1-0.3-1.6-0.4c-0.6-0.1-1.2-0.2-2-0.2
			c-0.8,0-1.7,0.2-2.5,0.5c-0.8,0.3-1.7,0.9-2.6,1.6c-0.9,0.7-1.8,1.7-2.8,2.9c-1,1.2-2,2.7-3.1,4.4v33c0,0.4-0.1,0.7-0.4,1
			c-0.2,0.3-0.6,0.5-1.2,0.7c-0.6,0.2-1.3,0.3-2.3,0.4c-1,0.1-2.2,0.1-3.6,0.1c-1.5,0-2.7-0.1-3.6-0.1c-1-0.1-1.7-0.2-2.3-0.4
			c-0.6-0.2-1-0.4-1.2-0.7c-0.2-0.3-0.4-0.6-0.4-1v-53c0-0.4,0.1-0.7,0.3-1c0.2-0.3,0.6-0.5,1.1-0.7c0.5-0.2,1.2-0.3,2-0.4
			c0.8-0.1,1.8-0.1,3.1-0.1c1.3,0,2.3,0.1,3.1,0.1c0.8,0.1,1.5,0.2,1.9,0.4c0.5,0.2,0.8,0.4,1,0.7c0.2,0.3,0.3,0.6,0.3,1v6.6
			c1.4-2,2.7-3.6,3.9-4.9c1.2-1.3,2.4-2.3,3.5-3.1c1.1-0.8,2.2-1.3,3.3-1.6c1.1-0.3,2.2-0.4,3.3-0.4c0.5,0,1.1,0,1.7,0.1
			c0.6,0.1,1.2,0.2,1.8,0.3c0.6,0.1,1.2,0.3,1.7,0.5s0.8,0.4,1,0.6c0.2,0.2,0.4,0.4,0.5,0.7c0.1,0.2,0.2,0.6,0.3,1s0.1,1,0.2,1.9
			C716.1,127.1,716.1,128.2,716.1,129.6z"/>
		<path fill="#FFFFFF" d="M772.9,149.6c0,1.8-0.4,3.2-1.2,4c-0.8,0.9-1.9,1.3-3.4,1.3H736c0,2.3,0.3,4.3,0.8,6.1
			c0.5,1.8,1.4,3.4,2.6,4.7c1.2,1.3,2.7,2.3,4.5,2.9c1.8,0.7,4,1,6.6,1c2.6,0,4.9-0.2,6.9-0.6c2-0.4,3.7-0.8,5.1-1.2
			c1.4-0.5,2.6-0.9,3.6-1.2c1-0.4,1.7-0.6,2.3-0.6c0.4,0,0.7,0.1,0.9,0.2c0.2,0.1,0.4,0.4,0.6,0.7s0.3,0.9,0.3,1.5
			c0.1,0.7,0.1,1.5,0.1,2.5c0,0.9,0,1.6-0.1,2.2c0,0.6-0.1,1.1-0.2,1.6c-0.1,0.4-0.2,0.8-0.4,1.1c-0.2,0.3-0.4,0.6-0.6,0.9
			c-0.3,0.3-1,0.7-2.1,1.1c-1.1,0.5-2.6,0.9-4.4,1.4c-1.8,0.5-3.8,0.9-6.1,1.2c-2.3,0.3-4.8,0.5-7.4,0.5c-4.7,0-8.8-0.6-12.4-1.8
			c-3.5-1.2-6.5-3-8.9-5.4c-2.4-2.4-4.2-5.5-5.3-9.2c-1.2-3.7-1.8-8-1.8-13c0-4.7,0.6-9,1.8-12.7c1.2-3.8,3-7,5.3-9.6
			c2.3-2.6,5.2-4.6,8.5-6c3.3-1.4,7.1-2.1,11.3-2.1c4.4,0,8.2,0.7,11.4,2s5.7,3.1,7.8,5.4s3.5,5.1,4.5,8.2c1,3.2,1.4,6.6,1.4,10.3
			V149.6z M758.4,145.4c0.1-4.2-0.7-7.5-2.5-9.9c-1.8-2.4-4.6-3.6-8.3-3.6c-1.9,0-3.6,0.4-5,1.1c-1.4,0.7-2.6,1.7-3.5,2.9
			c-0.9,1.2-1.6,2.6-2.1,4.3c-0.5,1.6-0.8,3.4-0.9,5.3H758.4z"/>
	</g>
</g>
</svg>
